<svg width="27" height="23" viewBox="0 0 27 23" fill="none" xmlns="http://www.w3.org/2000/svg">
<path d="M4.57629 2.66282C4.58112 2.56566 4.60744 2.47109 4.6531 2.38686C4.69876 2.30263 4.76247 2.23113 4.839 2.17821C4.86648 2.15702 4.89894 2.14436 4.93276 2.14166C4.96657 2.13896 5.00042 2.1463 5.03056 2.16289L7.25449 3.52288L6.88009 4.21053L4.69111 2.86452C4.62435 2.84987 4.57629 2.77799 4.57629 2.66282Z" fill="#424242"/>
<path d="M6.79712 4.02288C6.79712 4.20194 6.91505 4.27517 7.0592 4.18596C7.13613 4.13296 7.20013 4.06118 7.24592 3.97657C7.29171 3.89195 7.31796 3.79694 7.32252 3.69936C7.32252 3.52029 7.20584 3.44772 7.0592 3.53759C6.98314 3.59116 6.91985 3.66293 6.87436 3.74717C6.82886 3.83141 6.80242 3.92582 6.79712 4.02288Z" fill="#525252"/>
<path d="M6.79711 4.02352C6.80221 3.9265 6.82858 3.83212 6.8741 3.74795C6.91962 3.66378 6.98301 3.59217 7.05918 3.5389C7.08645 3.51779 7.11864 3.50513 7.15223 3.50231C7.18581 3.49949 7.21948 3.50663 7.2495 3.52293L8.59296 4.35103L8.22418 5.03269L6.87635 4.20924H6.87198H6.86886C6.84306 4.18737 6.82293 4.15883 6.81037 4.12633C6.79781 4.09382 6.79325 4.05844 6.79711 4.02352Z" fill="#999999"/>
<path d="M8.14124 4.8503C8.14124 5.02871 8.25917 5.10193 8.40394 5.01206C8.48062 4.95882 8.54439 4.88698 8.59005 4.8024C8.63571 4.71782 8.66195 4.62292 8.66664 4.52545C8.66664 4.34771 8.54871 4.27515 8.40394 4.36502C8.32736 4.41805 8.26363 4.48967 8.21797 4.57402C8.17231 4.65836 8.14602 4.75304 8.14124 4.8503Z" fill="#BEBEBE"/>
<path d="M21.7031 11.6502C21.7031 13.1886 22.7171 13.8137 23.9657 13.0421C24.6248 12.5842 25.1733 11.967 25.5667 11.2405C25.9602 10.514 26.1875 9.69878 26.2302 8.86099C26.2302 7.32193 25.2162 6.69619 23.9657 7.46838C23.307 7.92657 22.7588 8.54402 22.3656 9.27062C21.9725 9.99722 21.7455 10.8125 21.7031 11.6502Z" fill="#424242"/>
<path d="M19.6383 10.3769C19.6807 9.53916 19.9077 8.7239 20.3007 7.99722C20.6937 7.27053 21.2417 6.6529 21.9003 6.19442C22.1252 6.02215 22.3879 5.91458 22.6631 5.88205C22.9383 5.84952 23.2167 5.89313 23.4715 6.00869L25.5519 7.29146C25.296 7.17017 25.0147 7.12276 24.7362 7.15395C24.4577 7.18514 24.1918 7.29385 23.9651 7.4692C23.3063 7.92738 22.7581 8.54484 22.365 9.27143C21.9719 9.99803 21.7449 10.8133 21.7025 11.651C21.6762 11.9406 21.7185 12.2326 21.8257 12.5002C21.9329 12.7677 22.1015 13.0022 22.3159 13.1821L20.2536 11.91C20.0383 11.7304 19.869 11.4957 19.7614 11.2277C19.6539 10.9597 19.6115 10.667 19.6383 10.3769Z" fill="#525252"/>
<path d="M21.6102 11.5917C21.6525 10.7538 21.8795 9.93849 22.2728 9.21186C22.666 8.48524 23.2144 7.86784 23.8734 7.40985C24.098 7.23691 24.3606 7.12871 24.6359 7.09571C24.9111 7.06271 25.1897 7.10602 25.4446 7.22146L25.5526 7.28803C25.2967 7.16674 25.0154 7.11932 24.7369 7.15052C24.4584 7.18171 24.1925 7.29042 23.9658 7.46577C23.307 7.92395 22.7588 8.54141 22.3657 9.268C21.9725 9.9946 21.7456 10.8099 21.7032 11.6476C21.6768 11.9372 21.7192 12.2292 21.8264 12.4968C21.9336 12.7643 22.1022 12.9988 22.3166 13.1787L22.2261 13.1234C22.009 12.9458 21.8383 12.7116 21.7305 12.4434C21.6226 12.1752 21.5812 11.8819 21.6102 11.5917Z" fill="#5F6060"/>
<path d="M20.935 11.1756C20.9777 10.3382 21.2049 9.52335 21.5981 8.79721C21.9913 8.07107 22.5396 7.45411 23.1983 6.99642C23.4227 6.82338 23.6853 6.71528 23.9606 6.68261C24.2358 6.64995 24.5143 6.69384 24.7689 6.81003L24.8774 6.87659C24.6216 6.75501 24.3403 6.70755 24.0618 6.73899C23.7833 6.77043 23.5175 6.87966 23.2913 7.05567C22.6322 7.51307 22.0838 8.13006 21.6906 8.85641C21.2974 9.58276 21.0706 10.3979 21.0286 11.2355C21.0022 11.525 21.0445 11.817 21.1516 12.0846C21.2587 12.3521 21.4271 12.5866 21.6414 12.7666L21.5509 12.708C21.3338 12.5303 21.1631 12.296 21.0552 12.0276C20.9474 11.7593 20.906 11.4659 20.935 11.1756Z" fill="#3C3C3C"/>
<path d="M20.238 10.7462C20.2811 9.90851 20.5085 9.09342 20.902 8.36699C21.2954 7.64056 21.8437 7.02324 22.5025 6.56507C22.7273 6.39277 22.99 6.28528 23.2651 6.25298C23.5403 6.22067 23.8186 6.26465 24.0731 6.38067L24.1823 6.44724C23.9265 6.32557 23.6452 6.27799 23.3668 6.30931C23.0883 6.34063 22.8224 6.44975 22.5961 6.62564C21.9368 7.08276 21.388 7.69955 20.9945 8.42579C20.601 9.15203 20.3739 9.96717 20.3316 10.8048C20.305 11.0938 20.3473 11.3852 20.4545 11.6521C20.5618 11.9189 20.7305 12.1525 20.945 12.3312V12.3352L20.8545 12.278C20.6375 12.1002 20.4669 11.8661 20.359 11.5979C20.251 11.3297 20.2094 11.0365 20.238 10.7462Z" fill="#3C3C3C"/>
<path d="M21.2183 11.4866L21.5209 10.966L21.3443 10.4155L21.7611 9.99481L21.6569 9.40435L22.168 9.08749L22.1156 8.47173L22.7065 8.27935L22.7627 7.69621L23.3667 7.60302L23.5052 7.17831L24.2428 7.09243L24.4724 6.86743C24.4724 6.86743 25.0097 7.01721 25.1588 7.07113L25.316 7.14636L25.4059 7.20027C25.3316 7.15628 25.2529 7.12123 25.1713 7.09576L24.5473 6.9127L24.3064 7.14036L23.5801 7.22291L23.4447 7.64695L22.8344 7.74414L22.7882 8.31662L22.1992 8.50368L22.2441 9.13076L21.7374 9.43897L21.8435 10.0201L21.4254 10.4348L21.5983 10.9947L21.2988 11.4933L21.5814 11.9592L21.4423 12.2921L21.821 12.7035L21.8747 12.9078L21.8042 12.8646L21.7786 12.7088L21.3793 12.2801L21.5134 11.9473L21.2183 11.4866Z" fill="#424242"/>
<path d="M20.4907 11.0412L20.7934 10.52L20.6168 9.9675L21.033 9.55012L20.9294 8.96032L21.4404 8.64213L21.3886 8.02504L21.9796 7.83399L22.0357 7.24885L22.6385 7.155L22.7783 6.73361L23.5158 6.64508L23.7455 6.42407C23.7455 6.42407 24.284 6.57053 24.4319 6.62711L24.5879 6.699L24.6771 6.75358C24.6041 6.70808 24.5259 6.67294 24.4444 6.64907C24.3139 6.6098 23.8204 6.46734 23.8204 6.46734L23.5789 6.695L22.8532 6.77622L22.7159 7.19826L22.1056 7.29745L22.0619 7.8686L21.4716 8.05566L21.5172 8.68473L21.0099 8.99228L21.116 9.57342L20.6973 9.98947L20.8707 10.5473L20.5712 11.0466L20.8551 11.5125L20.7147 11.8401L21.0935 12.2541L21.1472 12.4578L21.076 12.4159L21.0504 12.2595L20.6517 11.8301L20.7852 11.4972L20.4907 11.0412Z" fill="#424242"/>
<path d="M19.77 10.5938L20.072 10.0719L19.8961 9.52269L20.3123 9.10332L20.2087 8.51352L20.7204 8.19332L20.6667 7.57624L21.257 7.38785L21.3132 6.80005L21.9178 6.70818L22.057 6.28415L22.7939 6.19695L23.0242 5.97461C23.0242 5.97461 23.5608 6.12371 23.7106 6.17431L23.8684 6.2482L23.9577 6.29946C23.8836 6.25669 23.8053 6.22276 23.7243 6.19828C23.5932 6.15834 23.1003 6.01654 23.1003 6.01654L22.8594 6.24221L22.1337 6.32609L21.9971 6.74679L21.3862 6.84798L21.3406 7.41781L20.7516 7.60486L20.7971 8.23193L20.2904 8.54147L20.3965 9.12195L19.9784 9.54L20.1507 10.0972L19.8511 10.5958L20.1344 11.0618L19.9947 11.3946L20.3734 11.8066L20.4271 12.0097L20.3572 11.9677L20.331 11.8113L19.9329 11.3826L20.0652 11.0544L19.77 10.5938Z" fill="#424242"/>
<path d="M22.3608 11.2443C22.3608 12.3374 23.0797 12.7801 23.9658 12.2335C24.4337 11.9081 24.823 11.4694 25.102 10.9532C25.381 10.4369 25.5418 9.85767 25.5713 9.2626C25.5713 8.16954 24.8525 7.73153 23.9651 8.27473C23.4977 8.60032 23.1089 9.0389 22.8301 9.55487C22.5514 10.0708 22.3906 10.6497 22.3608 11.2443Z" fill="#353535"/>
<path d="M22.5648 11.1184C22.5648 12.0736 23.1888 12.4604 23.9663 11.9838C24.3744 11.6999 24.7141 11.3175 24.9578 10.8675C25.2015 10.4175 25.3424 9.91252 25.3691 9.39359C25.3691 8.43833 24.7419 8.05223 23.9663 8.5282C23.5585 8.81224 23.2191 9.19475 22.9756 9.64474C22.7321 10.0947 22.5914 10.5996 22.5648 11.1184Z" fill="#959494"/>
<path d="M23.4709 10.5613C23.4709 10.8988 23.6925 11.0352 23.9658 10.8662C24.1109 10.7661 24.2318 10.6308 24.3185 10.4714C24.4053 10.312 24.4555 10.1329 24.465 9.94884C24.465 9.61134 24.2422 9.47687 23.9658 9.64462C23.8215 9.74508 23.7015 9.88046 23.6155 10.0397C23.5295 10.199 23.48 10.3777 23.4709 10.5613Z" fill="#767676"/>
<path d="M23.8353 10.3356C23.8353 10.4254 23.894 10.4601 23.9657 10.4155C24.0039 10.3892 24.0357 10.3536 24.0586 10.3118C24.0815 10.2699 24.0948 10.2229 24.0974 10.1745C24.0974 10.0859 24.035 10.0467 23.9657 10.0939C23.9278 10.1205 23.8962 10.1562 23.8735 10.1982C23.8509 10.2401 23.8378 10.2872 23.8353 10.3356Z" fill="#5F6060"/>
<path d="M23.6575 10.2051L23.6812 10.2424C23.718 10.2643 23.7754 10.2277 23.811 10.1612C23.8465 10.0946 23.8484 10.028 23.811 10.0021L23.786 9.99341L23.7629 10.1206L23.6575 10.2051Z" fill="#595959"/>
<path d="M23.6575 10.2051L23.7629 10.1206L23.786 9.99341L23.6812 10.0806L23.6575 10.2051Z" fill="#3C3C3C"/>
<path d="M23.6637 10.7462L23.6874 10.7841C23.7223 10.8061 23.781 10.7701 23.8172 10.7036C23.8534 10.637 23.854 10.5644 23.8172 10.5431L23.7904 10.5352L23.7685 10.6603L23.6637 10.7462Z" fill="#595959"/>
<path d="M23.6637 10.7462L23.7685 10.6603L23.7904 10.5352L23.6874 10.621L23.6637 10.7462Z" fill="#3C3C3C"/>
<path d="M24.1042 10.4706L24.1286 10.5059C24.1642 10.5298 24.2222 10.4912 24.2584 10.426C24.2946 10.3608 24.2939 10.2869 24.2584 10.2656L24.2328 10.2576L24.2091 10.382L24.1042 10.4706Z" fill="#595959"/>
<path d="M24.1042 10.4706L24.2091 10.382L24.2328 10.2576L24.128 10.3448L24.1042 10.4706Z" fill="#3C3C3C"/>
<path d="M24.0992 9.92958L24.1217 9.96485C24.1579 9.98815 24.2166 9.95088 24.2534 9.88497C24.2902 9.81907 24.2896 9.74518 24.2534 9.72255L24.2278 9.71655L24.2028 9.84303L24.0992 9.92958Z" fill="#595959"/>
<path d="M24.1024 9.9295L24.206 9.8423L24.231 9.71582L24.1268 9.80568L24.1024 9.9295Z" fill="#3C3C3C"/>
<path d="M23.5396 9.11212C23.6269 9.23461 23.786 9.25591 23.9657 9.14674C24.0961 9.05545 24.2071 8.9362 24.2919 8.79661C24.3767 8.65702 24.4332 8.50014 24.4581 8.33594L24.3114 8.37055C24.2393 8.65141 24.0727 8.89407 23.8434 9.05221C23.7993 9.08391 23.7496 9.10558 23.6973 9.11588C23.6451 9.12619 23.5913 9.12491 23.5396 9.11212Z" fill="#5F6060"/>
<path d="M23.4753 8.9403C23.4722 8.98808 23.4846 9.03555 23.5105 9.07471C23.5363 9.11387 23.574 9.14234 23.6173 9.15531C23.6605 9.16828 23.7066 9.16497 23.7478 9.14594C23.789 9.1269 23.8228 9.09331 23.8435 9.0508C24.0727 8.89265 24.2393 8.64999 24.3115 8.36914C24.1909 8.40644 24.0751 8.45919 23.9664 8.52624C23.7864 8.64077 23.6214 8.77998 23.4753 8.9403Z" fill="#3C3C3C"/>
<path d="M22.8676 12.0032C22.9569 12.0827 23.0625 12.1389 23.1758 12.1673C23.2891 12.1958 23.407 12.1956 23.5202 12.1669C23.6182 11.86 23.5689 11.5811 23.388 11.5092L23.373 11.5039C23.4187 11.5904 23.4447 11.6872 23.4489 11.7864C23.4531 11.8856 23.4355 11.9845 23.3973 12.0751C23.2183 12.1177 23.0309 12.0922 22.8676 12.0032Z" fill="#5F6060"/>
<path d="M22.7615 11.8826L22.8657 12.0031C23.029 12.0922 23.2164 12.1176 23.3955 12.075C23.4336 11.9844 23.4513 11.8855 23.447 11.7863C23.4428 11.6871 23.4168 11.5904 23.3711 11.5038C23.1877 11.4419 22.9374 11.6044 22.7615 11.8826Z" fill="#3C3C3C"/>
<path d="M22.5648 11.1177V11.1943C22.6974 11.1168 22.8133 11.0103 22.9048 10.8818C22.9962 10.7534 23.0614 10.6058 23.0958 10.4487C23.1645 10.1505 23.089 9.92417 22.9236 9.87158C22.9643 9.94348 22.9897 10.024 22.9981 10.1075C23.0065 10.191 22.9977 10.2754 22.9723 10.3549C22.9101 10.6188 22.7672 10.8531 22.5661 11.0205L22.5648 11.1177Z" fill="#5F6060"/>
<path d="M22.5674 11.0231C22.7685 10.8557 22.9114 10.6214 22.9736 10.3575C22.999 10.278 23.0078 10.1936 22.9994 10.1101C22.991 10.0266 22.9656 9.94608 22.9249 9.87418L22.8675 9.86353C22.6944 10.2242 22.5923 10.6188 22.5674 11.0231Z" fill="#3C3C3C"/>
<path d="M24.3557 11.4553C24.3602 11.5157 24.3763 11.5744 24.4031 11.6277C24.7357 11.2829 24.996 10.8668 25.1669 10.4069L25.0122 10.4009C24.8531 10.7908 24.6309 11.1477 24.3557 11.4553Z" fill="#5F6060"/>
<path d="M24.3557 11.4552C24.6309 11.1474 24.8531 10.7903 25.0121 10.4001C24.8103 10.4618 24.639 10.6051 24.5348 10.7995C24.4097 10.9915 24.3468 11.2217 24.3557 11.4552Z" fill="#3C3C3C"/>
<path d="M24.8699 9.48289C24.9735 9.62934 25.1688 9.62268 25.3691 9.46824V9.39301C25.3807 9.23001 25.3594 9.06623 25.3066 8.91279C25.2537 8.75934 25.1705 8.61981 25.0627 8.50366L25.0433 8.52829C25.1868 8.7551 25.2579 9.02518 25.2461 9.29849V9.37437C25.1956 9.4223 25.1353 9.45706 25.07 9.47589C25.0047 9.49472 24.9362 9.49711 24.8699 9.48289Z" fill="#5F6060"/>
<path d="M24.8231 9.38572L24.8699 9.48291C24.936 9.49682 25.0041 9.49426 25.069 9.47544C25.134 9.45662 25.194 9.42203 25.2443 9.3744V9.29851C25.2561 9.0252 25.185 8.75513 25.0415 8.52832C24.9467 8.64427 24.8777 8.78169 24.8399 8.93021C24.802 9.07874 24.7963 9.23449 24.8231 9.38572Z" fill="#3C3C3C"/>
<path d="M20.5805 7.96709L16.1995 10.6658V9.60998L20.5805 6.91064V7.96709Z" fill="#FAAC32"/>
<path d="M7.60152 10.8502L11.5264 13.2686L12.2234 12.7501L17.4238 7.20093L21.3488 9.61869C21.3488 9.61869 17.5074 14.9441 16.1484 15.1678C15.983 15.2703 13.4446 18.3691 11.4497 19.5979C10.0617 18.9411 8.70668 18.2079 7.38998 17.4012C7.38998 17.4012 4.40229 15.6378 3.12061 13.6121C3.35211 13.467 7.60152 10.8502 7.60152 10.8502Z" fill="#383838"/>
<path d="M11.5264 13.2678L11.3717 14.3522L12.9635 17.1307L16.1459 15.1663L21.3462 9.61719C21.3462 9.61719 20.5631 14.0007 18.4759 15.2668C18.2444 15.408 11.4453 19.5938 11.4453 19.5938C11.4453 19.5938 8.32532 18.052 7.04114 16.0244C7.27763 15.8859 11.5264 13.2678 11.5264 13.2678Z" fill="#424242"/>
<path d="M19.3676 13.5136L19.7301 13.7373V12.6802L24.7158 9.6147L24.3539 9.39502L19.3676 12.4572V13.5136Z" fill="#EDD11D"/>
<path d="M19.7301 13.7393L24.7158 10.6772V9.61206L19.7301 12.6775V13.7393Z" fill="#FCDD18"/>
<path d="M18.5544 12.5469L19.2533 12.1162L19.7294 12.4104L19.0299 12.8385L18.5544 12.5469Z" fill="#BCA828"/>
<path d="M19.73 12.4111L19.0305 12.8392V14.3702L19.73 13.9395V12.4111Z" fill="#FCDD18"/>
<path d="M18.5544 14.078L19.0299 14.3729V12.8419L18.5544 12.5503V14.078Z" fill="#EDD11D"/>
<path d="M12.8855 9.74639C12.9013 9.45001 12.8507 9.15386 12.7379 8.88251C12.625 8.61115 12.4532 8.37239 12.2366 8.18604L19.8231 0.770992C19.8231 0.770992 21.1204 -0.318059 21.7269 0.0933332L25.6986 2.5477L16.1515 15.1677L12.2266 12.75C12.6007 11.7947 12.8234 10.7796 12.8855 9.74639Z" fill="#EDD11D"/>
<path d="M16.162 10.6044C16.3787 10.7904 16.5506 11.0289 16.6635 11.3001C16.7764 11.5713 16.8269 11.8672 16.811 12.1634C16.7476 13.1969 16.5237 14.2119 16.1483 15.167L23.0846 7.76462C23.0846 7.76462 26.4842 3.9223 25.7429 2.59027C25.1869 1.9825 23.7498 3.18938 23.7498 3.18938L16.162 10.6044Z" fill="#FCDD18"/>
<path d="M12.6533 5.71313C13.4882 4.65469 18.7579 0.593367 19.2596 0.223247C19.584 0.00490332 19.848 -0.0490144 20.0083 0.0428498L20.0283 0.0548255L23.9433 2.46793L15.8719 10.7983L11.912 8.36055L11.8178 8.25471C11.4634 7.55708 12.2983 6.14915 12.6533 5.71313Z" fill="#5C5C5B"/>
<path d="M15.744 10.6697C15.3889 9.97474 16.2232 8.56483 16.5789 8.12681C17.4138 7.07038 22.6835 3.01171 23.1858 2.63892C23.8878 2.16363 24.3058 2.47783 24.0188 3.31725C23.7954 4.168 18.479 9.69916 18.479 9.69916C18.479 9.69916 16.1003 11.3667 15.744 10.6697Z" fill="#424242"/>
<path d="M2.55518 21.2754C2.55518 22.8158 3.56979 23.4395 4.81965 22.6733C5.47817 22.2149 6.02614 21.5974 6.41915 20.8708C6.81215 20.1443 7.03911 19.3291 7.08164 18.4915C7.08164 16.9525 6.06827 16.3274 4.81965 17.0936C4.16099 17.552 3.61277 18.1695 3.21936 18.896C2.82596 19.6225 2.59842 20.4377 2.55518 21.2754Z" fill="#424242"/>
<path d="M0.490414 20.0032C0.532913 19.1653 0.759926 18.3499 1.15304 17.6231C1.54615 16.8963 2.0943 16.2786 2.75303 15.8201C2.97818 15.648 3.24108 15.5407 3.51639 15.5085C3.7917 15.4763 4.07014 15.5204 4.32487 15.6363L6.40527 16.9198C6.14971 16.798 5.86862 16.75 5.5902 16.7807C5.31178 16.8115 5.04584 16.9198 4.81907 17.0948C4.16032 17.5534 3.61204 18.171 3.21863 18.8976C2.82522 19.6242 2.59774 20.4395 2.55459 21.2773C2.52758 21.5671 2.56972 21.8594 2.67707 22.1271C2.78443 22.3948 2.95352 22.6291 3.16861 22.8084L1.1063 21.5389C0.890517 21.3592 0.720889 21.1241 0.613203 20.8556C0.505516 20.5871 0.463273 20.2938 0.490414 20.0032Z" fill="#525252"/>
<path d="M2.46285 21.2176C2.50529 20.3799 2.73229 19.5648 3.12542 18.8383C3.51855 18.1118 4.06674 17.4945 4.72546 17.0364C4.95068 16.8646 5.21335 16.7572 5.48848 16.7244C5.76362 16.6915 6.04205 16.7343 6.2973 16.8487L6.40525 16.9152C6.1497 16.7934 5.8686 16.7455 5.59018 16.7762C5.31177 16.807 5.04582 16.9153 4.81905 17.0903C4.16052 17.5494 3.61258 18.1674 3.2196 18.8944C2.82662 19.6214 2.59965 20.4368 2.55707 21.2748C2.53006 21.5645 2.5722 21.8569 2.67955 22.1246C2.78691 22.3923 2.95599 22.6266 3.17108 22.8059L3.07998 22.752C2.86231 22.5742 2.6912 22.3397 2.58311 22.071C2.47503 21.8022 2.43361 21.5083 2.46285 21.2176Z" fill="#5F6060"/>
<path d="M1.78712 20.8035C1.82929 19.9656 2.05624 19.1502 2.44951 18.4236C2.84278 17.6969 3.39126 17.0795 4.05036 16.6217C4.27481 16.4486 4.53742 16.3405 4.81265 16.3079C5.08788 16.2752 5.36634 16.3191 5.62095 16.4353L5.73077 16.5018C5.4751 16.3802 5.19399 16.3323 4.91553 16.3629C4.63706 16.3935 4.371 16.5016 4.14395 16.6762C3.48531 17.1346 2.93717 17.7521 2.54396 18.4787C2.15075 19.2052 1.92353 20.0204 1.88072 20.8581C1.85405 21.1477 1.89627 21.4399 2.00349 21.7075C2.1107 21.9751 2.27945 22.2095 2.49411 22.3891L2.40425 22.3352C2.18756 22.1572 2.01712 21.923 1.90911 21.6549C1.8011 21.3868 1.75912 21.0937 1.78712 20.8035Z" fill="#3C3C3C"/>
<path d="M1.09134 20.374C1.13405 19.5362 1.36123 18.721 1.75445 17.9945C2.14767 17.2679 2.69587 16.6505 3.35458 16.1921C3.57964 16.0202 3.84229 15.9128 4.11739 15.8802C4.39249 15.8476 4.67083 15.8908 4.9258 16.0058L5.03437 16.0723C4.77856 15.951 4.49741 15.9034 4.21897 15.9342C3.94053 15.9651 3.67454 16.0733 3.44755 16.2481C2.78909 16.7066 2.24113 17.3241 1.84804 18.0507C1.45494 18.7772 1.22778 19.5923 1.18495 20.4299C1.15813 20.7194 1.20016 21.0115 1.30715 21.2791C1.41415 21.5467 1.58265 21.7812 1.79709 21.9609L1.7066 21.9037C1.48995 21.7262 1.31962 21.4923 1.2119 21.2245C1.10418 20.9566 1.06266 20.6638 1.09134 20.374Z" fill="#3C3C3C"/>
<path d="M2.07104 21.115L2.37306 20.5925L2.19647 20.0439L2.6133 19.6245L2.50972 19.0334L3.02077 18.7152L2.96835 18.0995L3.55802 17.9064L3.61544 17.3206L4.21884 17.2314L4.35799 16.8067L5.09493 16.7195L5.32456 16.4958C5.32456 16.4958 5.86182 16.6456 6.01096 16.6995L6.1682 16.7748L6.25806 16.8274C6.18373 16.7838 6.10502 16.7495 6.02343 16.7248C5.89302 16.6822 5.39944 16.5398 5.39944 16.5398L5.15857 16.7674L4.43224 16.8513L4.29684 17.2754L3.68657 17.3719L3.64039 17.9424L3.05134 18.1314L3.09627 18.7592L2.58959 19.0687L2.69567 19.6485L2.27821 20.0659L2.45044 20.6224L2.15092 21.1197L2.43421 21.5903L2.29444 21.9192L2.6732 22.3319L2.72687 22.5349L2.65635 22.493L2.63077 22.3365L2.23203 21.9065L2.36432 21.579L2.07104 21.115Z" fill="#424242"/>
<path d="M1.34338 20.6644L1.64602 20.1451L1.47006 19.5926L1.88564 19.1759L1.78144 18.5848L2.29311 18.2639L2.24069 17.6495L2.83099 17.4584L2.88778 16.8733L3.49181 16.7814L3.63033 16.3554L4.36727 16.2675L4.5969 16.0479C4.5969 16.0479 5.13603 16.1956 5.2833 16.2475L5.44054 16.3221L5.52852 16.3747C5.45482 16.3306 5.37649 16.296 5.29515 16.2715C5.16474 16.2316 4.67116 16.0878 4.67116 16.0878L4.4278 16.3154L3.7021 16.398L3.56543 16.8227L2.9558 16.9192L2.91024 17.4911L2.32057 17.6788L2.36612 18.3058L1.85819 18.616L1.96488 19.1965L1.54681 19.6119L1.71966 20.1697L1.41952 20.669L1.70344 21.1383L1.56241 21.4652L1.9418 21.8785L1.99609 22.0829L1.92558 22.0403L1.9 21.8839L1.50126 21.4559L1.6348 21.123L1.34338 20.6644Z" fill="#424242"/>
<path d="M0.623901 20.2216L0.924045 19.701L0.748708 19.1498L1.16429 18.7291L1.06071 18.1413L1.57301 17.8191L1.51933 17.204L2.11026 17.0123L2.1658 16.4285L2.77045 16.336L2.9096 15.912L3.64591 15.8247L3.87679 15.6011C3.87679 15.6011 4.41405 15.7502 4.56319 15.8061L4.72106 15.8787L4.81029 15.9333C4.73652 15.8885 4.65795 15.8534 4.57629 15.8287C4.44525 15.7895 3.95229 15.647 3.95229 15.647L3.71143 15.8733L2.98573 15.9572L2.84783 16.3786L2.23755 16.4771L2.19138 17.0496L1.60358 17.236L1.6485 17.8644L1.1412 18.1746L1.24728 18.7531L0.829821 19.1731L1.00204 19.729L0.702529 20.2276L0.98582 20.6935L0.846046 21.0217L1.22419 21.4351L1.27848 21.6388L1.20859 21.5982L1.18238 21.4398L0.783023 21.0097L0.91718 20.6816L0.623901 20.2216Z" fill="#424242"/>
<path d="M3.2135 20.8708C3.2135 21.9652 3.93234 22.4065 4.81966 21.8586C5.28703 21.5342 5.67602 21.0966 5.955 20.5815C6.23398 20.0664 6.39508 19.4884 6.4252 18.8944C6.4252 17.8013 5.70636 17.3573 4.81966 17.9045C4.35235 18.2296 3.96341 18.6676 3.68435 19.1829C3.4053 19.6983 3.24399 20.2765 3.2135 20.8708Z" fill="#353535"/>
<path d="M3.4176 20.7455C3.4176 21.7008 4.0416 22.0849 4.81973 21.6109C5.22773 21.327 5.56728 20.9445 5.81089 20.4945C6.05449 20.0445 6.19528 19.5396 6.22184 19.0207C6.22184 18.0675 5.59348 17.6787 4.81973 18.1553C4.41166 18.4391 4.07203 18.8216 3.82842 19.2716C3.58481 19.7216 3.44407 20.2266 3.4176 20.7455Z" fill="#959494"/>
<path d="M4.323 20.1889C4.323 20.5218 4.54514 20.6629 4.81907 20.4925C4.96357 20.3924 5.08379 20.2572 5.16991 20.098C5.25602 19.9388 5.30558 19.7601 5.31452 19.5765C5.31452 19.2437 5.09301 19.0999 4.81907 19.2723C4.67431 19.3723 4.55386 19.5076 4.46762 19.6669C4.38138 19.8263 4.33181 20.0052 4.323 20.1889Z" fill="#767676"/>
<path d="M4.68799 19.9619C4.68799 20.0518 4.74601 20.0884 4.81902 20.0431C4.8574 20.0164 4.88925 19.9803 4.91193 19.9378C4.93461 19.8953 4.94747 19.8477 4.94944 19.7988C4.94944 19.7123 4.89141 19.6756 4.81902 19.7202C4.78103 19.7468 4.7494 19.7825 4.72665 19.8245C4.70389 19.8664 4.69066 19.9135 4.68799 19.9619Z" fill="#5F6060"/>
<path d="M4.51086 19.8327L4.53395 19.8687C4.57139 19.8913 4.6288 19.856 4.66437 19.7901C4.69994 19.7242 4.70056 19.6503 4.66437 19.6297L4.63941 19.623L4.6157 19.7455L4.51086 19.8327Z" fill="#595959"/>
<path d="M4.51025 19.8327L4.61508 19.7455L4.63879 19.623L4.53333 19.7089L4.51025 19.8327Z" fill="#3C3C3C"/>
<path d="M4.51514 20.3734L4.53823 20.4093C4.57379 20.432 4.63183 20.3973 4.66927 20.3294C4.70671 20.2615 4.70484 20.1903 4.66927 20.1703L4.64244 20.1624L4.61935 20.2888L4.51514 20.3734Z" fill="#595959"/>
<path d="M4.51575 20.3734L4.61996 20.2888L4.64305 20.1624L4.53884 20.2482L4.51575 20.3734Z" fill="#3C3C3C"/>
<path d="M4.95703 20.0964L4.98074 20.1303C5.01631 20.1543 5.07434 20.1197 5.11054 20.0518C5.14673 19.9839 5.1461 19.9133 5.11054 19.8914L5.08495 19.884L5.06186 20.0092L4.95703 20.0964Z" fill="#595959"/>
<path d="M4.95703 20.0964L5.06186 20.0092L5.08495 19.884L4.98012 19.9726L4.95703 20.0964Z" fill="#3C3C3C"/>
<path d="M4.95264 19.5571L4.97572 19.5931C5.01066 19.6157 5.07056 19.5785 5.10613 19.5132C5.1417 19.448 5.14295 19.3714 5.10613 19.3501L5.08055 19.3455L5.05684 19.4693L4.95264 19.5571Z" fill="#595959"/>
<path d="M4.95264 19.5573L5.05747 19.4688L5.08118 19.345L4.97635 19.4295L4.95264 19.5573Z" fill="#3C3C3C"/>
<path d="M4.39221 18.7365C4.47957 18.8617 4.63807 18.8803 4.81903 18.7725C4.94911 18.681 5.05996 18.5617 5.1445 18.4222C5.22904 18.2826 5.28544 18.1258 5.31011 17.9617L5.16285 17.997C5.08981 18.2765 4.92419 18.5182 4.69673 18.6773C4.65301 18.7101 4.60314 18.7323 4.55057 18.7426C4.498 18.7528 4.44396 18.7507 4.39221 18.7365Z" fill="#5F6060"/>
<path d="M4.32739 18.5668C4.33514 18.6279 4.35655 18.6861 4.3898 18.7366C4.4415 18.7506 4.49544 18.7525 4.5479 18.7422C4.60036 18.7318 4.65009 18.7095 4.69368 18.6767C4.92115 18.5176 5.08678 18.2758 5.15981 17.9963C5.03993 18.0339 4.9247 18.0866 4.81661 18.1535C4.63764 18.2684 4.47322 18.4073 4.32739 18.5668Z" fill="#3C3C3C"/>
<path d="M3.71838 21.6276C3.80688 21.7084 3.91209 21.7655 4.02536 21.7943C4.13863 21.8231 4.2567 21.8228 4.36983 21.7934C4.46842 21.4865 4.41851 21.2076 4.2388 21.1344L4.22382 21.1304C4.26904 21.2173 4.29471 21.3143 4.29883 21.4136C4.30294 21.513 4.28538 21.612 4.24753 21.7028C4.0683 21.7438 3.88132 21.7172 3.71838 21.6276Z" fill="#5F6060"/>
<path d="M3.61414 21.5078L3.71834 21.6283C3.88127 21.7179 4.06826 21.7444 4.24749 21.7035C4.28534 21.6127 4.30291 21.5137 4.29879 21.4143C4.29468 21.315 4.26899 21.218 4.22377 21.131C4.03969 21.0698 3.78948 21.2322 3.61414 21.5078Z" fill="#3C3C3C"/>
<path d="M3.4176 20.7456V20.8228C3.5498 20.7443 3.66527 20.6374 3.75669 20.5089C3.8481 20.3803 3.91346 20.2328 3.94862 20.0759C4.01726 19.7783 3.94113 19.5527 3.7764 19.5007C3.81709 19.5724 3.84259 19.6526 3.8511 19.7359C3.85962 19.8191 3.85094 19.9034 3.82569 19.9827C3.76219 20.2462 3.61924 20.4801 3.41885 20.6484L3.4176 20.7456Z" fill="#5F6060"/>
<path d="M3.42004 20.651C3.62043 20.4827 3.76339 20.2488 3.82688 19.9853C3.85214 19.906 3.86081 19.8217 3.8523 19.7385C3.84378 19.6552 3.81828 19.5749 3.77759 19.5033L3.72018 19.49C3.54715 19.8512 3.44503 20.2462 3.42004 20.651Z" fill="#3C3C3C"/>
<path d="M5.20776 21.079C5.21284 21.1395 5.22917 21.1983 5.25581 21.252C5.58767 20.9067 5.84769 20.4908 6.01895 20.0312L5.86421 20.0232C5.70529 20.4136 5.48307 20.771 5.20776 21.079Z" fill="#5F6060"/>
<path d="M5.20776 21.079C5.48307 20.771 5.70529 20.4136 5.8642 20.0232C5.66288 20.0856 5.49203 20.2288 5.38747 20.4226C5.26187 20.6145 5.19874 20.8451 5.20776 21.079Z" fill="#3C3C3C"/>
<path d="M5.72205 19.1098C5.82625 19.2543 6.02219 19.2496 6.22124 19.0932V19.0186C6.2329 18.8558 6.21157 18.6923 6.15871 18.539C6.10584 18.3858 6.02268 18.2465 5.91486 18.1306L5.89552 18.1552C6.03924 18.3819 6.11038 18.6521 6.09831 18.9254V19.0013C6.04775 19.0492 5.98745 19.084 5.92216 19.1028C5.85686 19.1217 5.78836 19.1241 5.72205 19.1098Z" fill="#5F6060"/>
<path d="M5.67584 19.0122L5.72201 19.11C5.78808 19.1239 5.85626 19.1212 5.92121 19.1023C5.98615 19.0833 6.04611 19.0486 6.09641 19.0009V18.925C6.10848 18.6516 6.03734 18.3814 5.89361 18.1548C5.79837 18.2705 5.72922 18.4079 5.69147 18.5565C5.65373 18.7052 5.64838 18.861 5.67584 19.0122Z" fill="#3C3C3C"/>
<path d="M2.50908 15.0986C2.75902 14.9066 3.05129 14.7869 3.35746 14.7511C3.66363 14.7153 3.97327 14.7646 4.25627 14.8943L7.32945 16.7861L3.0295 21.8959L0.0131015 20.0373C0.00436553 19.9415 0 19.8416 0 19.7384C0.0472463 18.8092 0.299029 17.9049 0.734949 17.0988C1.17087 16.2927 1.77866 15.6074 2.50908 15.0986Z" fill="#EDD11D"/>
<path d="M7.95217 17.7572C7.66701 16.6109 6.6892 16.2421 5.52545 16.9583C4.79462 17.4661 4.18643 18.1507 3.75033 18.9565C3.31424 19.7622 3.06256 20.6664 3.01575 21.5955C3.01575 21.7 3.01948 21.7952 3.02822 21.8957L7.95217 17.7572Z" fill="#FCDD18"/>
<path d="M6.14071 6.39415C4.00915 8.05037 2.36243 13.0909 2.36243 13.0909L2.66444 13.8758L6.59062 16.2942L12.4169 8.4571L8.66727 6.1818C8.27371 5.94648 7.82354 5.84105 7.37378 5.87885C6.92401 5.91665 6.49488 6.09599 6.14071 6.39415Z" fill="#EDD11D"/>
<path d="M2.66444 13.8764L6.59062 16.2948L6.2886 15.508L2.36243 13.0916L2.66444 13.8764Z" fill="#BCA828"/>
<path d="M10.0662 8.81377C7.93467 10.4693 6.28857 15.5079 6.28857 15.5079L6.59059 16.2947L11.527 13.2519L12.5928 8.59875C12.5928 8.59875 11.6187 7.56961 10.0662 8.81377Z" fill="#FCDD18"/>
<path d="M8.41393 1.65695C8.56632 1.149 8.81101 0.678049 9.13403 0.270996L13.0951 2.71272L12.7626 6.17028L8.95619 3.78913C8.65017 3.55408 8.42925 3.2139 8.33052 2.82566C8.23178 2.43742 8.26124 2.02476 8.41393 1.65695Z" fill="#EDD11D"/>
<path d="M14.013 5.98006L13.0945 2.71289C12.7714 3.11949 12.5265 3.58998 12.3738 4.09751C12.0618 5.04611 12.2896 6.028 12.9179 6.2277C13.1065 6.27082 13.3015 6.27104 13.4902 6.22837C13.6789 6.18571 13.8571 6.1011 14.013 5.98006Z" fill="#FCDD18"/>
<path d="M6.91382 5.9274L8.29659 2.4978L12.2215 4.91623L10.8394 8.34716L6.91382 5.9274Z" fill="#383838"/>
<path d="M12.2216 4.91553L12.2347 4.92817C12.2029 5.19488 12.2526 5.46539 12.3762 5.69967C12.4998 5.93394 12.6909 6.11951 12.9211 6.22891C13.1162 6.28482 13.322 6.28206 13.5157 6.22093L13.5226 6.22891L12.5953 8.59808C12.3548 8.38478 12.0628 8.24805 11.7528 8.20354C11.4428 8.15904 11.1274 8.20857 10.8425 8.34645L12.2216 4.91553Z" fill="#424242"/>
<path d="M10.2672 6.23167C10.2674 6.57207 10.173 6.90489 9.99596 7.18805C9.81886 7.47121 9.56703 7.69197 9.27231 7.82242C8.97759 7.95286 8.65323 7.98713 8.34025 7.92089C8.02727 7.85464 7.73974 7.69085 7.51403 7.45025C7.28832 7.20964 7.13456 6.90303 7.07222 6.56919C7.00988 6.23536 7.04175 5.8893 7.1638 5.57478C7.28585 5.26027 7.4926 4.99145 7.75789 4.80231C8.02318 4.61316 8.33509 4.51221 8.65417 4.51221C9.08176 4.51221 9.49185 4.69332 9.79431 5.01575C10.0968 5.33817 10.2669 5.77552 10.2672 6.23167Z" fill="#FCDD18"/>
<path d="M6.31848 6.1551C6.343 6.63542 6.47344 7.10279 6.69919 7.51921C6.92493 7.93562 7.23961 8.28933 7.61764 8.55156C8.33461 8.99424 8.91555 8.63677 8.91555 7.75274C8.89135 7.27194 8.76121 6.804 8.5357 6.38692C8.31018 5.96984 7.99565 5.61537 7.61764 5.35229C6.89942 4.91693 6.31848 5.27174 6.31848 6.1551Z" fill="#BCA828"/>
<path d="M8.91559 7.75736C8.89139 7.27656 8.76125 6.80863 8.53573 6.39154C8.31022 5.97446 7.99569 5.61999 7.61768 5.35691C7.49185 5.26208 7.34624 5.20142 7.19346 5.18019C7.04069 5.15896 6.88537 5.17781 6.74097 5.23509L7.20647 4.94752C7.35386 4.87519 7.51665 4.84607 7.67809 4.86315C7.83954 4.88024 7.99379 4.9429 8.12499 5.04471C8.50263 5.30732 8.81697 5.66113 9.04257 6.07747C9.26817 6.49382 9.39867 6.961 9.42352 7.44117C9.44342 7.62113 9.41442 7.80339 9.33997 7.96625C9.26552 8.12912 9.14875 8.26573 9.00358 8.35981L8.54057 8.64739C8.67056 8.54696 8.7736 8.41193 8.8394 8.25576C8.9052 8.09959 8.93148 7.92774 8.91559 7.75736Z" fill="#EBCF1B"/>
<path d="M6.57996 6.31888C6.59954 6.70242 6.70365 7.07563 6.88385 7.40818C7.06405 7.74072 7.31525 8.02321 7.61704 8.23271C7.73113 8.32615 7.86986 8.37899 8.01362 8.38377C8.15739 8.38854 8.29893 8.34502 8.41825 8.25935C8.30312 8.30722 8.17856 8.32348 8.05601 8.30661C7.93346 8.28974 7.81685 8.2403 7.71688 8.16282C7.41462 7.95332 7.16307 7.67057 6.98273 7.33762C6.80239 7.00468 6.69838 6.63097 6.67918 6.24698C6.6699 6.12432 6.68625 6.001 6.72704 5.88589C6.76783 5.77078 6.83203 5.66675 6.91504 5.5813C6.79875 5.657 6.70533 5.76679 6.64592 5.89757C6.5865 6.02835 6.56361 6.1746 6.57996 6.31888Z" fill="#EDD11D"/>
<path d="M6.67916 6.24759C6.69837 6.63157 6.80237 7.00528 6.98271 7.33822C7.16305 7.67116 7.41461 7.95392 7.71686 8.16343C7.81683 8.2409 7.93344 8.29034 8.05599 8.30721C8.17854 8.32407 8.30311 8.30782 8.41824 8.25994C8.50125 8.1745 8.56545 8.07047 8.60624 7.95536C8.64702 7.84025 8.66337 7.71692 8.6541 7.59426C8.63506 7.21031 8.53119 6.8366 8.35095 6.50365C8.17071 6.17069 7.91923 5.88793 7.61702 5.67843C7.51654 5.60184 7.39987 5.55294 7.27739 5.53609C7.15491 5.51925 7.03042 5.53499 6.91502 5.58191C6.83201 5.66735 6.7678 5.77138 6.72701 5.88649C6.68623 6.0016 6.66989 6.12493 6.67916 6.24759Z" fill="#F8E671"/>
<path d="M12.0811 7.27803C12.0863 7.18077 12.1128 7.08616 12.1584 7.00177C12.204 6.91738 12.2675 6.84558 12.3438 6.79209C12.3707 6.77148 12.4025 6.7592 12.4355 6.75662C12.4685 6.75403 12.5016 6.76124 12.531 6.77744L13.7453 7.53032L13.409 8.23261L12.161 7.46242L12.156 7.45843C12.13 7.43785 12.1094 7.41041 12.0962 7.37878C12.0831 7.34716 12.0779 7.31245 12.0811 7.27803Z" fill="#999999"/>
<path d="M13.2904 8.03158C13.2955 7.93457 13.3219 7.84018 13.3674 7.75601C13.4129 7.67184 13.4763 7.60025 13.5525 7.54697C13.5798 7.52539 13.6122 7.51245 13.6461 7.50962C13.68 7.5068 13.7139 7.5142 13.7441 7.53099L15.9667 8.89098L15.5967 9.57664L13.4077 8.23262C13.3372 8.21598 13.2904 8.14608 13.2904 8.03158Z" fill="#424242"/>
<path d="M15.5112 9.3916C15.5112 9.56867 15.6292 9.64189 15.7739 9.55136C15.8504 9.49863 15.9141 9.42738 15.9599 9.34339C16.0057 9.2594 16.0322 9.16507 16.0373 9.06807C16.0373 8.88834 15.9187 8.81711 15.7739 8.90564C15.6975 8.95898 15.6339 9.03075 15.5882 9.11517C15.5426 9.19959 15.5162 9.29429 15.5112 9.3916Z" fill="#525252"/>
</svg>
