<svg width="21" height="27" viewBox="0 0 21 27" fill="none" xmlns="http://www.w3.org/2000/svg">
<path d="M10.0815 10.4624C9.54729 10.8061 9.11311 11.2896 8.82414 11.8628C8.53517 12.4359 8.40198 13.0777 8.43844 13.7212V16.0978L9.57965 15.4307L14.0445 12.1164V8.12517L10.0815 10.4624Z" fill="#3C3C3C"/>
<path d="M8.36663 24.0729L16.2594 19.4205L9.57954 15.4803L1.68674 20.1333L8.36663 24.0729Z" fill="#434443"/>
<path d="M8.36663 23.394L18.1228 17.6004L11.4429 13.6628L1.68674 19.4563L8.36663 23.394Z" fill="#525252"/>
<path d="M20.2245 16.4166L18.4203 15.3506C18.6052 15.1132 18.8655 14.9492 19.1563 14.8869C19.4471 14.8247 19.75 14.8681 20.0128 15.0097C20.9591 15.5181 20.2245 16.4166 20.2245 16.4166Z" fill="#373737"/>
<path d="M3.62668 22.3663C3.62668 23.6533 2.85688 25.1472 1.91148 25.7032C0.966077 26.2593 0.200132 25.6674 0.201095 24.3804C0.202057 23.0934 0.970888 21.5995 1.91629 21.043C2.86169 20.4864 3.62812 21.0803 3.62668 22.3663Z" fill="#373737"/>
<path d="M0.83374 25.8177L1.42841 26.1488L3.50733 21.2237L2.97136 20.9187L0.83374 25.8177Z" fill="#373737"/>
<path d="M4.21468 22.696C4.21468 23.983 3.44488 25.4773 2.49948 26.0334C1.55408 26.5895 0.789575 25.9975 0.789575 24.7105C0.789575 23.4235 1.55937 21.9297 2.50429 21.3731C3.44921 20.8165 4.21612 21.409 4.21468 22.696Z" fill="#434443"/>
<path d="M3.7326 22.9784C3.72518 23.4489 3.6098 23.911 3.39573 24.3277C3.18166 24.7443 2.87486 25.1039 2.49997 25.3776C1.82015 25.7774 1.26974 25.3515 1.27023 24.4266C1.27768 23.9562 1.39308 23.4941 1.60716 23.0776C1.82123 22.661 2.12801 22.3015 2.50286 22.0279C3.18316 21.6285 3.73357 22.0544 3.7326 22.9784Z" fill="#959494"/>
<path d="M3.19361 23.3331C3.18981 23.5734 3.13085 23.8094 3.02147 24.0221C2.91209 24.2349 2.75534 24.4185 2.56383 24.5582C2.21694 24.7626 1.93548 24.5449 1.93837 24.0724C1.94221 23.8321 2.00118 23.5961 2.11056 23.3833C2.21994 23.1706 2.37667 22.987 2.56816 22.8473C2.91264 22.6434 3.19409 22.8605 3.19361 23.3331Z" fill="#434443"/>
<path d="M3.08888 23.3945C3.08573 23.5947 3.03664 23.7913 2.94556 23.9686C2.85448 24.1458 2.72395 24.2988 2.56446 24.4153C2.27578 24.5857 2.041 24.4045 2.04148 24.0105C2.04467 23.8103 2.09377 23.6137 2.18485 23.4365C2.27592 23.2592 2.40643 23.1062 2.5659 22.9897C2.85505 22.8202 3.08888 23.001 3.08888 23.3945Z" fill="#525252"/>
<path d="M3.62614 20.065C3.30555 21.2285 2.92755 22.3746 2.49358 23.4992C2.18567 24.1549 2.6028 24.5351 3.19361 23.3331C3.62361 22.3093 3.96475 21.2492 4.21407 20.1647L3.62614 20.065Z" fill="#C9C9C9"/>
<path d="M0.726912 21.8781C0.808221 22.1296 0.833721 22.332 1.52654 22.4784C2.05083 22.5419 2.57935 22.4016 3.00695 22.0854C3.26377 21.859 3.50612 21.616 3.73248 21.3579C3.44913 20.9755 3.05972 20.689 2.61483 20.5356C2.41037 20.4449 2.18682 20.4084 1.96487 20.4295C1.74293 20.4505 1.52977 20.5284 1.34515 20.6559C1.34515 20.6559 0.622027 21.5622 0.726912 21.8781Z" fill="#3E3E3D"/>
<path d="M19.4586 16.2054C19.4586 17.4919 18.6888 18.9862 17.7434 19.5423C16.798 20.0984 16.0315 19.5064 16.033 18.2199C16.0344 16.9334 16.8028 15.4386 17.7477 14.8825C18.6926 14.3264 19.46 14.9203 19.4586 16.2054Z" fill="#373737"/>
<path d="M16.6656 19.6567L17.2603 19.9873L19.3392 15.0623L18.8033 14.7572L16.6656 19.6567Z" fill="#373737"/>
<path d="M20.0459 16.5335C20.0459 17.82 19.2761 19.3148 18.3312 19.8709C17.3862 20.427 16.6193 19.8351 16.6208 18.548C16.6222 17.261 17.3906 15.7672 18.3355 15.2106C19.2804 14.6541 20.0468 15.2465 20.0459 16.5335Z" fill="#434443"/>
<path d="M19.5642 16.8165C19.557 17.287 19.4417 17.7492 19.2277 18.1659C19.0137 18.5827 18.707 18.9424 18.3321 19.2161C17.6523 19.616 17.1019 19.1901 17.1028 18.2651C17.1102 17.7947 17.2256 17.3325 17.4397 16.9159C17.6538 16.4992 17.9606 16.1396 18.3355 15.8659C19.0148 15.4661 19.5652 15.8915 19.5642 16.8165Z" fill="#959494"/>
<path d="M19.0251 17.1706C19.0212 17.4109 18.9623 17.6469 18.8529 17.8596C18.7435 18.0724 18.5868 18.256 18.3953 18.3957C18.0479 18.6001 17.7669 18.3825 17.7674 17.9099C17.7713 17.6696 17.8302 17.4336 17.9396 17.2209C18.049 17.0081 18.2057 16.8245 18.3972 16.6848C18.7446 16.4809 19.0256 16.6981 19.0251 17.1706Z" fill="#434443"/>
<path d="M18.9196 17.232C18.9167 17.4322 18.8677 17.6289 18.7766 17.8062C18.6855 17.9836 18.5548 18.1365 18.3952 18.2528C18.1065 18.4227 17.8717 18.242 17.8722 17.848C17.8754 17.6479 17.9245 17.4513 18.0156 17.274C18.1066 17.0967 18.2372 16.9437 18.3966 16.8272C18.6863 16.6578 18.9201 16.8385 18.9196 17.232Z" fill="#525252"/>
<path d="M9.8799 14.5735L16.5598 18.6389L16.5511 14.5726L10.0276 10.6678L9.8799 14.5735Z" fill="#373737"/>
<path d="M16.5858 14.3524C16.052 14.6963 15.6182 15.18 15.3295 15.7531C15.0409 16.3263 14.908 16.9679 14.9447 17.6112V19.2706L15.1203 19.3846L16.0859 19.3212V18.8187C16.0859 16.6249 16.9163 15.5309 17.9142 15.0151C19.2613 14.3181 19.9498 15.1232 20.1418 16.2496L20.5526 16.0074V12.0152L16.5858 14.3524Z" fill="#3C3C3C"/>
<path d="M16.7612 14.4487C16.2272 14.7925 15.7931 15.2761 15.5043 15.8492C15.2154 16.4223 15.0822 17.0641 15.1187 17.7076V20.0841L16.258 19.418V18.915C16.258 16.7212 17.0884 15.6272 18.0862 15.1114C19.4334 14.4144 20.1219 15.22 20.3134 16.3459L20.7242 16.1037V12.1115L16.7612 14.4487Z" fill="#434443"/>
<path d="M18.0383 15.2652C17.2283 15.8561 16.6751 16.7455 16.4958 17.7454C16.4027 18.2808 16.3497 18.8227 16.3375 19.3664L16.0344 19.5521C15.9898 18.9455 16.0277 18.3355 16.147 17.7395C16.2463 17.1586 16.4626 16.6052 16.7822 16.1141C17.1018 15.623 17.5177 15.205 18.0037 14.8864C19.1949 14.1845 20.4574 14.7582 20.4574 16.2619L20.213 16.4186C20.046 15.0353 19.0693 14.5514 18.0383 15.2652Z" fill="#FEFEFE"/>
<path d="M14.0444 8.11285L20.7242 12.1115L20.7243 8.89685L14.0771 4.91594L14.0444 8.11285Z" fill="#EBB435"/>
<path d="M16.3866 14.4826L9.88765 10.5725L14.0444 8.11285L20.5839 11.9931L16.3866 14.4826Z" fill="#525252"/>
<path d="M16.411 12.1989V14.4773L16.5511 14.5726L20.5837 12.0182L20.7237 8.89789L20.5837 8.80259L17.2058 10.793C16.9641 10.9356 16.7634 11.1405 16.6239 11.3873C16.4844 11.6341 16.411 11.914 16.411 12.1989Z" fill="#FDDC42"/>
<path d="M16.551 12.2942L16.5511 14.5726L20.7238 12.1124V8.89931L17.3458 10.8908C17.1045 11.0331 16.904 11.2376 16.7645 11.4839C16.6251 11.7302 16.5514 12.0097 16.551 12.2942Z" fill="#F7C638"/>
<path d="M9.88765 8.29513L9.88765 10.5725L10.0276 10.6678L14.0604 8.11436L14.1182 5.15127L14.0604 4.89927L10.6829 6.88874C10.441 7.03104 10.24 7.236 10.1004 7.48292C9.96074 7.72984 9.88737 8.01 9.88765 8.29513Z" fill="#FDDC42"/>
<path d="M10.0256 8.38991V10.6682L14.1983 8.20864V4.99257L10.8204 6.98401C10.5787 7.12653 10.378 7.33147 10.2385 7.57825C10.099 7.82504 10.0255 8.10496 10.0256 8.38991Z" fill="#F7C638"/>
<path d="M20.7243 8.89685L14.0603 4.89729L13.9135 5.02747L20.5602 8.99315L20.7243 8.89685Z" fill="#FDDC42"/>
<path d="M8.43842 17.5057V21.2881L11.8322 19.2888V15.5064L8.43842 17.5057Z" fill="#434443"/>
<path d="M8.43842 17.5057V21.2881L5.0466 19.2883V15.5059L8.43842 17.5057Z" fill="#3C3C3C"/>
<path d="M11.8309 15.5059L8.43842 17.5057L5.0466 15.5059L8.43851 13.5365L11.8309 15.5059Z" fill="#525252"/>
<path d="M8.13439 16.7452C7.77535 16.6455 7.42789 16.5065 7.09806 16.3306C6.75034 16.1327 6.43495 15.8806 6.16324 15.5835C6.11301 15.5328 6.07486 15.4711 6.05171 15.403C6.02856 15.3349 6.02105 15.2623 6.02974 15.1907C6.03843 15.1192 6.0631 15.0507 6.10185 14.9904C6.1406 14.9302 6.19238 14.8798 6.25321 14.8432L7.47622 14.1226C7.65749 13.9895 7.87294 13.9136 8.096 13.9041C8.31905 13.8945 8.53996 13.9519 8.73147 14.069C8.98742 14.2655 9.49693 14.7165 9.75289 14.8673C9.99008 15.0068 10.4698 15.1271 10.7026 15.2308C11.0057 15.3659 10.9822 15.753 10.6126 15.9711L9.38964 16.6922C8.98963 16.8566 8.54635 16.8753 8.13439 16.7452Z" fill="#EBA337"/>
<path d="M7.09987 14.8702C7.09987 14.8702 6.17612 14.3962 6.10876 14.6457C6.05839 14.8224 6.03041 15.005 6.02553 15.189L7.10035 15.2534L7.09987 14.8702Z" fill="#EBA337"/>
<path d="M10.8136 14.8958C10.663 14.6816 9.76526 15.1527 9.76526 15.1527V15.6095L10.9113 15.5172C10.9447 15.3047 10.9105 15.0869 10.8136 14.8958Z" fill="#EBA337"/>
<path d="M8.145 16.1611C7.79824 16.0643 7.4626 15.9299 7.14379 15.7603C6.81301 15.5609 6.50925 15.3182 6.24024 15.0382C6.19167 14.9893 6.15476 14.9296 6.13238 14.8638C6.11 14.798 6.10273 14.7278 6.11115 14.6587C6.11957 14.5895 6.14344 14.5233 6.18092 14.4651C6.21841 14.4069 6.2685 14.3583 6.32732 14.323L7.50944 13.6264C7.68493 13.4984 7.89322 13.4256 8.1087 13.4169C8.32419 13.4082 8.53747 13.4639 8.72234 13.5773C8.96964 13.7694 9.46231 14.2031 9.70961 14.349C9.93862 14.4841 10.4029 14.6 10.6276 14.7002C10.9201 14.8309 10.898 15.2047 10.5405 15.4155L9.35839 16.112C8.97147 16.2703 8.54297 16.2876 8.145 16.1611Z" fill="#FDDC42"/>
<path d="M11.4074 14.2002V12.0658C11.401 11.6842 11.3074 11.3095 11.1341 10.9715C10.9608 10.6334 10.7125 10.3413 10.4091 10.1185L9.88803 9.813C9.33859 9.48928 8.8897 9.83608 8.8897 10.5837V12.7162L11.4074 14.2002Z" fill="#EBA337"/>
<path d="M9.22507 9.76634L8.79832 10.0252L9.17985 10.2841L9.22507 9.76634Z" fill="#EBA337"/>
<path d="M10.9912 14.4526L11.4074 14.2002L10.9152 13.7065L10.9912 14.4526Z" fill="#EBA337"/>
<path d="M10.9912 14.4526L10.9911 12.3178C10.9847 11.9363 10.8912 11.5615 10.7178 11.2235C10.5445 10.8854 10.2962 10.5933 9.99279 10.3706L9.47173 10.0631C8.92277 9.73985 8.47389 10.0862 8.47389 10.8338V12.9682L10.9912 14.4526Z" fill="#FDDC42"/>
<path d="M10.0319 10.6737C9.55954 11.0338 9.18126 11.5072 8.93054 12.052C8.67981 12.5967 8.56435 13.1962 8.59436 13.7974V15.5594L10.0315 14.6752L10.0319 10.6737Z" fill="#434443"/>
<path d="M14.0464 0.0670253C14.0464 0.0670253 14.1373 -0.0837817 14.5458 0.0670253C16.0467 0.730315 17.4722 1.55884 18.797 2.5379C20.2028 3.65201 20.4973 3.85095 20.4982 4.43895C20.4982 4.91594 20.2904 5.07116 19.4605 5.4558C18.3658 5.96758 17.2975 6.53601 16.2596 7.15888C15.0558 7.91309 13.8912 8.73062 12.7705 9.60815C11.8723 10.3832 11.0906 11.2889 10.4505 12.2961C9.80339 13.312 9.22461 14.3593 8.84933 17.2124C8.61612 19.4451 8.53124 21.6914 8.5953 23.9358L8.37013 24.0832C7.68769 21.9123 7.59113 19.5937 8.0906 17.3715C8.93738 13.7482 10.1397 10.9517 12.974 8.80057C15.8083 6.64948 19.2589 5.53095 19.5653 4.43797C19.8718 3.34499 14.0464 0.0670253 14.0464 0.0670253Z" fill="#373737"/>
<path d="M6.89784 12.2633C8.48313 8.5982 11.5503 6.25504 14.87 4.35546C15.0293 4.26409 16.2869 3.63434 17.0966 3.22564C17.4099 3.06795 18.361 2.58458 18.45 2.53792C18.45 2.53792 17.7664 2.08943 16.5073 1.29216C15.7189 0.818139 14.8951 0.408489 14.0434 0.0670401C14.0434 0.0670401 13.2015 0.422689 12.8787 0.576443C12.3812 0.813215 11.6657 1.16051 11.2404 1.39679C10.6727 1.71216 9.8014 2.20241 8.50815 2.94465C5.65934 4.62564 3.39774 7.17542 2.04092 10.236C1.01372 12.5074 0 15.6498 0 17.7851C0 19.5211 0.606213 20.199 0.606213 20.199C1.17944 20.6833 1.81837 21.0789 2.50429 21.3731C3.04844 21.5996 4.58316 22.0367 4.64041 22.0834V22.0682C4.86419 18.696 5.62673 15.384 6.89784 12.2633Z" fill="#FCDD18"/>
<path d="M5.72478 23.9859C6.40412 24.3195 7.2432 24.709 8.37095 24.0842C8.33594 21.8871 8.41721 19.6898 8.6144 17.5017C8.768 15.8456 9.22394 14.2334 9.95865 12.7486C10.9291 10.9369 12.4162 9.61062 14.066 8.42038C15.5243 7.38223 17.0516 6.44877 18.6366 5.62676C18.9051 5.48725 19.4276 5.23968 19.8875 5.0255C19.988 4.97839 20.0757 4.90706 20.1431 4.81765C20.2106 4.72823 20.2557 4.62342 20.2746 4.51224C20.2936 4.40105 20.2858 4.28684 20.2518 4.17943C20.2179 4.07202 20.159 3.97464 20.08 3.89567C19.979 3.79743 19.8731 3.69476 19.7682 3.60094C19.4382 3.3062 18.4485 2.53841 18.4485 2.53841C17.9044 2.82578 15.4049 4.04845 14.8685 4.35596C11.5488 6.25603 8.48016 8.59869 6.89535 12.2647C5.62287 15.3854 4.85903 18.6976 4.63408 22.0701V22.0854C5.184 22.5299 5.38655 23.0246 5.72478 23.9859Z" fill="#F7C638"/>
<path d="M0.919017 20.4275C0.919017 20.4275 2.91519 21.6393 4.65396 21.7749C5.68837 21.8555 5.94866 22.2661 6.14784 22.8266C6.27513 23.2848 6.33098 23.7605 6.31335 24.2364L5.72478 23.9859C5.72478 23.9859 5.23708 22.5727 4.52935 22.332C3.24639 21.8684 2.03165 21.2276 0.919017 20.4275Z" fill="#EBA337"/>
<path d="M2.50183 13.5036C3.20401 13.814 3.94413 14.0258 4.702 14.1334C4.92753 14.1963 5.16793 14.1716 5.37663 14.064C5.58533 13.9564 5.74748 13.7735 5.83167 13.5508C6.31833 12.1831 6.97706 10.8859 7.79128 9.69168C8.34409 8.97203 8.7973 8.442 9.1288 8.07652C9.20175 7.99673 9.25607 7.90111 9.28769 7.79684C9.31932 7.69257 9.32742 7.58235 9.31141 7.47442C9.2954 7.3665 9.25568 7.26367 9.19522 7.17364C9.13477 7.08361 9.05515 7.00871 8.96233 6.95456L5.6984 5.05154C5.6984 5.05154 5.6094 5.02993 5.61324 5.12277C4.6687 6.11343 3.8117 7.18734 3.05223 8.33196C2.32787 9.47151 1.74418 10.6981 1.31443 11.9838C1.22879 12.0098 1.26872 12.1223 1.26872 12.1223C1.50701 12.717 1.94387 13.2064 2.50183 13.5036Z" fill="#373737"/>
<path d="M1.71963 12.668C1.93623 12.9307 2.19995 13.1488 2.49664 13.3105C3.18 13.6191 3.89891 13.838 4.63619 13.9619C4.85272 14.0223 5.08349 13.9985 5.28382 13.8951C5.48416 13.7918 5.63981 13.6162 5.72063 13.4024C6.17666 12.0741 6.79997 10.812 7.57488 9.64795C7.97132 9.13167 8.35477 8.70479 8.65644 8.37517C8.02039 8.245 7.30545 8.11531 6.53181 8.00381C4.34607 7.68844 2.5053 10.9949 1.71963 12.668Z" fill="#8CC8DD"/>
<path d="M8.77461 6.99679L5.61324 5.12277C5.61324 5.12277 5.13686 5.58058 4.57202 6.23784C4.03285 6.86103 3.54146 7.52566 3.10219 8.22584C2.3602 9.40011 1.76051 10.662 1.31627 11.9837C1.4119 12.2337 1.54875 12.4652 1.72089 12.668C2.50464 10.9954 4.34511 7.68844 6.53181 8.00381C7.30545 8.11531 8.02039 8.245 8.65644 8.37517C8.75843 8.26317 8.85207 8.16297 8.9329 8.07405C9.00295 7.99751 9.05515 7.9058 9.0856 7.80576C9.11604 7.70573 9.12395 7.59996 9.10873 7.49637C9.09351 7.39277 9.05555 7.29403 8.99769 7.20752C8.93983 7.12101 8.86357 7.04897 8.77461 6.99679Z" fill="#6F9AA8"/>
<path d="M11.3323 8.5692C11.2473 8.47679 11.1446 8.40313 11.0306 8.35278C10.9167 8.30243 10.7938 8.27646 10.6696 8.27646C10.5454 8.27646 10.4225 8.30243 10.3085 8.35278C10.1946 8.40313 10.0919 8.47679 10.0068 8.5692C9.15917 9.25393 8.45995 10.1109 7.95342 11.0858C7.39957 11.96 6.99937 12.9261 6.77082 13.9408C6.72271 14.4541 6.90265 14.7572 7.5002 14.9016C8.12181 15.0514 8.42251 15.1964 8.77517 14.1648C9.2386 12.9871 9.88879 11.8954 10.6997 10.9335C11.494 9.99622 12.2542 9.47454 11.3323 8.5692Z" fill="#373737"/>
<path d="M11.314 8.73136C11.2403 8.63662 11.1474 8.55925 11.0417 8.50456C10.936 8.44986 10.8199 8.41913 10.7015 8.41446C10.5831 8.4098 10.4651 8.43131 10.3555 8.47753C10.246 8.52375 10.1476 8.59358 10.0669 8.68224C9.24789 9.34348 8.57225 10.1711 8.08278 11.1128C7.54791 11.9571 7.16139 12.8902 6.9406 13.8701C6.89249 14.3658 7.06761 14.659 7.64496 14.798C8.2454 14.9429 8.37867 14.9886 8.7193 13.9919C9.16663 12.8545 9.79421 11.8 10.5769 10.8707C11.3457 9.96827 12.0463 9.52224 11.314 8.73136Z" fill="#8CC8DD"/>
<path d="M16.5704 6.78264C16.851 7.08475 17.0699 7.44073 17.2146 7.82994C17.3159 8.53743 17.2188 9.25973 16.9346 9.91324C16.6941 10.4104 16.4328 11.2749 16.53 11.4852C16.5853 11.6045 16.6666 11.6925 16.7653 11.4852C16.9045 11.285 17.0739 11.1086 17.2671 10.9625C17.5776 10.7408 17.9025 10.5407 18.2394 10.3637C18.2394 10.3637 18.2394 10.1746 17.9224 10.2483C17.5856 10.3264 17.4624 10.4079 17.32 10.2674C17.1776 10.1269 17.6982 9.34685 17.6351 8.28334C17.5954 7.64676 17.33 7.04674 16.8884 6.59548L16.5704 6.78264Z" fill="#373737"/>
<path d="M8.55058 14.4183C8.35097 14.6743 8.11842 14.9017 7.85921 15.0942C7.56043 15.273 7.5436 15.4002 7.5436 15.7161C7.5436 16.0319 7.79089 16.0177 8.04685 15.7131C8.3028 15.4086 8.78152 14.6668 8.78152 14.6668L8.55058 14.4183Z" fill="#FDDC42"/>
<path d="M8.59048 14.3004C8.35809 14.1082 8.09169 13.9635 7.80577 13.874C7.79016 13.9495 7.78178 14.0263 7.78075 14.1034C7.77432 14.374 7.85504 14.6392 8.01053 14.8584C8.16603 15.0776 8.38769 15.2386 8.64148 15.3168C8.88368 15.4174 9.14362 15.4659 9.40502 15.4592C9.38866 15.1237 9.17456 14.7425 8.59048 14.3004Z" fill="#FDDC42"/>
<path d="M9.62391 14.8034C9.28182 14.3299 8.84677 13.9344 8.34654 13.6421C8.01264 13.4712 7.85966 13.6176 7.80577 13.874C8.09169 13.9635 8.35809 14.1082 8.59048 14.3004C9.17456 14.7425 9.38866 15.1237 9.40502 15.4592C9.74517 15.4346 9.91692 15.2362 9.62391 14.8034Z" fill="#EBA337"/>
<path d="M2.56481 16.6082C2.43014 16.8018 2.35588 17.0324 2.35175 17.2699C2.34763 17.5073 2.41384 17.7405 2.54172 17.9389C2.60378 17.8927 2.66873 17.8407 2.73753 17.7778C3.26889 17.3912 3.71204 16.8918 4.03656 16.3139C4.09997 16.1869 4.13538 16.0472 4.14028 15.9048C4.14518 15.7623 4.11947 15.6204 4.06495 15.4892C3.73978 15.5218 3.42912 15.6428 3.16529 15.8396C2.90146 16.0364 2.69411 16.3018 2.56481 16.6082Z" fill="#FEFEFE"/>
<path d="M3.69552 15.2573C3.35564 15.2321 3.01618 15.3116 2.7211 15.4857C2.42602 15.6597 2.1889 15.9202 2.04046 16.2334C1.72292 16.7849 1.61633 17.4368 1.7412 18.0637C1.80279 18.211 2.0885 18.2744 2.54172 17.9389C2.41384 17.7405 2.34763 17.5073 2.35175 17.2699C2.35588 17.0324 2.43014 16.8018 2.56481 16.6082C2.69396 16.3018 2.90073 16.0369 3.16438 15.84C3.42803 15.6432 3.73852 15.522 4.06358 15.4891C4.02558 15.4226 3.97213 15.3667 3.90794 15.3262C3.84375 15.2858 3.77079 15.2621 3.69552 15.2573Z" fill="#C9C9C9"/>
<path d="M0.716783 15.6321C0.80934 14.9611 0.8502 14.2838 0.838988 13.6063C0.757197 13.6259 0.605163 13.6633 0.469968 13.9943C0.271111 14.7318 0.153946 15.4898 0.120674 16.254C0.0910187 16.4776 0.0910187 16.7043 0.120674 16.928C0.396357 16.8538 0.587362 16.504 0.716783 15.6321Z" fill="#FEFEFE"/>
<path d="M0.372297 14.7685C0.37387 14.8801 0.404285 14.9893 0.460468 15.0851C0.51665 15.1808 0.596604 15.2597 0.692242 15.3138C0.86304 15.3835 0.996792 15.2534 0.991019 15.0225C0.989495 14.9109 0.9591 14.8017 0.902913 14.7059C0.846726 14.6101 0.766744 14.5313 0.671074 14.4772C0.500276 14.407 0.366524 14.5372 0.372297 14.7685Z" fill="#CCCCCB"/>
<path d="M0.372516 15.8109C0.373575 15.8952 0.396372 15.9776 0.438608 16.05C0.480843 16.1223 0.541024 16.182 0.613077 16.2231C0.742017 16.2761 0.843053 16.1774 0.838723 16.003C0.837713 15.9188 0.814936 15.8363 0.772695 15.7639C0.730454 15.6916 0.670248 15.6319 0.598162 15.5909C0.469222 15.5383 0.367705 15.6366 0.372516 15.8109Z" fill="#CCCCCB"/>
<path d="M0.468582 14.8152C0.469538 14.892 0.490383 14.9672 0.529 15.0331C0.567617 15.099 0.622631 15.1533 0.688455 15.1905C0.805849 15.2396 0.897743 15.1492 0.893894 14.9901C0.892805 14.9134 0.8719 14.8383 0.833292 14.7725C0.794684 14.7067 0.739743 14.6524 0.674021 14.6153C0.556146 14.5671 0.464252 14.6565 0.468582 14.8152Z" fill="#E4E4E4"/>
<path d="M0.407969 17.3485C0.591276 17.3411 0.736574 17.0434 0.917476 16.5384C1.15328 15.9633 1.28734 15.3501 1.31344 14.7273C1.33771 14.5286 1.31778 14.3268 1.25514 14.1371C1.1925 13.9474 1.08876 13.7745 0.951635 13.6313C0.935288 13.6195 0.916764 13.6111 0.897172 13.6067C0.877579 13.6023 0.857322 13.602 0.83761 13.6058C0.84882 14.2833 0.80796 14.9606 0.715405 15.6316C0.585983 16.5035 0.394978 16.8533 0.12122 16.926C0.164521 17.1863 0.261227 17.3543 0.407969 17.3485Z" fill="#C9C9C9"/>
<path d="M3.13971 16.1985C3.14129 16.31 3.17165 16.4192 3.22774 16.5149C3.28383 16.6107 3.36366 16.6896 3.45918 16.7438C3.62998 16.8135 3.76373 16.6833 3.75796 16.4525C3.75643 16.3409 3.72609 16.2317 3.66999 16.136C3.6139 16.0402 3.53404 15.9613 3.43849 15.9072C3.26721 15.8369 3.13346 15.9671 3.13971 16.1985Z" fill="#CCCCCB"/>
<path d="M2.71795 16.9132C2.71906 16.9975 2.74188 17.0799 2.78411 17.1522C2.82634 17.2246 2.88649 17.2843 2.95851 17.3254C3.08745 17.3784 3.18849 17.2797 3.18416 17.1053C3.1831 17.0211 3.1603 16.9386 3.11807 16.8663C3.07583 16.7939 3.01565 16.7342 2.9436 16.6932C2.81466 16.6377 2.71362 16.7364 2.71795 16.9132Z" fill="#CCCCCB"/>
<path d="M3.23644 16.2457C3.23744 16.3224 3.25831 16.3976 3.29692 16.4635C3.33553 16.5294 3.39052 16.5837 3.45631 16.621C3.57371 16.6701 3.66608 16.5797 3.66175 16.4205C3.6607 16.3438 3.63981 16.2686 3.6012 16.2027C3.5626 16.1368 3.50764 16.0825 3.44188 16.0452C3.324 15.9961 3.23211 16.087 3.23644 16.2457Z" fill="#E4E4E4"/>
<path d="M6.97816 19.5526C6.95804 19.5747 6.94365 19.6016 6.93628 19.6308C6.92892 19.6601 6.92882 19.6907 6.93598 19.72C6.94315 19.7492 6.95736 19.7762 6.97733 19.7985C6.9973 19.8207 7.02239 19.8375 7.05033 19.8474C7.21872 19.9078 7.76335 19.813 7.79991 19.6322C7.87978 19.2377 7.14415 19.3434 6.97816 19.5526Z" fill="#EE4C4B"/>
</svg>
