<svg width="32" height="23" viewBox="0 0 32 23" fill="none" xmlns="http://www.w3.org/2000/svg">
<path d="M6.34559 9.48614V9.09317C6.31208 8.97702 6.25303 8.87063 6.17316 8.78248L5.58778 8.11569L5.46795 8.1022L5.57916 8.0442L5.70461 8.05589L6.57706 8.5806C6.62705 8.61465 6.66869 8.66046 6.69864 8.71434C6.72858 8.76822 6.74599 8.82867 6.74948 8.89084V9.28381L6.70637 9.39577H6.7038L6.2986 9.60394L6.34559 9.48614Z" fill="#515151"/>
<path d="M5.58562 8.92006L6.17316 9.5891C6.26885 9.64576 6.34559 9.59945 6.34559 9.48614V9.09317C6.32709 8.97087 6.26562 8.86012 6.17316 8.78248L5.58562 8.11389C5.52312 8.0424 5.4132 8.1031 5.4132 8.21775V8.60983C5.41191 8.71908 5.4701 8.79912 5.58562 8.92006Z" fill="#5F6060"/>
<path d="M6.39343 9.31798C6.39563 9.27685 6.40693 9.23682 6.42645 9.20101C6.44597 9.1652 6.47317 9.1346 6.50593 9.1116L6.59215 9.10576L7.07277 9.39532L6.91285 9.68532L6.43223 9.39667L6.39343 9.31798Z" fill="#3B3B3B"/>
<path d="M6.87148 9.60709C6.87148 9.68263 6.92407 9.71365 6.98528 9.67588C7.01857 9.65332 7.04628 9.62285 7.06613 9.58699C7.08598 9.55112 7.09741 9.51086 7.0995 9.4695C7.0995 9.39262 7.04864 9.36294 6.98528 9.40071C6.95244 9.42374 6.92509 9.45432 6.90536 9.4901C6.88563 9.52588 6.87405 9.5659 6.87148 9.60709Z" fill="#7E7D7E"/>
<path d="M6.79604 9.25548L7.07364 9.08777L7.13873 9.08283L7.23529 9.14263L7.17838 9.15162L6.90079 9.31933C6.87545 9.33694 6.85444 9.36053 6.83946 9.38818C6.82448 9.41583 6.81596 9.44677 6.81457 9.4785V9.87282L6.8344 9.92902L6.73439 9.86967L6.70853 9.80987V9.416C6.70996 9.38394 6.71864 9.3527 6.73384 9.3248C6.74905 9.29691 6.77036 9.27316 6.79604 9.25548Z" fill="#484848"/>
<path d="M6.89863 9.92497L7.17753 9.75726C7.20321 9.73994 7.2246 9.71654 7.23996 9.68896C7.25532 9.66137 7.2642 9.63039 7.26589 9.59855V9.20333C7.26589 9.14488 7.22624 9.1206 7.17753 9.14982L6.89863 9.31798C6.87266 9.33541 6.851 9.359 6.83542 9.38681C6.81984 9.41463 6.81078 9.44589 6.80897 9.47805V9.87237C6.80897 9.93082 6.85035 9.95465 6.89863 9.92497Z" fill="#5D5D5D"/>
<path d="M22.0313 3.21975L30.8813 8.54913V9.73208L22.0313 4.40271V3.21975Z" fill="#424242"/>
<path d="M22.3921 3.00168L31.243 8.33151L30.8813 8.54913L22.0313 3.21975L22.3921 3.00168Z" fill="#6D6D6D"/>
<path d="M30.8813 9.73208L31.2434 9.51402L31.243 8.33151L30.8813 8.54913V9.73208Z" fill="#575757"/>
<path d="M28.9429 10.8989L26.938 9.68487L28.8959 9.02888L29.3614 10.5099L28.9429 10.8989Z" fill="#353535"/>
<path d="M15.2357 19.1535L13.2317 17.9395L15.1896 17.2826L15.6547 18.7637L15.2357 19.1535Z" fill="#353535"/>
<path d="M25.7548 12.7468C25.7548 13.7665 26.4406 14.1798 27.2868 13.6699C27.7333 13.3666 28.1049 12.9578 28.3715 12.4767C28.6382 11.9955 28.7923 11.4556 28.8213 10.9007C28.8213 9.88046 28.1342 9.46636 27.2868 9.97623C26.8407 10.28 26.4695 10.6892 26.2034 11.1706C25.9372 11.6519 25.7835 12.1919 25.7548 12.7468Z" fill="#424242"/>
<path d="M24.3543 11.9042C24.3831 11.3494 24.5368 10.8095 24.8031 10.3283C25.0693 9.84708 25.4406 9.4381 25.8867 9.13453C26.039 9.02031 26.217 8.94894 26.4035 8.92728C26.59 8.90562 26.7787 8.93442 26.9514 9.01089L28.361 9.86023C28.1873 9.7793 27.9963 9.74746 27.8072 9.7679C27.618 9.78834 27.4374 9.86034 27.2833 9.97668C26.8373 10.2805 26.4661 10.6897 26.1999 11.171C25.9338 11.6524 25.7801 12.1924 25.7513 12.7473C25.7335 12.939 25.7623 13.1324 25.835 13.3095C25.9077 13.4866 26.022 13.6418 26.1673 13.7607L24.769 12.919C24.6238 12.7997 24.5097 12.6442 24.4373 12.4669C24.3648 12.2896 24.3363 12.0961 24.3543 11.9042Z" fill="#525252"/>
<path d="M25.6901 12.7086C25.7191 12.1536 25.873 11.6136 26.1394 11.1322C26.4058 10.6509 26.7772 10.2417 27.2234 9.93801C27.3758 9.82381 27.5539 9.75255 27.7404 9.73112C27.9269 9.7097 28.1156 9.73884 28.2881 9.81571L28.361 9.86023C28.1873 9.7793 27.9963 9.74746 27.8072 9.7679C27.618 9.78834 27.4374 9.86034 27.2833 9.97668C26.8373 10.2805 26.4661 10.6897 26.1999 11.171C25.9338 11.6524 25.7801 12.1924 25.7513 12.7473C25.7335 12.939 25.7623 13.1324 25.835 13.3095C25.9077 13.4866 26.022 13.6418 26.1673 13.7607L26.1048 13.7238C25.9581 13.6058 25.8429 13.4505 25.7703 13.2727C25.6977 13.0949 25.6701 12.9007 25.6901 12.7086Z" fill="#5F6060"/>
<path d="M25.2332 12.4348C25.2621 11.8798 25.416 11.3398 25.6825 10.8586C25.949 10.3774 26.3205 9.96845 26.7669 9.66509C26.9188 9.55092 27.0964 9.47966 27.2826 9.45823C27.4687 9.4368 27.6569 9.46593 27.829 9.54279L27.9027 9.58776C27.7297 9.50746 27.5394 9.47607 27.351 9.49675C27.1626 9.51743 26.9827 9.58944 26.8294 9.70556C26.3831 10.0088 26.0118 10.4177 25.7455 10.8989C25.4792 11.3801 25.3255 11.92 25.297 12.4748C25.2791 12.6664 25.3077 12.8597 25.3802 13.0368C25.4527 13.2139 25.5666 13.3691 25.7117 13.4882L25.6518 13.45C25.5044 13.3325 25.3884 13.1773 25.3151 12.9995C25.2418 12.8217 25.2136 12.6272 25.2332 12.4348Z" fill="#3C3C3C"/>
<path d="M24.7616 12.1502C24.7903 11.5951 24.9441 11.0549 25.2105 10.5735C25.4769 10.0921 25.8484 9.68305 26.2949 9.37958C26.4472 9.26523 26.6252 9.19381 26.8118 9.17222C26.9983 9.15064 27.187 9.17963 27.3596 9.25638L27.4333 9.30134C27.2599 9.22128 27.0694 9.18998 26.8808 9.21057C26.6922 9.23116 26.512 9.30291 26.3583 9.4187C25.9119 9.72227 25.5404 10.1314 25.274 10.6127C25.0076 11.0941 24.8538 11.6343 24.825 12.1893C24.8072 12.3808 24.8359 12.5739 24.9085 12.7509C24.981 12.9278 25.0951 13.0829 25.2401 13.2018L25.1785 13.1645C25.0315 13.0468 24.9161 12.8917 24.8431 12.7141C24.7701 12.5365 24.742 12.3423 24.7616 12.1502Z" fill="#3C3C3C"/>
<path d="M25.4233 12.6402L25.6298 12.2954L25.5099 11.9298L25.7919 11.652L25.722 11.2621L26.0669 11.0499L26.0324 10.6421L26.4303 10.5153L26.4686 10.1278L26.8781 10.0666L26.9725 9.78559L27.4717 9.72894L27.6269 9.58146C27.6269 9.58146 27.9907 9.67993 28.0902 9.71635L28.1984 9.76491L28.2584 9.80088L28.1006 9.73208L27.6756 9.61069L27.5144 9.76131L27.0217 9.81616L26.9294 10.0954L26.5152 10.161L26.4841 10.5401L26.0854 10.6637L26.1156 11.0801L25.7707 11.2837L25.8419 11.6677L25.5587 11.9442L25.6755 12.3143L25.4729 12.6429L25.6656 12.9536L25.5699 13.1721L25.8285 13.4455L25.8651 13.5804L25.8169 13.5534L25.8 13.4491L25.5293 13.1654L25.619 12.9455L25.4233 12.6402Z" fill="#424242"/>
<path d="M24.9323 12.3421L25.1375 11.9973L25.0181 11.6326L25.2987 11.3557L25.2289 10.9645L25.5768 10.7532L25.5397 10.3445L25.9388 10.2181L25.9772 9.83055L26.3871 9.7694L26.4811 9.48839L26.9811 9.43084L27.1368 9.28246C27.1368 9.28246 27.5014 9.38183 27.601 9.41735L27.7079 9.46591L27.7665 9.50188C27.717 9.47272 27.6643 9.44963 27.6096 9.43308C27.5208 9.40611 27.1868 9.31259 27.1868 9.31259L27.0217 9.46321L26.5311 9.51716L26.438 9.79683L26.0238 9.86202L25.9949 10.2406L25.5962 10.3656L25.6272 10.7815L25.2824 10.9852L25.3539 11.3692L25.0686 11.6461L25.1867 12.0148L24.9828 12.3448L25.1754 12.6555L25.0802 12.874L25.3367 13.1465L25.372 13.2814L25.325 13.2544L25.3082 13.1506L25.0384 12.8664L25.128 12.6479L24.9323 12.3421Z" fill="#424242"/>
<path d="M24.4444 12.0494L24.6483 11.7032L24.5289 11.3395L24.8099 11.0612L24.7401 10.6704L25.0849 10.4582L25.0483 10.0504L25.4492 9.92407L25.4867 9.53605L25.897 9.47535L25.9901 9.19433L26.4889 9.13678L26.6467 8.98841C26.6467 8.98841 27.0113 9.08777 27.1096 9.12329L27.2169 9.17185L27.2768 9.20872L27.1187 9.13903C27.0299 9.1125 26.6958 9.01853 26.6958 9.01853L26.5316 9.16871L26.0401 9.22356L25.9462 9.50278L25.5345 9.56842L25.5035 9.947L25.1056 10.0715L25.1345 10.4879L24.7896 10.6916L24.8625 11.0756L24.5793 11.3525L24.6965 11.7217L24.4931 12.0503L24.684 12.3606L24.5896 12.5795L24.8483 12.8529L24.884 12.9878L24.8371 12.9599L24.8181 12.8556L24.5491 12.5715L24.6392 12.3529L24.4444 12.0494Z" fill="#424242"/>
<path d="M26.1996 12.4788C26.1996 13.2018 26.6859 13.4959 27.2855 13.1339C27.6027 12.9193 27.8668 12.6294 28.0561 12.2879C28.2453 11.9464 28.3544 11.563 28.3743 11.1691C28.3743 10.4452 27.8894 10.1511 27.2855 10.5135C26.9692 10.7291 26.7061 11.0194 26.5175 11.3609C26.3288 11.7023 26.2199 12.0853 26.1996 12.4788Z" fill="#353535"/>
<path d="M26.3372 12.3956C26.3372 13.0251 26.7617 13.2846 27.2855 12.968C27.562 12.78 27.792 12.5265 27.9568 12.2282C28.1216 11.9299 28.2165 11.5952 28.2338 11.2514C28.2338 10.6192 27.8101 10.3638 27.2855 10.6794C27.0093 10.8677 26.7795 11.1212 26.6148 11.4194C26.45 11.7175 26.3549 12.052 26.3372 12.3956Z" fill="#959494"/>
<path d="M26.9505 12.0265C26.9505 12.2513 27.1001 12.3412 27.2855 12.2288C27.384 12.1627 27.466 12.0731 27.5248 11.9674C27.5835 11.8617 27.6174 11.743 27.6234 11.6209C27.6234 11.3961 27.4734 11.3062 27.2855 11.4191C27.1878 11.4857 27.1065 11.5754 27.0483 11.681C26.9901 11.7865 26.9566 11.9049 26.9505 12.0265Z" fill="#767676"/>
<path d="M27.1975 11.8759C27.1975 11.9352 27.2376 11.9591 27.2838 11.9289L27.3738 11.7702C27.3738 11.7104 27.3338 11.6857 27.2838 11.7154C27.2586 11.7335 27.2378 11.7574 27.2229 11.7853C27.208 11.8131 27.1993 11.8441 27.1975 11.8759Z" fill="#5F6060"/>
<path d="M27.0764 11.7914L27.0936 11.8156L27.1824 11.7621V11.6547L27.1639 11.6515L27.1493 11.7347L27.0764 11.7914Z" fill="#595959"/>
<path d="M27.0764 11.7914L27.1493 11.7347L27.1639 11.6515L27.0936 11.7091L27.0764 11.7914Z" fill="#3C3C3C"/>
<path d="M27.0807 12.1484L27.098 12.1722L27.1842 12.1182V12.0135L27.1652 12.0094L27.1505 12.0917L27.0807 12.1484Z" fill="#595959"/>
<path d="M27.0807 12.1484L27.1518 12.0908L27.1665 12.0085L27.098 12.0647L27.0807 12.1484Z" fill="#3C3C3C"/>
<path d="M27.3803 11.9658L27.3963 11.9896L27.4825 11.9361V11.8296L27.4644 11.8255L27.4488 11.9083L27.3803 11.9658Z" fill="#595959"/>
<path d="M27.3803 11.9658L27.4506 11.9083L27.4661 11.8255L27.3958 11.884L27.3803 11.9658Z" fill="#3C3C3C"/>
<path d="M27.3769 11.6084L27.3928 11.6326L27.4812 11.5787V11.4721L27.4631 11.4672L27.4476 11.5504L27.3769 11.6084Z" fill="#595959"/>
<path d="M27.3769 11.6084L27.4476 11.5504L27.4631 11.4672L27.3932 11.5247L27.3769 11.6084Z" fill="#3C3C3C"/>
<path d="M26.9975 11.0652C27.0334 11.1071 27.0835 11.1328 27.1372 11.137C27.1908 11.1412 27.244 11.1235 27.2855 11.0877C27.3741 11.0278 27.4496 10.9492 27.5073 10.857C27.565 10.7647 27.6035 10.6609 27.6204 10.5522L27.5204 10.5742C27.4708 10.7592 27.3583 10.9191 27.204 11.0238C27.1743 11.0454 27.1405 11.0603 27.105 11.0674C27.0694 11.0745 27.0328 11.0738 26.9975 11.0652Z" fill="#5F6060"/>
<path d="M26.9527 10.9528L26.9958 11.0657C27.0309 11.0746 27.0675 11.0757 27.103 11.0689C27.1386 11.0622 27.1724 11.0478 27.2023 11.0265C27.3566 10.9218 27.4691 10.7619 27.5187 10.5769C27.4365 10.6019 27.3576 10.6374 27.2837 10.6826C27.163 10.7578 27.0518 10.8486 26.9527 10.9528Z" fill="#3C3C3C"/>
<path d="M26.5419 12.9811C26.6019 13.0346 26.6733 13.0724 26.7501 13.0915C26.827 13.1105 26.907 13.1103 26.9837 13.0908C27.0493 12.8853 27.0169 12.7014 26.8923 12.6537L26.8842 12.6506C26.9144 12.7083 26.9315 12.7725 26.9342 12.8382C26.9369 12.9039 26.9251 12.9694 26.8997 13.0296C26.7786 13.0576 26.652 13.0404 26.5419 12.9811Z" fill="#5F6060"/>
<path d="M26.4703 12.901L26.5419 12.9811C26.652 13.0404 26.7786 13.0576 26.8997 13.0296C26.9251 12.9694 26.9369 12.9039 26.9342 12.8382C26.9315 12.7725 26.9144 12.7083 26.8842 12.6506C26.7591 12.6092 26.5889 12.718 26.4703 12.901Z" fill="#3C3C3C"/>
<path d="M26.3359 12.3956V12.446C26.4259 12.3946 26.5045 12.324 26.5666 12.2388C26.6287 12.1536 26.6729 12.0557 26.6962 11.9514C26.7428 11.7536 26.6919 11.6048 26.5807 11.5697C26.6081 11.6174 26.6251 11.6708 26.6305 11.7261C26.6359 11.7815 26.6294 11.8374 26.6117 11.8898C26.5706 12.0655 26.4738 12.2215 26.3371 12.3327L26.3359 12.3956Z" fill="#5F6060"/>
<path d="M26.3384 12.3332C26.4751 12.2219 26.5718 12.0659 26.613 11.8903C26.6307 11.8378 26.6371 11.7819 26.6318 11.7266C26.6264 11.6713 26.6094 11.6178 26.582 11.5701L26.5419 11.5629C26.4248 11.8027 26.3556 12.0647 26.3384 12.3332Z" fill="#3C3C3C"/>
<path d="M27.5506 12.6182L27.5833 12.7324C27.8079 12.504 27.9841 12.2291 28.1006 11.9253L27.9954 11.9195C27.8881 12.1781 27.7374 12.4147 27.5506 12.6182Z" fill="#5F6060"/>
<path d="M27.5506 12.6182C27.7374 12.4147 27.8881 12.1781 27.9954 11.9195C27.8588 11.961 27.7426 12.0557 27.6708 12.1839C27.5865 12.3111 27.5443 12.4636 27.5506 12.6182Z" fill="#3C3C3C"/>
<path d="M27.8984 11.3125C27.9678 11.4092 28.1023 11.4051 28.2351 11.3022V11.2518C28.2432 11.144 28.2289 11.0355 28.1932 10.934C28.1575 10.8324 28.1012 10.7401 28.0282 10.6633L28.017 10.6808C28.1141 10.8307 28.1617 11.0095 28.1528 11.1902V11.241C28.1185 11.2726 28.0778 11.2955 28.0336 11.3079C27.9895 11.3203 27.9432 11.3219 27.8984 11.3125Z" fill="#5F6060"/>
<path d="M27.8665 11.2473L27.8984 11.3125C27.9432 11.3219 27.9895 11.3203 28.0336 11.3079C28.0778 11.2955 28.1185 11.2726 28.1528 11.241V11.1902C28.1617 11.0095 28.1141 10.8307 28.017 10.6808C27.9524 10.7571 27.9044 10.8478 27.8785 10.946C27.8526 11.0442 27.8485 11.1472 27.8665 11.2473Z" fill="#3C3C3C"/>
<path d="M12.0515 20.9992C12.0515 22.0194 12.7369 22.4321 13.5835 21.9227C14.03 21.6192 14.4017 21.2102 14.6683 20.7288C14.9349 20.2474 15.089 19.7072 15.118 19.1521C15.118 18.1324 14.4309 17.7187 13.5835 18.229C13.1373 18.5327 12.7661 18.9417 12.4999 19.423C12.2338 19.9044 12.0801 20.4443 12.0515 20.9992Z" fill="#424242"/>
<path d="M10.651 20.157C10.6801 19.6019 10.8342 19.0617 11.1008 18.5802C11.3674 18.0988 11.739 17.6897 12.1855 17.386C12.3376 17.2718 12.5154 17.2005 12.7016 17.1791C12.8879 17.1577 13.0763 17.1868 13.2485 17.2637L14.6589 18.1148C14.4853 18.0339 14.2943 18.0021 14.1052 18.0225C13.916 18.043 13.7353 18.115 13.5813 18.2313C13.1352 18.5349 12.764 18.9439 12.4979 19.4251C12.2317 19.9063 12.078 20.4462 12.0493 21.001C12.0316 21.1926 12.0604 21.3859 12.1329 21.5629C12.2055 21.74 12.3194 21.8952 12.4644 22.0144L11.0687 21.1723C10.9229 21.0533 10.8081 20.8979 10.7351 20.7205C10.6621 20.543 10.6332 20.3492 10.651 20.157Z" fill="#525252"/>
<path d="M11.9868 20.961C12.0159 20.4056 12.1702 19.8653 12.437 19.3839C12.7039 18.9024 13.0758 18.4933 13.5227 18.1899C13.6745 18.0756 13.8522 18.0042 14.0383 17.9828C14.2244 17.9614 14.4127 17.9906 14.5848 18.0676L14.659 18.1126C14.4853 18.0317 14.2943 17.9998 14.1052 18.0203C13.916 18.0407 13.7354 18.1127 13.5813 18.2291C13.1352 18.5326 12.7641 18.9416 12.4979 19.4229C12.2317 19.9041 12.078 20.444 12.0493 20.9987C12.0317 21.1904 12.0604 21.3836 12.1329 21.5607C12.2055 21.7378 12.3195 21.893 12.4644 22.0122L12.4019 21.9749C12.2555 21.8569 12.1404 21.7018 12.0677 21.5243C11.9951 21.3468 11.9672 21.1529 11.9868 20.961Z" fill="#5F6060"/>
<path d="M11.529 20.6871C11.558 20.132 11.712 19.5918 11.9787 19.1104C12.2453 18.629 12.617 18.22 13.0636 17.9166C13.2161 17.8024 13.3942 17.7311 13.5807 17.7095C13.7673 17.6879 13.956 17.7168 14.1287 17.7934L14.2012 17.8383C14.0278 17.7579 13.8373 17.7265 13.6486 17.7471C13.4599 17.7677 13.2797 17.8396 13.1261 17.9557C12.68 18.2591 12.3089 18.668 12.0429 19.1492C11.777 19.6304 11.6236 20.1702 11.5954 20.7249C11.5771 20.9164 11.6054 21.1097 11.6779 21.2867C11.7503 21.4637 11.8644 21.6188 12.0097 21.7375L11.948 21.6992C11.8011 21.5819 11.6855 21.4273 11.6121 21.2501C11.5388 21.073 11.5102 20.8791 11.529 20.6871Z" fill="#3C3C3C"/>
<path d="M11.0575 20.4016C11.0868 19.8469 11.2409 19.3071 11.5073 18.826C11.7736 18.3448 12.1448 17.9358 12.5907 17.632C12.7434 17.5177 12.9216 17.4464 13.1084 17.425C13.2951 17.4036 13.484 17.4327 13.6567 17.5097L13.7304 17.5546C13.5567 17.4739 13.3657 17.4422 13.1766 17.4628C12.9874 17.4834 12.8068 17.5555 12.6528 17.672C12.2065 17.9753 11.8351 18.3842 11.5687 18.8653C11.3023 19.3465 11.1484 19.8864 11.1195 20.4412C11.102 20.6329 11.1309 20.8262 11.2036 21.0033C11.2763 21.1803 11.3904 21.3355 11.5355 21.4546L11.4743 21.4173C11.3273 21.2994 11.2118 21.144 11.1389 20.9662C11.0659 20.7884 11.0379 20.594 11.0575 20.4016Z" fill="#3C3C3C"/>
<path d="M11.723 20.8913L11.9265 20.5464L11.8066 20.1822L12.089 19.9039L12.0205 19.5141L12.3653 19.3019L12.3282 18.8945L12.7282 18.7677L12.7679 18.3797L13.1757 18.3185L13.2697 18.038L13.7697 17.9804L13.9249 17.8329C13.9249 17.8329 14.29 17.931 14.3895 17.9678L14.4964 18.0173L14.5568 18.0519C14.5066 18.0228 14.4534 17.9999 14.3982 17.9836C14.3098 17.957 13.9749 17.8617 13.9749 17.8617L13.8111 18.0132L13.3205 18.0672L13.2274 18.3478L12.8153 18.4121L12.783 18.7915L12.3851 18.9152L12.4153 19.3311L12.0705 19.5352L12.1416 19.9192L11.8584 20.1957L11.9756 20.5648L11.7722 20.8944L11.9627 21.2056L11.8704 21.4227L12.1252 21.6965L12.1618 21.8314L12.1144 21.8022L12.0972 21.6992L11.8273 21.4155L11.9183 21.1966L11.723 20.8913Z" fill="#424242"/>
<path d="M11.2295 20.595L11.4359 20.2497L11.3152 19.885L11.5972 19.6071L11.526 19.2164L11.8748 19.0051L11.8381 18.5964L12.2373 18.4701L12.2756 18.0825L12.6843 18.0213L12.78 17.7403L13.2791 17.6828L13.4335 17.5353C13.4335 17.5353 13.7981 17.6324 13.8986 17.6702L14.005 17.7192L14.065 17.7547C14.0148 17.7257 13.9618 17.7027 13.9068 17.6859C13.8184 17.6594 13.4835 17.5654 13.4835 17.5654L13.3205 17.716L12.8304 17.7695L12.7351 18.0501L12.3222 18.1153L12.292 18.4939L11.8929 18.6184L11.9239 19.0348L11.5791 19.2389L11.6519 19.6224L11.3683 19.899L11.4851 20.2681L11.2812 20.5981L11.4752 20.9088L11.3799 21.1269L11.6347 21.4007L11.6713 21.5356L11.6243 21.5073L11.6071 21.4034L11.3368 21.1197L11.4269 20.9007L11.2295 20.595Z" fill="#424242"/>
<path d="M10.7406 20.3L10.9471 19.9552L10.8264 19.591L11.1075 19.3117L11.0381 18.9219L11.3859 18.7097L11.3476 18.3023L11.7493 18.1755L11.7864 17.788L12.1955 17.7268L12.2907 17.4458L12.7895 17.3878L12.9464 17.2403C12.9464 17.2403 13.3097 17.3388 13.4093 17.3752L13.5158 17.4247L13.577 17.4593C13.5272 17.4297 13.474 17.4066 13.4188 17.3905C13.3304 17.364 12.9968 17.2691 12.9968 17.2691L12.8326 17.4197L12.3412 17.4737L12.248 17.7534L11.8342 17.8217L11.8032 18.2003L11.4045 18.3253L11.4355 18.7412L11.0907 18.9453L11.1618 19.3288L10.8782 19.6053L10.995 19.9754L10.7911 20.3041L10.9838 20.6152L10.8881 20.8333L11.1467 21.1066L11.1833 21.2415L11.1359 21.2136L11.1187 21.1098L10.8493 20.8256L10.9355 20.6067L10.7406 20.3Z" fill="#424242"/>
<path d="M12.4963 20.7317C12.4963 21.4551 12.9834 21.7483 13.5835 21.3872C13.9002 21.1716 14.1639 20.8812 14.353 20.5395C14.5422 20.1978 14.6516 19.8145 14.6723 19.4206C14.6723 18.6967 14.1839 18.4035 13.5835 18.7655C13.2669 18.9811 13.0035 19.2714 12.8146 19.613C12.6258 19.9547 12.5167 20.3379 12.4963 20.7317Z" fill="#353535"/>
<path d="M12.6347 20.6476C12.6347 21.2797 13.0593 21.5356 13.583 21.2199C13.8593 21.0319 14.0892 20.7785 14.254 20.4804C14.4188 20.1823 14.5138 19.8478 14.5314 19.5042C14.5314 18.872 14.1068 18.6153 13.583 18.9318C13.3068 19.1199 13.077 19.3733 12.9122 19.6714C12.7474 19.9695 12.6524 20.304 12.6347 20.6476Z" fill="#959494"/>
<path d="M13.2477 20.2784C13.2477 20.5032 13.399 20.5932 13.583 20.4808C13.6811 20.4143 13.7628 20.3246 13.8213 20.219C13.8798 20.1133 13.9135 19.9947 13.9197 19.8729C13.9197 19.6481 13.7697 19.5581 13.583 19.6705C13.4855 19.7375 13.4044 19.8274 13.3462 19.933C13.2879 20.0385 13.2542 20.1568 13.2477 20.2784Z" fill="#767676"/>
<path d="M13.4973 20.1292C13.4973 20.1885 13.5348 20.2119 13.5835 20.1822C13.6098 20.1652 13.6317 20.1417 13.6473 20.1138C13.663 20.0859 13.6718 20.0544 13.6731 20.0222C13.6731 19.9637 13.6348 19.939 13.5835 19.9686C13.5581 19.9865 13.5371 20.0104 13.5221 20.0382C13.5072 20.0661 13.4986 20.0973 13.4973 20.1292Z" fill="#5F6060"/>
<path d="M13.3757 20.0442L13.3912 20.0676L13.4774 20.0145V19.9079L13.4606 19.9035L13.4447 19.9853L13.3757 20.0442Z" fill="#595959"/>
<path d="M13.3757 20.0442L13.4464 19.9857L13.4623 19.9039L13.3912 19.9614L13.3757 20.0442Z" fill="#3C3C3C"/>
<path d="M13.3787 20.4016L13.3947 20.4255L13.4809 20.372V20.2645L13.4628 20.2604L13.4472 20.3436L13.3787 20.4016Z" fill="#595959"/>
<path d="M13.3787 20.4016L13.449 20.345L13.4645 20.2618L13.3947 20.3193L13.3787 20.4016Z" fill="#3C3C3C"/>
<path d="M13.6766 20.2177L13.6938 20.2416L13.7826 20.1885V20.0819L13.7641 20.0775L13.7481 20.1597L13.6766 20.2177Z" fill="#595959"/>
<path d="M13.6766 20.2177L13.7481 20.1597L13.7641 20.0775L13.6925 20.1359L13.6766 20.2177Z" fill="#3C3C3C"/>
<path d="M13.674 19.8603L13.6908 19.8841L13.777 19.8311V19.7236L13.7585 19.7191L13.7425 19.8027L13.674 19.8603Z" fill="#595959"/>
<path d="M13.674 19.8603L13.7443 19.8027L13.7602 19.7191L13.6908 19.7776L13.674 19.8603Z" fill="#3C3C3C"/>
<path d="M13.2951 19.3171C13.3524 19.3994 13.4606 19.4134 13.583 19.3396C13.6715 19.2796 13.7469 19.2009 13.8045 19.1087C13.8621 19.0165 13.9006 18.9128 13.9175 18.8041L13.8175 18.8262C13.7679 19.0106 13.6562 19.1702 13.5029 19.2758C13.4729 19.2973 13.4389 19.3121 13.4031 19.3192C13.3674 19.3263 13.3306 19.3256 13.2951 19.3171Z" fill="#5F6060"/>
<path d="M13.2494 19.2047L13.2951 19.3171C13.3304 19.3259 13.3671 19.3275 13.4029 19.3207C13.4387 19.314 13.4727 19.2996 13.5028 19.2785C13.6562 19.173 13.7679 19.0133 13.8175 18.8288C13.7356 18.8539 13.657 18.8894 13.5835 18.9345C13.4616 19.0094 13.3493 19.1002 13.2494 19.2047Z" fill="#3C3C3C"/>
<path d="M12.8382 21.2325C12.8983 21.2859 12.9696 21.3237 13.0464 21.343C13.1231 21.3623 13.2032 21.3625 13.28 21.3436C13.3472 21.1381 13.314 20.9538 13.1903 20.9066L13.1813 20.9025C13.2115 20.9601 13.2287 21.0242 13.2317 21.0898C13.2346 21.1554 13.2231 21.2208 13.1981 21.2811C13.0764 21.3093 12.949 21.2921 12.8382 21.2325Z" fill="#5F6060"/>
<path d="M12.7683 21.153L12.8382 21.2325C12.949 21.2921 13.0764 21.3093 13.1981 21.2811C13.2231 21.2208 13.2346 21.1554 13.2317 21.0898C13.2287 21.0242 13.2115 20.9601 13.1813 20.9025C13.0567 20.8634 12.8869 20.9695 12.7683 21.153Z" fill="#3C3C3C"/>
<path d="M12.6347 20.6476L12.6347 20.6984C12.7246 20.6467 12.8031 20.576 12.8652 20.4908C12.9273 20.4057 12.9717 20.3079 12.9955 20.2038C13.0412 20.006 12.9908 19.8571 12.8783 19.8221C12.9061 19.8696 12.9234 19.923 12.929 19.9783C12.9346 20.0337 12.9283 20.0897 12.9106 20.1422C12.8688 20.3178 12.7718 20.4737 12.6351 20.5851L12.6347 20.6476Z" fill="#5F6060"/>
<path d="M12.6351 20.5851C12.7718 20.4737 12.8688 20.3178 12.9106 20.1422C12.9283 20.0897 12.9346 20.0337 12.929 19.9783C12.9234 19.923 12.9061 19.8696 12.8783 19.8221L12.8399 19.8149C12.7232 20.055 12.6537 20.3166 12.6351 20.5851Z" fill="#3C3C3C"/>
<path d="M13.8486 20.8706L13.88 20.9848C14.1047 20.7565 14.2809 20.4815 14.3973 20.1777L14.293 20.1728C14.1851 20.4307 14.0347 20.6669 13.8486 20.8706Z" fill="#5F6060"/>
<path d="M13.8486 20.8706C14.0347 20.6669 14.1851 20.4307 14.293 20.1728C14.1555 20.213 14.0393 20.3077 13.9688 20.4372C13.8835 20.5636 13.8411 20.7162 13.8486 20.8706Z" fill="#3C3C3C"/>
<path d="M14.1964 19.5635C14.2658 19.6602 14.3999 19.6562 14.5331 19.5536V19.5042C14.5409 19.3964 14.5265 19.288 14.4908 19.1865C14.4551 19.085 14.399 18.9926 14.3262 18.9156L14.3137 18.9323C14.4107 19.0824 14.4588 19.2612 14.4507 19.4421V19.4916C14.4167 19.5235 14.376 19.5467 14.3318 19.5592C14.2876 19.5717 14.2413 19.5732 14.1964 19.5635Z" fill="#5F6060"/>
<path d="M14.1641 19.5001L14.1964 19.5635C14.2413 19.5732 14.2876 19.5717 14.3318 19.5592C14.376 19.5467 14.4167 19.5235 14.4507 19.4916V19.4421C14.4588 19.2612 14.4103 19.0833 14.3132 18.9332C14.2484 19.0094 14.2012 19.1002 14.1754 19.1985C14.1495 19.2968 14.1457 19.4 14.1641 19.5001Z" fill="#3C3C3C"/>
<path d="M8.62976 4.57446L15.7155 0.307992L24.5646 5.63737L17.4789 9.90339L8.62976 4.57446Z" fill="#FCDD18"/>
<path d="M0.362089 13.9788L6.3874 9.42139L15.2366 14.7508L9.21211 19.3072L0.362089 13.9788Z" fill="#FCDD18"/>
<path d="M0.362085 17.4521L0.362089 13.9788L9.21211 19.3072L9.21212 22.7824L0.362085 17.4521Z" fill="#EDD11D"/>
<path d="M18.0505 2.39739L22.033 0L30.8831 5.32938L26.9023 7.72722L18.0505 2.39739Z" fill="#FCDD18"/>
<path d="M15.2366 14.7508L17.4776 9.90294L24.5634 5.63692L26.8992 7.72677L30.8801 5.32893V9.73118L28.9403 10.9002V10.8215C28.9403 9.69207 28.1795 9.23435 27.2432 9.79908C26.749 10.1348 26.3376 10.5873 26.0425 11.1199C25.7474 11.6526 25.5769 12.2503 25.5449 12.8646L25.5487 12.9419L15.2357 19.1535L15.2357 19.0752C15.2357 17.9458 14.4779 17.4881 13.5386 18.0528C13.045 18.3889 12.6343 18.8416 12.3398 19.3742C12.0453 19.9068 11.8754 20.5044 11.8437 21.1183V21.1957L9.21039 22.7815V19.3072L15.2366 14.7508Z" fill="#EDD11D"/>
<path d="M15.7258 14.4567L20.683 11.4712V8.42053L20.4735 8.54688V11.357L15.881 14.1235L15.7258 14.4567Z" fill="#456CB2"/>
<path d="M15.8797 14.1231L20.4722 11.3566V8.54643L17.6677 10.2348L15.8797 14.1231Z" fill="url(#paint0_linear_720_500)"/>
<path d="M21.1028 10.9766V11.2176L26.06 8.23304L24.1172 6.35137L24.0599 6.38554L25.8501 8.11704L21.1028 10.9766Z" fill="#456CB2"/>
<path d="M21.1007 8.16695V10.9771L25.847 8.11794L24.0569 6.38644L21.1007 8.16695Z" fill="url(#paint1_linear_720_500)"/>
<path d="M15.4818 18.4849L20.845 15.2548V8.14177L17.5798 10.108L15.4805 14.6195L15.4818 18.4849ZM20.9192 15.2098L25.0936 12.696C25.2201 11.68 25.665 10.7362 26.3591 10.0113V8.06893L24.2582 6.08564L20.9192 8.09726V15.2098ZM17.5445 10.0392L24.2957 5.97324L26.432 7.99204V10.0284L26.4074 10.0549C25.7169 10.7641 25.2788 11.6976 25.1651 12.7014L25.1625 12.7464L15.4073 18.6193V14.633L17.5445 10.0392Z" fill="#CE823B"/>
<path d="M19.7152 12.7693C19.7152 12.8713 19.9334 12.8241 20.1989 12.6636C20.4644 12.5031 20.683 12.2891 20.683 12.1866C20.683 12.0841 20.4649 12.1326 20.1989 12.2922C19.9329 12.4519 19.7152 12.6654 19.7152 12.7693Z" fill="#CE823B"/>
<path d="M25.0927 9.52885C25.0927 9.63092 25.3108 9.58371 25.5763 9.42319C25.8419 9.26268 26.0604 9.04866 26.0604 8.94704C26.0604 8.84543 25.8423 8.89219 25.5763 9.05225C25.3104 9.21232 25.0927 9.42634 25.0927 9.52885Z" fill="#CE823B"/>
<path d="M17.1595 15.2687L16.9104 15.4194V15.1186L17.1595 14.9684V15.2687Z" fill="#353535"/>
<path d="M17.4108 15.4194L17.1595 15.57L17.1595 15.2687L17.4108 15.1181V15.4194Z" fill="#353535"/>
<path d="M6.3874 9.42139L15.2366 14.7508L17.4776 9.90294L8.62976 4.57446L6.3874 9.42139Z" fill="#EDD11D"/>
<path d="M6.715 9.33776L15.0486 14.3565L15.1525 14.1339L6.95467 9.19793L8.89442 5.00475L8.75994 4.92202L6.715 9.33776Z" fill="#456CB2"/>
<path d="M6.95467 9.19793L15.1525 14.1339L17.0927 9.94206L8.89442 5.00475L6.95467 9.19793Z" fill="url(#paint2_linear_720_500)"/>
<path d="M7.1439 8.86926L11.1889 6.4323V6.38734L8.91856 5.01554L7.1439 8.86926Z" fill="url(#paint3_linear_720_500)"/>
<path d="M7.45383 8.57565L7.99567 8.90163L8.51983 8.58689L11.048 10.1093V10.7388L15.4879 13.4131L15.1542 14.1352L6.95467 9.19793L7.45383 8.57565Z" fill="#368FA8"/>
<path d="M13.8701 13.2481L13.7861 13.4388L14.412 13.816L14.3426 13.9603L12.0946 12.6061L12.1644 12.4622L11.4161 12.0126L11.4976 11.9172L13.8701 13.2481Z" fill="#424242"/>
<path d="M9.90698 10.8611L9.82379 11.0517L10.4505 11.4281L10.3811 11.5733L8.13275 10.2186L8.2 10.0747L7.45167 9.62507L7.5353 9.5302L9.90698 10.8611Z" fill="#424242"/>
<path d="M0 16.4877L8.84917 21.8166V23L0 17.6697V16.4877Z" fill="#424242"/>
<path d="M0.362084 16.2696L9.21297 21.599L8.84917 21.8166L0 16.4877L0.362084 16.2696Z" fill="#6D6D6D"/>
<path d="M8.84917 23L9.21212 22.7824L9.21297 21.599L8.84917 21.8166V23Z" fill="#575757"/>
<path d="M3.40578 16.7997C3.40578 16.5722 3.56009 16.4787 3.74803 16.5929L5.67313 17.752C5.77297 17.82 5.85617 17.9115 5.91605 18.0191C5.97593 18.1267 6.01084 18.2474 6.01798 18.3716V19.2299L3.40578 17.6562V16.7997Z" fill="#706F70"/>
<path d="M8.33836 20.5221L8.33405 19.4516L7.03614 18.6701C6.75725 18.5033 6.5318 18.9849 6.5318 19.3194V19.4327L8.33836 20.5221Z" fill="#FCDD18"/>
<path d="M8.33836 20.5221L8.60561 20.6831L8.6026 19.6148L8.33448 19.4529L8.33836 20.5221Z" fill="#BCA828"/>
<path d="M0.875904 16.029L1.14488 16.19L1.1492 15.1231L0.882363 14.9621L0.875904 16.029Z" fill="#BCA828"/>
<path d="M1.14488 16.19L1.1492 15.1231L2.44883 15.9153C2.59515 16.0157 2.71696 16.1504 2.80452 16.3087C2.89208 16.4669 2.94298 16.6443 2.95317 16.8267V17.2763L1.14488 16.19Z" fill="#FCDD18"/>
<path d="M11.1743 13.5898L12.8377 14.5907L13.3222 14.1919L11.6592 13.1901L11.1743 13.5898Z" fill="#7E7D7E"/>
<path d="M12.6713 14.4909L12.8007 14.5696L13.2865 14.1699L13.1571 14.0907L12.6713 14.4909Z" fill="#5F6060"/>
<path d="M12.4623 14.3659L12.5916 14.4437L13.0787 14.0426L12.9464 13.9648L12.4623 14.3659Z" fill="#5F6060"/>
<path d="M12.2528 14.2387L12.3851 14.3173L12.8696 13.9185L12.7403 13.8394L12.2528 14.2387Z" fill="#5F6060"/>
<path d="M12.045 14.1137L12.1743 14.1923L12.6593 13.7922L12.53 13.7135L12.045 14.1137Z" fill="#5F6060"/>
<path d="M11.8351 13.9882L11.9644 14.0669L12.4502 13.6667L12.3209 13.5876L11.8351 13.9882Z" fill="#5F6060"/>
<path d="M11.6269 13.8614L11.7562 13.9406L12.2424 13.5395L12.1131 13.4608L11.6269 13.8614Z" fill="#5F6060"/>
<path d="M11.4174 13.736L11.5467 13.8151L12.033 13.414L11.9036 13.3363L11.4174 13.736Z" fill="#5F6060"/>
<path d="M11.2109 13.6105L11.3402 13.6897L11.8265 13.2895L11.695 13.2108L11.2109 13.6105Z" fill="#5F6060"/>
<path d="M6.8275 10.9717L8.49182 11.9739L8.97633 11.5728L7.31331 10.5711L6.8275 10.9717Z" fill="#7E7D7E"/>
<path d="M8.32499 11.8732L8.45432 11.9519L8.93882 11.5517L8.80951 11.473L8.32499 11.8732Z" fill="#5F6060"/>
<path d="M8.11464 11.7473L8.24396 11.826L8.7289 11.4249L8.59958 11.3471L8.11464 11.7473Z" fill="#5F6060"/>
<path d="M7.90731 11.6218L8.03662 11.7005L8.52242 11.3008L8.38879 11.2208L7.90731 11.6218Z" fill="#5F6060"/>
<path d="M7.69825 11.4955L7.82756 11.5746L8.31379 11.1736L8.18447 11.0958L7.69825 11.4955Z" fill="#5F6060"/>
<path d="M7.48875 11.3701L7.61807 11.4487L8.10301 11.0486L7.97153 10.9699L7.48875 11.3701Z" fill="#5F6060"/>
<path d="M7.27926 11.2442L7.40857 11.3228L7.89566 10.9231L7.76635 10.8444L7.27926 11.2442Z" fill="#5F6060"/>
<path d="M7.07062 11.1183L7.20339 11.1974L7.68661 10.7972L7.55728 10.7186L7.07062 11.1183Z" fill="#5F6060"/>
<path d="M6.86286 10.9928L6.99217 11.0715L7.47625 10.6718L7.34693 10.5931L6.86286 10.9928Z" fill="#5F6060"/>
<path d="M15.637 14.579L15.9146 14.4122L15.9788 14.4073L16.0784 14.4666L16.0202 14.4756L15.7422 14.6438C15.7169 14.6616 15.6959 14.6853 15.6809 14.7131C15.6659 14.7409 15.6574 14.772 15.656 14.8038V15.1981L15.6771 15.2535L15.5771 15.1937L15.5504 15.1343V14.7391L15.637 14.579Z" fill="#484848"/>
<path d="M15.7409 15.2499L16.0189 15.0821C16.0442 15.0645 16.0652 15.0409 16.0802 15.0133C16.0952 14.9856 16.1037 14.9547 16.1052 14.923V14.5287C16.1052 14.4693 16.0655 14.4464 16.0189 14.4752L15.7409 14.6429C15.7152 14.6606 15.6938 14.6842 15.6784 14.712C15.663 14.7398 15.654 14.7709 15.6521 14.8029V15.1972C15.6521 15.2552 15.6931 15.28 15.7409 15.2499Z" fill="#5D5D5D"/>
<path d="M15.7844 14.9135C15.7864 14.8721 15.7979 14.8317 15.818 14.7958C15.838 14.7599 15.8659 14.7295 15.8995 14.7072L15.9857 14.7009L16.4651 14.9909L16.3052 15.2809L15.8258 14.9913L15.7844 14.9135Z" fill="#484848"/>
<path d="M16.2616 15.2017C16.2616 15.2786 16.3146 15.3083 16.3767 15.2705C16.41 15.248 16.4376 15.2175 16.4574 15.1816C16.4772 15.1458 16.4885 15.1055 16.4905 15.0642C16.4905 14.9882 16.4405 14.9571 16.3767 14.9958C16.3435 15.0185 16.3158 15.0489 16.2959 15.0846C16.2759 15.1204 16.2642 15.1605 16.2616 15.2017Z" fill="#7E7D7E"/>
<path d="M17.6945 15.8407V15.4486C17.6915 15.3862 17.6743 15.3254 17.6443 15.2713C17.6143 15.2172 17.5724 15.1713 17.522 15.1374L16.4073 14.7391L16.2875 14.726L16.6754 14.5224L16.7983 14.5332L17.6707 15.0579C17.7208 15.092 17.7625 15.138 17.7925 15.192C17.8224 15.2461 17.8398 15.3067 17.8432 15.369V15.7615L17.8001 15.8735L17.6462 15.9558C17.6633 15.9428 17.6768 15.9253 17.6853 15.9051C17.6938 15.8848 17.697 15.8626 17.6945 15.8407Z" fill="#515151"/>
<path d="M16.4069 15.5466L17.5216 15.9436C17.6186 16.0016 17.6945 15.9553 17.6945 15.8407V15.4486C17.6915 15.3862 17.6743 15.3254 17.6443 15.2713C17.6143 15.2172 17.5724 15.1713 17.522 15.1374L16.4073 14.7391C16.312 14.6815 16.2345 14.7287 16.2345 14.8429V15.235C16.2378 15.2974 16.2551 15.3581 16.2851 15.4122C16.315 15.4664 16.3568 15.5124 16.4069 15.5466Z" fill="#5F6060"/>
<defs>
<linearGradient id="paint0_linear_720_500" x1="1642.62" y1="-47.104" x2="1638.41" y2="-47.104" gradientUnits="userSpaceOnUse">
<stop stop-color="#6EB0E0"/>
<stop offset="0.254" stop-color="#559ED6"/>
<stop offset="0.46" stop-color="#448DCA"/>
<stop offset="0.714" stop-color="#3B77AE"/>
<stop offset="1" stop-color="#305F8D"/>
</linearGradient>
<linearGradient id="paint1_linear_720_500" x1="1554.99" y1="-46.391" x2="1550.92" y2="-46.391" gradientUnits="userSpaceOnUse">
<stop stop-color="#6EB0E0"/>
<stop offset="0.254" stop-color="#559ED6"/>
<stop offset="0.46" stop-color="#448DCA"/>
<stop offset="0.714" stop-color="#3B77AE"/>
<stop offset="1" stop-color="#305F8D"/>
</linearGradient>
<linearGradient id="paint2_linear_720_500" x1="771.588" y1="-19.849" x2="769.682" y2="-19.849" gradientUnits="userSpaceOnUse">
<stop stop-color="#6EB0E0"/>
<stop offset="0.254" stop-color="#559ED6"/>
<stop offset="0.46" stop-color="#448DCA"/>
<stop offset="0.714" stop-color="#3B77AE"/>
<stop offset="1" stop-color="#305F8D"/>
</linearGradient>
<linearGradient id="paint3_linear_720_500" x1="1932.44" y1="-47.081" x2="1927.66" y2="-47.081" gradientUnits="userSpaceOnUse">
<stop stop-color="#6EB0E0"/>
<stop offset="0.254" stop-color="#559ED6"/>
<stop offset="0.46" stop-color="#448DCA"/>
<stop offset="0.714" stop-color="#3B77AE"/>
<stop offset="1" stop-color="#305F8D"/>
</linearGradient>
</defs>
</svg>
