<svg width="22" height="22" viewBox="0 0 22 22" fill="none" xmlns="http://www.w3.org/2000/svg">
<path d="M20.0336 8.03358L13.0337 1.03366C11.6552 -0.344822 9.4122 -0.344822 8.03372 1.03366L1.0338 8.03358C-0.344682 9.41206 -0.344682 11.655 1.0338 13.0335L8.03372 20.0334C9.4122 21.4119 11.6552 21.4119 13.0337 20.0334L20.0336 13.0335C21.4121 11.655 21.4121 9.41206 20.0336 8.03358ZM13.0337 15.0335C12.7577 15.3095 12.3102 15.31 12.0337 15.0335C11.7572 14.757 11.7577 14.3095 12.0337 14.0335L14.8266 11.2405L4.53376 11.2405C4.33876 11.2405 4.16177 11.1615 4.03377 11.0335C3.90577 10.9055 3.82677 10.7285 3.82677 10.5336C3.82677 10.1426 4.14277 9.82656 4.53376 9.82656L14.8266 9.82656L12.0337 7.03359C11.7572 6.7571 11.7577 6.3096 12.0337 6.0336C12.3097 5.75761 12.7572 5.75711 13.0337 6.0336L16.0336 9.03357C16.8606 9.86056 16.8606 11.2065 16.0336 12.0335L13.0337 15.0335Z" fill="#AAAAAA"/>
</svg>
