<svg width="18" height="18" viewBox="0 0 512 512" fill="none" xmlns="http://www.w3.org/2000/svg">
<g clip-path="url(#clip0_922_375)">
<path d="M118.255 196.104L193.679 271.529C202.021 279.871 215.522 279.856 223.849 271.529C232.176 263.202 232.191 249.701 223.849 241.359L154.67 172.179L344.529 172.179C356.325 172.179 365.859 162.646 365.859 150.849C365.859 144.966 363.476 139.626 359.614 135.765C355.752 131.903 350.412 129.519 344.529 129.519L154.67 129.519L223.849 60.3397C232.176 52.0128 232.191 38.5118 223.849 30.1698C215.507 21.8278 202.006 21.843 193.679 30.1699L118.255 105.595C93.3043 130.545 93.3043 171.154 118.255 196.104Z" fill="#555556"/>
<path d="M168.359 340.708C156.563 340.708 147.029 350.241 147.029 362.038C147.029 373.834 156.563 383.368 168.359 383.368L358.218 383.368L289.039 452.548C280.712 460.874 280.697 474.375 289.039 482.717C297.381 491.059 310.882 491.044 319.209 482.717L394.634 407.293C419.584 382.342 419.584 341.734 394.634 316.783L319.209 241.358C310.867 233.016 297.366 233.031 289.039 241.358C280.712 249.685 280.697 263.186 289.039 271.528L358.218 340.708L168.359 340.708Z" fill="#555556"/>
</g>
<defs>
<clipPath id="clip0_922_375">
<rect width="512" height="512" fill="white"/>
</clipPath>
</defs>
</svg>
