<svg width="46" height="34" viewBox="0 0 46 34" fill="none" xmlns="http://www.w3.org/2000/svg">
<path opacity="0.5" d="M21.0816 12H18.1265C16.5665 12 15.0752 12.4849 13.813 13.4026L12.6049 14.2808C12.1302 14.003 11.5857 13.8325 10.9982 13.8325C10.4106 13.8325 9.86526 14.003 9.39138 14.2808L8.18332 13.4026C6.92301 12.4849 5.43171 12 3.87168 12H0.91659C0.410632 12 0 12.4098 0 12.9167C0 13.4236 0.410632 13.8334 0.91659 13.8334H3.87168C5.04125 13.8334 6.1604 14.1964 7.10632 14.8849L8.13199 15.6311C7.92117 16.0573 7.79193 16.5304 7.79193 17.0373C5.59853 17.6918 4.23006 19.9671 4.67278 22.2671L5.69569 27.5831H3.66728C3.16132 27.5831 2.75069 27.9928 2.75069 28.4998C2.75069 29.0067 3.16132 29.4165 3.66728 29.4165H6.06874C6.48488 31.0207 7.92942 32.1666 9.60495 32.1666H10.0834V33.0833C10.0834 33.5902 10.494 34 11 34C11.506 34 11.9166 33.5902 11.9166 33.0833V32.1666H12.3951C14.0706 32.1666 15.5151 31.0207 15.9313 29.4165H18.3327C18.8387 29.4165 19.2493 29.0067 19.2493 28.4998C19.2493 27.9928 18.8387 27.5831 18.3327 27.5831H16.3043L17.3272 22.2671C17.7699 19.9662 16.4006 17.69 14.2081 17.0373C14.2081 16.5304 14.0779 16.0573 13.8671 15.6311L14.8937 14.8849C15.8396 14.1964 16.9578 13.8334 18.1283 13.8334H21.0834C21.5894 13.8334 22 13.4236 22 12.9167C22 12.4098 21.5894 12 21.0834 12H21.0816ZM12.374 17.0419C12.374 17.8 11.7571 18.4169 10.9991 18.4169C10.2411 18.4169 9.6242 17.8 9.6242 17.0419C9.6242 16.2838 10.2411 15.6668 10.9991 15.6668C11.7571 15.6668 12.374 16.2838 12.374 17.0419ZM15.5261 21.9224L14.1943 28.8472C14.0284 29.708 13.2722 30.3341 12.3941 30.3341H11.9157V24.8339C11.9157 24.3269 11.505 23.9172 10.9991 23.9172C10.4931 23.9172 10.0825 24.3269 10.0825 24.8339V30.3341H9.60403C8.72594 30.3341 7.96975 29.708 7.80385 28.8472L6.47204 21.9224C6.20715 20.5409 7.01467 19.1787 8.31622 18.7909C8.88909 19.6673 9.87626 20.2503 10.9991 20.2503C12.1219 20.2503 13.1082 19.6682 13.6819 18.7909C14.9826 19.1769 15.7919 20.54 15.5261 21.9224Z" fill="#F59E0B"/>
<path opacity="0.5" d="M45.0816 12H42.1265C40.5665 12 39.0752 12.4849 37.813 13.4026L36.6049 14.2808C36.1302 14.003 35.5857 13.8325 34.9982 13.8325C34.4106 13.8325 33.8653 14.003 33.3914 14.2808L32.1833 13.4026C30.923 12.4849 29.4317 12 27.8717 12H24.9166C24.4106 12 24 12.4098 24 12.9167C24 13.4236 24.4106 13.8334 24.9166 13.8334H27.8717C29.0412 13.8334 30.1604 14.1964 31.1063 14.8849L32.132 15.6311C31.9212 16.0573 31.7919 16.5304 31.7919 17.0373C29.5985 17.6918 28.2301 19.9671 28.6728 22.2671L29.6957 27.5831H27.6673C27.1613 27.5831 26.7507 27.9928 26.7507 28.4998C26.7507 29.0067 27.1613 29.4165 27.6673 29.4165H30.0687C30.4849 31.0207 31.9294 32.1666 33.6049 32.1666H34.0834V33.0833C34.0834 33.5902 34.494 34 35 34C35.506 34 35.9166 33.5902 35.9166 33.0833V32.1666H36.3951C38.0706 32.1666 39.5151 31.0207 39.9313 29.4165H42.3327C42.8387 29.4165 43.2493 29.0067 43.2493 28.4998C43.2493 27.9928 42.8387 27.5831 42.3327 27.5831H40.3043L41.3272 22.2671C41.7699 19.9662 40.4006 17.69 38.2081 17.0373C38.2081 16.5304 38.0779 16.0573 37.8671 15.6311L38.8937 14.8849C39.8396 14.1964 40.9578 13.8334 42.1283 13.8334H45.0834C45.5894 13.8334 46 13.4236 46 12.9167C46 12.4098 45.5894 12 45.0834 12H45.0816ZM36.374 17.0419C36.374 17.8 35.7571 18.4169 34.9991 18.4169C34.2411 18.4169 33.6242 17.8 33.6242 17.0419C33.6242 16.2838 34.2411 15.6668 34.9991 15.6668C35.7571 15.6668 36.374 16.2838 36.374 17.0419ZM39.5261 21.9224L38.1943 28.8472C38.0284 29.708 37.2722 30.3341 36.3941 30.3341H35.9157V24.8339C35.9157 24.3269 35.505 23.9172 34.9991 23.9172C34.4931 23.9172 34.0825 24.3269 34.0825 24.8339V30.3341H33.604C32.7259 30.3341 31.9698 29.708 31.8038 28.8472L30.472 21.9224C30.2071 20.5409 31.0147 19.1787 32.3162 18.7909C32.8891 19.6673 33.8763 20.2503 34.9991 20.2503C36.1219 20.2503 37.1082 19.6682 37.6819 18.7909C38.9826 19.1769 39.7919 20.54 39.5261 21.9224Z" fill="#F59E0B"/>
<path d="M38.5833 0H34.016C31.6048 0 29.2999 0.749417 27.3492 2.1675L25.482 3.52467C24.7482 3.09542 23.9067 2.83192 22.9986 2.83192C22.0905 2.83192 21.2476 3.09542 20.5152 3.52467L18.648 2.1675C16.7001 0.749417 14.3952 0 11.984 0H7.41667C6.63467 0 6 0.63325 6 1.41667C6 2.20008 6.63467 2.83333 7.41667 2.83333H11.984C13.7917 2.83333 15.5214 3.39433 16.9834 4.45825L18.5687 5.61142C18.2428 6.27017 18.0431 7.00117 18.0431 7.78458C14.653 8.79608 12.5379 12.3123 13.2222 15.8667L14.8032 24.0819H11.6681C10.8861 24.0819 10.2514 24.7152 10.2514 25.4986C10.2514 26.282 10.8861 26.9153 11.6681 26.9153H15.3797C16.0229 29.3944 18.2556 31.1653 20.8452 31.1653H21.5848V32.5819C21.5848 33.3653 22.2194 33.9986 23.0014 33.9986C23.7834 33.9986 24.4181 33.3653 24.4181 32.5819V31.1653H25.1576C27.7472 31.1653 29.9799 29.3944 30.6231 26.9153H34.3347C35.1167 26.9153 35.7514 26.282 35.7514 25.4986C35.7514 24.7152 35.1167 24.0819 34.3347 24.0819H31.1997L32.7807 15.8667C33.4649 12.3108 31.3484 8.79325 27.9597 7.78458C27.9597 7.00117 27.7586 6.27017 27.4327 5.61142L29.0194 4.45825C30.4814 3.39433 32.2097 2.83333 34.0188 2.83333H38.5862C39.3682 2.83333 40.0028 2.20008 40.0028 1.41667C40.0028 0.63325 39.3682 0 38.5862 0L38.5833 0ZM25.125 7.79167C25.125 8.96325 24.1716 9.91667 23 9.91667C21.8284 9.91667 20.875 8.96325 20.875 7.79167C20.875 6.62008 21.8284 5.66667 23 5.66667C24.1716 5.66667 25.125 6.62008 25.125 7.79167ZM29.9969 15.334L27.9385 26.0355C27.6821 27.3658 26.5133 28.3333 25.1562 28.3333H24.4167V19.8333C24.4167 19.0499 23.782 18.4167 23 18.4167C22.218 18.4167 21.5833 19.0499 21.5833 19.8333V28.3333H20.8438C19.4867 28.3333 18.3179 27.3658 18.0615 26.0355L16.0031 15.334C15.5937 13.1991 16.8417 11.0939 18.8534 10.4947C19.7388 11.849 21.2646 12.75 23 12.75C24.7354 12.75 26.2597 11.8504 27.1466 10.4947C29.1568 11.0911 30.4077 13.1977 29.9969 15.334Z" fill="#F59E0B"/>
</svg>
