<svg width="14" height="15" viewBox="0 0 14 15" fill="none" xmlns="http://www.w3.org/2000/svg">
<path d="M4.73467 13.2287C3.50867 13.1033 2.44267 12.896 1.89267 12.7773C1.71533 11.9293 1.33333 9.80933 1.33333 7.33333C1.33333 4.85733 1.71533 2.73733 1.89267 1.88933C2.71733 1.71133 4.70267 1.33333 6.66667 1.33333C7.02867 1.33333 7.366 1.348 7.67667 1.37333C7.63133 3.45733 7.86133 4.55733 7.872 4.60533C7.93 4.86933 8.14133 5.072 8.408 5.11867C8.47067 5.13 9.65133 5.33333 11.1287 5.33333C11.3707 5.33333 11.63 5.314 11.8847 5.30133C11.8907 5.70467 12.214 6.04733 12.6313 5.996C12.998 5.95667 13.262 5.628 13.2233 5.262C13.1873 4.92867 13.1453 4.62467 13.1027 4.35267C13.08 4.20733 13.0093 4.074 12.9033 3.97267L9.08933 0.344667C8.998 0.258 8.884 0.198667 8.76133 0.174C8.186 0.0586667 7.48133 0 6.66667 0C3.94933 0 1.284 0.658667 1.172 0.686667C0.933333 0.746667 0.746 0.933333 0.686667 1.172C0.658667 1.284 0 3.95733 0 7.334C0 10.7107 0.658667 13.3833 0.686667 13.496C0.746 13.7347 0.932667 13.9213 1.172 13.9813C1.16867 13.9833 2.874 14.3987 4.66733 14.5593C5.00533 14.5593 5.29467 14.3033 5.33 13.96C5.36733 13.594 5.10067 13.266 4.73467 13.2287ZM10.994 3.99733C10.218 3.99 9.53333 3.92533 9.106 3.872C9.06067 3.50467 9.01 2.90933 9.002 2.10267L10.994 3.99733ZM10 6.66667C7.234 6.66667 6 7.90067 6 10.6667C6 13.4327 7.234 14.6667 10 14.6667C12.766 14.6667 14 13.4327 14 10.6667C14 7.90067 12.766 6.66667 10 6.66667ZM10 13.3333C7.98133 13.3333 7.33333 12.6853 7.33333 10.6667C7.33333 8.648 7.98133 8 10 8C12.0187 8 12.6667 8.648 12.6667 10.6667C12.6667 12.6853 12.0187 13.3333 10 13.3333ZM10.6667 11.3333V12C10.6667 12.368 10.3687 12.6667 10 12.6667C9.63133 12.6667 9.33333 12.368 9.33333 12V11.3333C9.33333 10.9653 9.63133 10.6667 10 10.6667C10.3687 10.6667 10.6667 10.9653 10.6667 11.3333ZM10.6667 9.33333C10.6667 9.70133 10.368 10 10 10C9.632 10 9.33333 9.70133 9.33333 9.33333C9.33333 8.96533 9.632 8.66667 10 8.66667C10.368 8.66667 10.6667 8.96533 10.6667 9.33333Z" fill="#3F3F46"/>
</svg>
