<svg width="16" height="14" viewBox="0 0 16 14" fill="none" xmlns="http://www.w3.org/2000/svg">
<path d="M12.6667 0H3.33333C1.49533 0 0 1.49533 0 3.33333V10C0 11.838 1.49533 13.3333 3.33333 13.3333H12.6667C14.5047 13.3333 16 11.838 16 10V3.33333C16 1.49533 14.5047 0 12.6667 0ZM1.33333 10V3.33333C1.33333 2.23067 2.23067 1.33333 3.33333 1.33333H6V12H3.33333C2.23067 12 1.33333 11.1027 1.33333 10ZM14.6667 10C14.6667 11.1027 13.7693 12 12.6667 12H7.33333V1.33333H12.6667C13.7693 1.33333 14.6667 2.23067 14.6667 3.33333V10ZM4.66667 6C4.66667 6.36867 4.36867 6.66667 4 6.66667H3.33333C2.96467 6.66667 2.66667 6.36867 2.66667 6C2.66667 5.63133 2.96467 5.33333 3.33333 5.33333H4C4.36867 5.33333 4.66667 5.63133 4.66667 6ZM4.66667 8.66667C4.66667 9.03533 4.36867 9.33333 4 9.33333H3.33333C2.96467 9.33333 2.66667 9.03533 2.66667 8.66667C2.66667 8.298 2.96467 8 3.33333 8H4C4.36867 8 4.66667 8.298 4.66667 8.66667ZM2.66667 3.33333C2.66667 2.96467 2.96467 2.66667 3.33333 2.66667H4C4.36867 2.66667 4.66667 2.96467 4.66667 3.33333C4.66667 3.702 4.36867 4 4 4H3.33333C2.96467 4 2.66667 3.702 2.66667 3.33333Z" fill="#555556"/>
</svg>
