<svg width="18" height="18" viewBox="0 0 17 16" fill="none" xmlns="http://www.w3.org/2000/svg">
<path d="M0.763578 3.48802H2.17543C2.40909 4.78992 3.29026 5.44889 4.80443 5.44889C6.3186 5.44889 7.19977 4.78992 7.43266 3.48802H16.0351C16.4566 3.48802 16.7987 3.14594 16.7987 2.72444C16.7987 2.30295 16.4566 1.96087 16.0351 1.96087H7.43266C7.19901 0.658967 6.3186 0 4.80443 0C3.29026 0 2.40909 0.658967 2.17543 1.96087H0.763578C0.342083 1.96087 0 2.30295 0 2.72444C0 3.14594 0.342083 3.48802 0.763578 3.48802ZM4.80443 1.52639C5.67796 1.52639 5.96889 1.69972 5.96889 2.72368C5.96889 3.74077 5.66422 3.92097 4.80443 3.92097C3.93013 3.92097 3.63997 3.74764 3.63997 2.72368C3.63997 1.7066 3.94541 1.52639 4.80443 1.52639Z" fill="#555556"/>
<path d="M16.0351 7.23626H14.6233C14.3896 5.93436 13.5085 5.27539 11.9943 5.27539C10.4801 5.27539 9.59893 5.93436 9.36604 7.23626H0.763578C0.342083 7.23626 0 7.57834 0 7.99984C0 8.42133 0.342083 8.76341 0.763578 8.76341H9.36604C9.5997 10.0653 10.4801 10.7243 11.9943 10.7243C13.5085 10.7243 14.3896 10.0653 14.6233 8.76341H16.0351C16.4566 8.76341 16.7987 8.42133 16.7987 7.99984C16.7987 7.57834 16.4566 7.23626 16.0351 7.23626ZM11.9943 9.19712C11.1207 9.19712 10.8298 9.02379 10.8298 7.99984C10.8298 6.98275 11.1345 6.80255 11.9943 6.80255C12.8686 6.80255 13.1587 6.97588 13.1587 7.99984C13.1587 9.01616 12.8533 9.19712 11.9943 9.19712Z" fill="#555556"/>
<path d="M16.0351 12.5121H7.43266C7.19901 11.2102 6.3186 10.5513 4.80443 10.5513C3.29026 10.5513 2.40909 11.2102 2.17543 12.5121H0.763578C0.342083 12.5121 0 12.8535 0 13.2757C0 13.698 0.342083 14.0393 0.763578 14.0393H2.17543C2.40909 15.3412 3.28949 16.0002 4.80443 16.0002C6.31937 16.0002 7.19977 15.3412 7.43266 14.0393H16.0351C16.4566 14.0393 16.7987 13.698 16.7987 13.2757C16.7987 12.8535 16.4566 12.5121 16.0351 12.5121ZM4.80443 14.473C3.93013 14.473 3.63997 14.2997 3.63997 13.2757C3.63997 12.2594 3.94541 12.0784 4.80443 12.0784C5.67796 12.0784 5.96889 12.2518 5.96889 13.2757C5.96889 14.292 5.66422 14.473 4.80443 14.473Z" fill="#555556"/>
</svg>
