<svg width="18" height="18" viewBox="0 0 17 17" fill="none" xmlns="http://www.w3.org/2000/svg">
<g clip-path="url(#clip0_182_73)">
<path d="M9.91667 7.08325C9.91667 7.80504 9.6985 8.47442 9.32733 9.034L7.29087 6.99754C7.15771 6.86438 7.08333 6.68446 7.08333 6.49675V3.61313C8.69975 3.94109 9.91667 5.36979 9.91667 7.08325ZM5.66667 6.79V3.61313C3.86042 3.98004 2.55283 5.72113 2.88504 7.69809C3.11525 9.068 4.17421 10.2077 5.52642 10.5258C6.56767 10.7701 7.55225 10.5491 8.32575 10.0363L6.08104 7.79158C5.81542 7.52596 5.66667 7.16542 5.66667 6.79ZM13.4583 3.54159H12.0417C11.65 3.54159 11.3333 3.85892 11.3333 4.24992C11.3333 4.64092 11.65 4.95825 12.0417 4.95825H13.4583C13.85 4.95825 14.1667 4.64092 14.1667 4.24992C14.1667 3.85892 13.85 3.54159 13.4583 3.54159ZM13.4583 6.37492H12.0417C11.65 6.37492 11.3333 6.69225 11.3333 7.08325C11.3333 7.47425 11.65 7.79158 12.0417 7.79158H13.4583C13.85 7.79158 14.1667 7.47425 14.1667 7.08325C14.1667 6.69225 13.85 6.37492 13.4583 6.37492ZM13.4583 9.20825H12.0417C11.65 9.20825 11.3333 9.52559 11.3333 9.91658C11.3333 10.3076 11.65 10.6249 12.0417 10.6249H13.4583C13.85 10.6249 14.1667 10.3076 14.1667 9.91658C14.1667 9.52559 13.85 9.20825 13.4583 9.20825ZM17 4.24992V9.91658C17 11.8695 15.4112 13.4583 13.4583 13.4583H9.20833V14.8749H12.0417C12.4334 14.8749 12.75 15.1923 12.75 15.5833C12.75 15.9743 12.4334 16.2916 12.0417 16.2916H4.95833C4.56663 16.2916 4.25 15.9743 4.25 15.5833C4.25 15.1923 4.56663 14.8749 4.95833 14.8749H7.79167V13.4583H3.54167C1.58879 13.4583 0 11.8695 0 9.91658V4.24992C0 2.29704 1.58879 0.708252 3.54167 0.708252H13.4583C15.4112 0.708252 17 2.29704 17 4.24992ZM15.5833 4.24992C15.5833 3.07834 14.6299 2.12492 13.4583 2.12492H3.54167C2.37008 2.12492 1.41667 3.07834 1.41667 4.24992V9.91658C1.41667 11.0882 2.37008 12.0416 3.54167 12.0416H13.4583C14.6299 12.0416 15.5833 11.0882 15.5833 9.91658V4.24992Z" fill="#555556"/>
</g>
<defs>
<clipPath id="clip0_182_73">
<rect width="17" height="17" fill="white"/>
</clipPath>
</defs>
</svg>
