<svg width="18" height="18" viewBox="0 0 24 24" fill="none" xmlns="http://www.w3.org/2000/svg">
  <path d="m22.98 22.19c-.108.541-.636.897-1.176.784-.024-.005-2.443-.48-5.8-.48s-5.776.475-5.8.48c-.528.11-1.07-.239-1.176-.784-.109-.541.242-1.068.782-1.176.035-.007.349-.067.852-.142.122-.493.235-.794.252-.836.125-.314.402-.544.733-.609.089-.018 2.195-.431 4.343-.431s4.254.414 4.343.431c.332.065.608.295.733.609.017.042.129.342.251.832.52.077.843.139.879.146.541.109.891.635.782 1.176zm-11.632-9.132-8.642 8.643c-.39.39-1.023.39-1.413 0s-.39-1.023 0-1.413l8.642-8.642c-1.124-1.185-1.891-2.146-2.378-2.819-.263.179-.607.225-.909.109-.515-.192-.779-.763-.589-1.28.028-.077.719-1.914 2.697-3.891 1.977-1.978 3.815-2.669 3.892-2.698.52-.189 1.093.074 1.283.592.103.28.065.57-.066.814.805.581 2.029 1.556 3.565 3.091 1.536 1.536 2.512 2.76 3.092 3.566.245-.131.537-.169.816-.064.515.192.779.763.589 1.28-.028.077-.719 1.914-2.697 3.891-1.977 1.978-3.815 2.669-3.892 2.698-.505.189-1.093-.069-1.283-.592-.116-.314-.049-.639.126-.897-.674-.486-1.639-1.256-2.832-2.387zm7.996-2.111c-.155-.246-.486-.736-1.043-1.434-.417.625-.963 1.339-1.71 2.086-.713.713-1.394 1.241-1.996 1.65.708.564 1.201.895 1.438 1.043.521-.348 1.14-.824 1.783-1.468.684-.684 1.176-1.337 1.528-1.877zm-3.328-3.969c-.337-.337-.656-.641-.959-.923-.614.363-1.406.918-2.249 1.761-.803.803-1.345 1.561-1.706 2.156.287.31.596.634.941.979s.669.654.979.941c.594-.361 1.353-.904 2.155-1.706.843-.843 1.398-1.635 1.761-2.249-.282-.304-.585-.622-.922-.959zm-7.314-.018c.147.235.478.729 1.043 1.438.409-.602.937-1.283 1.65-1.996.747-.747 1.46-1.293 2.086-1.71-.698-.557-1.187-.887-1.434-1.043-.54.352-1.193.844-1.877 1.528-.643.643-1.12 1.262-1.467 1.783z" fill="#555556"/>
</svg>
