<svg width="30" height="30" viewBox="0 0 30 30" fill="none" xmlns="http://www.w3.org/2000/svg">
<mask id="mask0_1251_545" style="mask-type:alpha" maskUnits="userSpaceOnUse" x="0" y="0" width="30" height="30">
<rect width="30" height="30" rx="5" fill="#121314"/>
</mask>
<g mask="url(#mask0_1251_545)">
<path d="M11.4728 6.78901C11.4783 6.67812 11.5083 6.5702 11.5604 6.47407C11.6125 6.37794 11.6853 6.29634 11.7726 6.23594C11.804 6.21175 11.841 6.19731 11.8796 6.19423C11.9182 6.19114 11.9568 6.19953 11.9912 6.21846L14.5293 7.77056L14.102 8.55536L11.6038 7.0192C11.5276 7.00249 11.4728 6.92044 11.4728 6.78901Z" fill="#424242"/>
<path d="M14.0072 8.34126C14.0072 8.54563 14.1418 8.62919 14.3063 8.52739C14.3941 8.46689 14.4671 8.38498 14.5194 8.28841C14.5717 8.19185 14.6016 8.08341 14.6068 7.97204C14.6068 7.76768 14.4737 7.68486 14.3063 7.78742C14.2195 7.84856 14.1473 7.93047 14.0954 8.02661C14.0434 8.12275 14.0132 8.23049 14.0072 8.34126Z" fill="#525252"/>
<path d="M14.0074 8.34187C14.0132 8.23114 14.0433 8.12342 14.0952 8.02736C14.1472 7.93131 14.2195 7.84958 14.3065 7.78878C14.3376 7.76469 14.3743 7.75024 14.4127 7.74702C14.451 7.74381 14.4894 7.75195 14.5237 7.77056L16.0569 8.71564L15.636 9.49359L14.0978 8.55382H14.0928H14.0893C14.0598 8.52886 14.0368 8.49629 14.0225 8.45919C14.0082 8.4221 14.003 8.38171 14.0074 8.34187Z" fill="#999999"/>
<path d="M15.5413 9.28539C15.5413 9.489 15.6759 9.57257 15.8411 9.47C15.9286 9.40924 16.0014 9.32725 16.0535 9.23072C16.1056 9.1342 16.1355 9.02589 16.1409 8.91465C16.1409 8.7118 16.0063 8.62899 15.8411 8.73156C15.7537 8.79208 15.6809 8.87382 15.6288 8.97008C15.5767 9.06634 15.5467 9.17439 15.5413 9.28539Z" fill="#BEBEBE"/>
<path d="M28.6625 15.5927C28.7109 14.6366 28.9699 13.7062 29.4184 12.8768C29.8669 12.0475 30.4924 11.3426 31.244 10.8194C31.5007 10.6228 31.8005 10.5 32.1146 10.4629C32.4286 10.4257 32.7464 10.4755 33.0372 10.6074L35.4115 12.0714C35.1194 11.933 34.7984 11.8788 34.4806 11.9144C34.1627 11.95 33.8592 12.0741 33.6005 12.2742C32.8487 12.7971 32.223 13.5018 31.7743 14.3311C31.3257 15.1603 31.0666 16.0907 31.0182 17.0468C30.9882 17.3773 31.0366 17.7106 31.1589 18.0159C31.2812 18.3213 31.4736 18.5889 31.7183 18.7942L29.3647 17.3423C29.119 17.1374 28.9258 16.8695 28.803 16.5637C28.6803 16.2578 28.6319 15.9238 28.6625 15.5927Z" fill="#525252"/>
<path d="M29.3469 16.0145C29.3961 15.0584 29.6556 14.1282 30.1047 13.2992C30.5537 12.4701 31.1794 11.7656 31.9313 11.2427C32.1879 11.0461 32.4876 10.9234 32.8016 10.8865C33.1156 10.8496 33.4333 10.8998 33.7238 11.0322L33.8484 11.1082C33.5565 10.9694 33.2355 10.9151 32.9176 10.9508C32.5998 10.9865 32.2964 11.1111 32.0381 11.3118C31.2857 11.8335 30.6594 12.5374 30.2103 13.3663C29.7612 14.1951 29.502 15.1254 29.4537 16.0813C29.4234 16.4111 29.4716 16.7437 29.594 17.0483C29.7164 17.3529 29.909 17.6195 30.1538 17.8234V17.8279L30.0505 17.7626C29.8029 17.5598 29.6082 17.2925 29.485 16.9865C29.3618 16.6804 29.3143 16.3457 29.3469 16.0145Z" fill="#3C3C3C"/>
<path d="M29.6354 16.351L29.9808 15.7561L29.7792 15.1255L30.2542 14.6492L30.136 13.9761L30.7193 13.6129L30.6601 12.9087L31.3346 12.6906L31.3986 12.0228L32.0866 11.9157L32.2461 11.4348L33.0878 11.3338L33.3499 11.0815C33.3499 11.0815 33.9645 11.2487 34.1333 11.3133L34.3113 11.3953L34.4132 11.4576C34.3299 11.4057 34.2406 11.3656 34.1475 11.3383C33.9987 11.2935 33.4354 11.1309 33.4354 11.1309L33.1598 11.3907L32.3316 11.4834L32.1749 11.9651L31.4784 12.0783L31.4285 12.7301L30.7549 12.9436L30.8068 13.6616L30.2279 14.0125L30.3489 14.6758L29.8711 15.1506L30.0691 15.7873L29.7272 16.357L30.0513 16.8888L29.891 17.2626L30.3233 17.7352L30.3846 17.9676L30.3034 17.9198L30.2742 17.7413L29.8191 17.2512L29.9715 16.8714L29.6354 16.351Z" fill="#424242"/>
<path d="M28.8129 15.8403L29.1576 15.2447L28.9567 14.6179L29.4317 14.1393L29.3135 13.4662L29.8975 13.1007L29.8362 12.3965L30.5099 12.1815L30.574 11.5106L31.2641 11.4058L31.4229 10.9219L32.2639 10.8223L32.5267 10.5686C32.5267 10.5686 33.1391 10.7388 33.3101 10.7965L33.4902 10.8808L33.5921 10.9393C33.5075 10.8905 33.4182 10.8518 33.3257 10.8239C33.1762 10.7783 32.6136 10.6165 32.6136 10.6165L32.3387 10.874L31.5105 10.9697L31.3545 11.4499L30.6573 11.5654L30.6053 12.2157L29.9331 12.4292L29.9851 13.1448L29.4068 13.4981L29.5279 14.1606L29.0507 14.6377L29.2473 15.2735L28.9054 15.8426L29.2288 16.3744L29.0692 16.7542L29.5015 17.2245L29.5628 17.4562L29.483 17.4084L29.4531 17.2298L28.9987 16.7406L29.1497 16.366L28.8129 15.8403Z" fill="#424242"/>
<path d="M29.7378 12.8426L24.7378 15.9226V14.7176L29.7378 11.637V12.8426Z" fill="#FAAC32"/>
<path d="M14.9253 16.1331L19.4047 18.8931L20.2002 18.3013L26.1352 11.9683L30.6146 14.7276C30.6146 14.7276 26.2306 20.8053 24.6795 21.0606C24.4908 21.1776 21.5938 24.7141 19.3171 26.1165C17.7331 25.3669 16.1866 24.5301 14.6839 23.6095C14.6839 23.6095 11.2741 21.597 9.8114 19.2851C10.0756 19.1195 14.9253 16.1331 14.9253 16.1331Z" fill="#383838"/>
<path d="M19.4047 18.8921L19.228 20.1297L21.0447 23.3008L24.6767 21.0589L30.6117 14.7258C30.6117 14.7258 29.7179 19.7286 27.3358 21.1736C27.0716 21.3346 19.3121 26.1117 19.3121 26.1117C19.3121 26.1117 15.7514 24.3522 14.2858 22.0381C14.5557 21.8801 19.4047 18.8921 19.4047 18.8921Z" fill="#424242"/>
<path d="M28.3535 19.1728L28.7673 19.4281V18.2216L34.4573 14.7231L34.0443 14.4724L28.3535 17.9671V19.1728Z" fill="#EDD11D"/>
<path d="M28.7672 19.4302L34.4572 15.9355V14.72L28.7672 18.2185V19.4302Z" fill="#FCDD18"/>
<path d="M27.4255 18.0694L28.2231 17.5779L28.7665 17.9137L27.9682 18.4022L27.4255 18.0694Z" fill="#BCA828"/>
<path d="M28.7672 17.9143L27.9689 18.4028V20.1502L28.7672 19.6586V17.9143Z" fill="#FCDD18"/>
<path d="M27.4255 19.8168L27.9682 20.1534V18.406L27.4255 18.0732V19.8168Z" fill="#EDD11D"/>
<path d="M20.9558 14.8731C20.9738 14.5349 20.9161 14.1969 20.7873 13.8872C20.6585 13.5775 20.4624 13.3051 20.2151 13.0924L28.8734 4.62984C28.8734 4.62984 30.3539 3.38694 31.0461 3.85645L35.5789 6.65754L24.6831 21.0603L20.2037 18.301C20.6308 17.2108 20.8849 16.0523 20.9558 14.8731Z" fill="#EDD11D"/>
<path d="M24.6952 15.8525C24.9425 16.0648 25.1387 16.337 25.2675 16.6464C25.3964 16.9559 25.4541 17.2937 25.4359 17.6318C25.3635 18.8112 25.1079 19.9696 24.6796 21.0596L32.5958 12.6115C32.5958 12.6115 36.4755 8.22643 35.6295 6.70623C34.995 6.01261 33.3549 7.38998 33.3549 7.38998L24.6952 15.8525Z" fill="#FCDD18"/>
<path d="M20.6908 10.2702C21.6437 9.06224 27.6577 4.42719 28.2303 4.00478C28.6006 3.7556 28.9018 3.69406 29.0849 3.7989L29.1077 3.81257L33.5756 6.56656L24.3641 16.0737L19.8448 13.2916L19.7373 13.1708C19.3328 12.3746 20.2856 10.7678 20.6908 10.2702Z" fill="#5C5C5B"/>
<path d="M24.2181 15.9272C23.8129 15.134 24.765 13.5249 25.1709 13.025C26.1238 11.8194 32.1378 7.18734 32.7111 6.7619C33.5123 6.21946 33.9894 6.57804 33.6618 7.53605C33.4069 8.50697 27.3394 14.8195 27.3394 14.8195C27.3394 14.8195 24.6247 16.7226 24.2181 15.9272Z" fill="#424242"/>
<path d="M9.16614 28.031C9.16614 29.789 10.3241 30.5009 11.7505 29.6264C12.502 29.1033 13.1274 28.3985 13.576 27.5693C14.0245 26.7401 14.2835 25.8098 14.332 24.8539C14.332 23.0974 13.1755 22.384 11.7505 23.2584C10.9988 23.7817 10.3731 24.4864 9.92415 25.3155C9.47517 26.1447 9.21549 27.0749 9.16614 28.031Z" fill="#424242"/>
<path d="M6.80966 26.5788C6.85816 25.6226 7.11724 24.692 7.56589 23.8625C8.01453 23.033 8.64012 22.328 9.3919 21.8047C9.64886 21.6084 9.94889 21.4859 10.2631 21.4492C10.5773 21.4125 10.8951 21.4627 11.1858 21.595L13.5601 23.0598C13.2684 22.9208 12.9476 22.866 12.6299 22.9011C12.3121 22.9362 12.0086 23.0598 11.7498 23.2596C10.998 23.7829 10.3723 24.4877 9.92328 25.317C9.47429 26.1463 9.21467 27.0767 9.16543 28.0329C9.13461 28.3636 9.1827 28.6972 9.30522 29.0027C9.42774 29.3082 9.62072 29.5757 9.86619 29.7803L7.51254 28.3315C7.26628 28.1263 7.07269 27.8581 6.94979 27.5516C6.82689 27.2451 6.77868 26.9105 6.80966 26.5788Z" fill="#525252"/>
<path d="M9.06069 27.9649C9.10913 27.0089 9.3682 26.0786 9.81687 25.2495C10.2655 24.4204 10.8912 23.7159 11.6429 23.1931C11.9 22.9971 12.1997 22.8745 12.5137 22.837C12.8277 22.7995 13.1455 22.8483 13.4368 22.9789L13.56 23.0548C13.2684 22.9158 12.9476 22.8611 12.6298 22.8962C12.3121 22.9312 12.0085 23.0548 11.7497 23.2546C10.9982 23.7785 10.3728 24.4839 9.92435 25.3135C9.47585 26.1432 9.21682 27.0739 9.16822 28.0302C9.1374 28.3609 9.18549 28.6945 9.30801 29C9.43053 29.3055 9.6235 29.573 9.86897 29.7776L9.765 29.716C9.51658 29.5132 9.3213 29.2455 9.19794 28.9388C9.07459 28.6321 9.02732 28.2967 9.06069 27.9649Z" fill="#5F6060"/>
<path d="M8.28966 27.4923C8.33779 26.5361 8.59679 25.6055 9.04562 24.7762C9.49444 23.9469 10.1204 23.2423 10.8726 22.7197C11.1288 22.5222 11.4285 22.3989 11.7426 22.3616C12.0567 22.3243 12.3745 22.3744 12.6651 22.507L12.7904 22.583C12.4986 22.4442 12.1778 22.3895 11.86 22.4244C11.5422 22.4593 11.2386 22.5827 10.9794 22.782C10.2277 23.3052 9.60217 24.0099 9.15341 24.8391C8.70465 25.6682 8.44533 26.5986 8.39648 27.5546C8.36604 27.8851 8.41423 28.2186 8.53659 28.524C8.65895 28.8294 8.85153 29.097 9.09652 29.3019L8.99397 29.2404C8.74667 29.0372 8.55215 28.7699 8.42888 28.464C8.30561 28.158 8.25769 27.8236 8.28966 27.4923Z" fill="#3C3C3C"/>
<path d="M7.49554 27.0022C7.54429 26.0462 7.80356 25.1158 8.25232 24.2866C8.70109 23.4574 9.32673 22.7527 10.0785 22.2296C10.3354 22.0335 10.6351 21.9109 10.9491 21.8736C11.263 21.8364 11.5807 21.8857 11.8717 22.0169L11.9956 22.0929C11.7036 21.9545 11.3828 21.9001 11.065 21.9353C10.7472 21.9705 10.4437 22.094 10.1846 22.2935C9.43312 22.8168 8.80775 23.5216 8.35913 24.3507C7.91051 25.1799 7.65126 26.1101 7.60237 27.066C7.57177 27.3964 7.61973 27.7298 7.74184 28.0352C7.86395 28.3406 8.05626 28.6082 8.30098 28.8134L8.19772 28.748C7.95046 28.5454 7.75607 28.2785 7.63313 27.9729C7.51019 27.6672 7.46281 27.333 7.49554 27.0022Z" fill="#3C3C3C"/>
<path d="M8.61353 27.8479L8.95821 27.2515L8.75667 26.6255L9.23238 26.1468L9.11416 25.4722L9.69741 25.1091L9.63759 24.4063L10.3106 24.186L10.3761 23.5175L11.0647 23.4156L11.2235 22.9309L12.0646 22.8314L12.3266 22.5762C12.3266 22.5762 12.9398 22.7471 13.11 22.8086L13.2895 22.8945L13.392 22.9545C13.3072 22.9048 13.2174 22.8656 13.1242 22.8375C12.9754 22.7889 12.4121 22.6263 12.4121 22.6263L12.1372 22.8861L11.3083 22.9819L11.1537 23.4658L10.4573 23.5759L10.4046 24.227L9.7323 24.4428L9.78358 25.1592L9.20532 25.5125L9.32639 26.1742L8.84996 26.6506L9.04651 27.2857L8.70468 27.8532L9.02799 28.3903L8.86847 28.7656L9.30074 29.2366L9.362 29.4683L9.28152 29.4205L9.25232 29.2419L8.79726 28.7512L8.94823 28.3774L8.61353 27.8479Z" fill="#424242"/>
<path d="M7.78308 27.3336L8.12847 26.741L7.92765 26.1104L8.40194 25.6348L8.28301 24.9602L8.86697 24.594L8.80715 23.8928L9.48083 23.6748L9.54564 23.007L10.235 22.9021L10.3931 22.4159L11.2341 22.3156L11.4962 22.0649C11.4962 22.0649 12.1115 22.2336 12.2796 22.2928L12.459 22.3779L12.5594 22.438C12.4753 22.3876 12.3859 22.3481 12.2931 22.3202C12.1443 22.2746 11.581 22.1105 11.581 22.1105L11.3032 22.3703L10.475 22.4646L10.319 22.9492L9.62327 23.0594L9.57128 23.712L8.89831 23.9262L8.95029 24.6419L8.37061 24.9959L8.49238 25.6584L8.01524 26.1325L8.21251 26.7691L7.86997 27.3389L8.194 27.8745L8.03305 28.2475L8.46604 28.7193L8.52799 28.9526L8.44752 28.9039L8.41832 28.7254L7.96326 28.2369L8.11566 27.857L7.78308 27.3336Z" fill="#424242"/>
<path d="M6.96204 26.8282L7.30458 26.234L7.10447 25.605L7.57876 25.1249L7.46055 24.454L8.04522 24.0863L7.98396 23.3843L8.65837 23.1655L8.72175 22.4993L9.41181 22.3937L9.57063 21.9097L10.411 21.8102L10.6744 21.5549C10.6744 21.5549 11.2876 21.7251 11.4578 21.7889L11.638 21.8717L11.7398 21.934C11.6556 21.883 11.566 21.8429 11.4728 21.8148C11.3232 21.7699 10.7606 21.6074 10.7606 21.6074L10.4857 21.8657L9.6575 21.9614L9.50013 22.4423L8.80364 22.5547L8.75095 23.2081L8.08011 23.4208L8.13138 24.138L7.55241 24.492L7.67347 25.1522L7.19705 25.6316L7.3936 26.2659L7.05177 26.835L7.37508 27.3668L7.21556 27.7413L7.64712 28.2131L7.70908 28.4456L7.62932 28.3993L7.59941 28.2184L7.14364 27.7277L7.29674 27.3531L6.96204 26.8282Z" fill="#424242"/>
<path d="M9.91748 27.569C9.91748 28.818 10.7379 29.3217 11.7505 28.6964C12.2839 28.3261 12.7279 27.8267 13.0463 27.2389C13.3647 26.651 13.5485 25.9913 13.5829 25.3134C13.5829 24.0659 12.7625 23.5592 11.7505 24.1837C11.2172 24.5547 10.7733 25.0545 10.4548 25.6427C10.1364 26.2309 9.95228 26.8908 9.91748 27.569Z" fill="#353535"/>
<path d="M10.1504 27.4261C10.1504 28.5163 10.8625 28.9546 11.7506 28.4137C12.2162 28.0897 12.6037 27.6532 12.8818 27.1396C13.1598 26.626 13.3205 26.0498 13.3508 25.4576C13.3508 24.3697 12.6336 23.926 11.7506 24.47C11.2849 24.7939 10.8973 25.2304 10.6192 25.744C10.3412 26.2576 10.1806 26.8338 10.1504 27.4261Z" fill="#959494"/>
<path d="M11.1837 26.7909C11.1837 27.1708 11.4372 27.3319 11.7499 27.1374C11.9148 27.0231 12.052 26.8688 12.1503 26.6871C12.2485 26.5054 12.3051 26.3015 12.3153 26.092C12.3153 25.7121 12.0625 25.548 11.7499 25.7448C11.5847 25.859 11.4472 26.0133 11.3488 26.1952C11.2503 26.377 11.1938 26.5812 11.1837 26.7909Z" fill="#767676"/>
<path d="M11.6002 26.5319C11.6002 26.6345 11.6664 26.6763 11.7498 26.6246C11.7936 26.5941 11.8299 26.5529 11.8558 26.5044C11.8817 26.4559 11.8964 26.4015 11.8986 26.3458C11.8986 26.247 11.8324 26.2052 11.7498 26.2561C11.7064 26.2865 11.6703 26.3272 11.6443 26.3751C11.6184 26.423 11.6033 26.4767 11.6002 26.5319Z" fill="#5F6060"/>
<path d="M11.3981 26.3843L11.4244 26.4254C11.4672 26.4512 11.5327 26.4109 11.5733 26.3357C11.6139 26.2605 11.6146 26.1762 11.5733 26.1526L11.5448 26.145L11.5177 26.2848L11.3981 26.3843Z" fill="#595959"/>
<path d="M11.3973 26.3843L11.517 26.2848L11.544 26.145L11.4237 26.243L11.3973 26.3843Z" fill="#3C3C3C"/>
<path d="M11.403 27.0013L11.4293 27.0424C11.4699 27.0682 11.5361 27.0287 11.5789 26.9512C11.6216 26.8737 11.6195 26.7924 11.5789 26.7696L11.5482 26.7605L11.5219 26.9048L11.403 27.0013Z" fill="#595959"/>
<path d="M11.4037 27.0013L11.5226 26.9048L11.549 26.7605L11.43 26.8585L11.4037 27.0013Z" fill="#3C3C3C"/>
<path d="M11.9072 26.6852L11.9343 26.724C11.9749 26.7513 12.0411 26.7118 12.0824 26.6343C12.1237 26.5568 12.123 26.4763 12.0824 26.4512L12.0532 26.4429L12.0269 26.5857L11.9072 26.6852Z" fill="#595959"/>
<path d="M11.9072 26.6852L12.0269 26.5857L12.0532 26.4429L11.9336 26.5439L11.9072 26.6852Z" fill="#3C3C3C"/>
<path d="M11.9022 26.07L11.9286 26.111C11.9684 26.1368 12.0368 26.0943 12.0774 26.0198C12.118 25.9454 12.1194 25.858 12.0774 25.8337L12.0482 25.8284L12.0211 25.9697L11.9022 26.07Z" fill="#595959"/>
<path d="M11.9022 26.07L12.0219 25.9689L12.0489 25.8276L11.9293 25.9241L11.9022 26.07Z" fill="#3C3C3C"/>
<path d="M11.2627 25.1333C11.3624 25.2762 11.5433 25.2974 11.7498 25.1744C11.8983 25.07 12.0248 24.9339 12.1213 24.7746C12.2177 24.6153 12.2821 24.4363 12.3103 24.249L12.1422 24.2893C12.0588 24.6083 11.8698 24.8841 11.6102 25.0657C11.5603 25.1031 11.5034 25.1286 11.4434 25.1402C11.3834 25.1519 11.3218 25.1496 11.2627 25.1333Z" fill="#5F6060"/>
<path d="M11.1886 24.9397C11.1974 25.0094 11.2219 25.0758 11.2598 25.1334C11.3188 25.1494 11.3804 25.1516 11.4403 25.1398C11.5001 25.128 11.5569 25.1024 11.6066 25.065C11.8662 24.8835 12.0553 24.6076 12.1386 24.2886C12.0018 24.3314 11.8703 24.3916 11.7469 24.4679C11.5427 24.599 11.355 24.7576 11.1886 24.9397Z" fill="#3C3C3C"/>
<path d="M10.4937 28.433C10.5946 28.5251 10.7147 28.5903 10.844 28.6232C10.9733 28.6561 11.108 28.6558 11.2371 28.6222C11.3496 28.2719 11.2927 27.9536 11.0876 27.87L11.0705 27.8655C11.1221 27.9647 11.1514 28.0754 11.1561 28.1887C11.1608 28.3021 11.1407 28.4151 11.0975 28.5188C10.893 28.5655 10.6796 28.5352 10.4937 28.433Z" fill="#5F6060"/>
<path d="M10.3748 28.296L10.4937 28.4335C10.6796 28.5357 10.893 28.5661 11.0976 28.5194C11.1408 28.4157 11.1608 28.3027 11.1561 28.1893C11.1514 28.0759 11.1221 27.9653 11.0705 27.866C10.8604 27.7961 10.5749 27.9815 10.3748 28.296Z" fill="#3C3C3C"/>
<path d="M10.1504 27.4263V27.5144C10.3013 27.4249 10.433 27.3029 10.5374 27.1562C10.6417 27.0094 10.7163 26.8411 10.7564 26.662C10.8348 26.3224 10.7479 26.0649 10.5599 26.0056C10.6063 26.0874 10.6354 26.179 10.6451 26.274C10.6548 26.369 10.6449 26.4651 10.6161 26.5557C10.5437 26.8564 10.3805 27.1233 10.1518 27.3154L10.1504 27.4263Z" fill="#5F6060"/>
<path d="M10.1532 27.3184C10.3819 27.1263 10.545 26.8594 10.6175 26.5587C10.6463 26.4681 10.6562 26.372 10.6465 26.277C10.6368 26.182 10.6077 26.0904 10.5613 26.0086L10.4957 25.9934C10.2983 26.4056 10.1817 26.8565 10.1532 27.3184Z" fill="#3C3C3C"/>
<path d="M12.1935 27.8067C12.1993 27.8758 12.2179 27.943 12.2483 28.0043C12.6271 27.6102 12.9238 27.1354 13.1193 26.6109L12.9427 26.6018C12.7613 27.0473 12.5077 27.4552 12.1935 27.8067Z" fill="#5F6060"/>
<path d="M12.1935 27.8067C12.5077 27.4552 12.7613 27.0473 12.9427 26.6018C12.7129 26.673 12.5179 26.8364 12.3986 27.0576C12.2552 27.2767 12.1832 27.5398 12.1935 27.8067Z" fill="#3C3C3C"/>
<path d="M12.7804 25.5594C12.8993 25.7243 13.1229 25.719 13.3501 25.5404V25.4553C13.3634 25.2695 13.3391 25.0829 13.2787 24.908C13.2184 24.7331 13.1235 24.5742 13.0005 24.4419L12.9784 24.47C13.1424 24.7287 13.2236 25.037 13.2098 25.349V25.4356C13.1521 25.4903 13.0833 25.53 13.0088 25.5515C12.9343 25.5729 12.8561 25.5757 12.7804 25.5594Z" fill="#5F6060"/>
<path d="M12.7277 25.448L12.7804 25.5597C12.8558 25.5754 12.9336 25.5724 13.0077 25.5508C13.0819 25.5292 13.1503 25.4896 13.2077 25.4351V25.3485C13.2215 25.0365 13.1403 24.7282 12.9763 24.4695C12.8676 24.6015 12.7886 24.7584 12.7456 24.928C12.7025 25.0976 12.6964 25.2755 12.7277 25.448Z" fill="#3C3C3C"/>
<path d="M9.11353 20.9814C9.39878 20.7622 9.73233 20.6256 10.0818 20.5847C10.4312 20.5439 10.7846 20.6001 11.1075 20.7481L14.6148 22.9073L9.70746 28.7389L6.26495 26.6177C6.25498 26.5083 6.25 26.3944 6.25 26.2766C6.30392 25.2161 6.59127 24.184 7.08877 23.2641C7.58627 22.3441 8.27992 21.5621 9.11353 20.9814Z" fill="#EDD11D"/>
<path d="M15.3255 24.0155C15.0001 22.7073 13.8842 22.2864 12.556 23.1039C11.7219 23.6834 11.0278 24.4647 10.5301 25.3843C10.0324 26.3038 9.7452 27.3357 9.69177 28.3961C9.69177 28.5154 9.69604 28.624 9.70601 28.7387L15.3255 24.0155Z" fill="#FCDD18"/>
<path d="M13.2582 11.0474C10.8255 12.9375 8.94617 18.6901 8.94617 18.6901L9.29084 19.5858L13.7717 22.3459L20.4209 13.4017L16.1417 10.805C15.6925 10.5364 15.1787 10.4161 14.6654 10.4593C14.1521 10.5024 13.6624 10.7071 13.2582 11.0474Z" fill="#EDD11D"/>
<path d="M9.29084 19.5866L13.7717 22.3467L13.427 21.4487L8.94617 18.6909L9.29084 19.5866Z" fill="#BCA828"/>
<path d="M17.7382 13.8088C15.3055 15.6982 13.4269 21.4486 13.4269 21.4486L13.7716 22.3465L19.4053 18.8739L20.6217 13.5634C20.6217 13.5634 19.51 12.3889 17.7382 13.8088Z" fill="#FCDD18"/>
<path d="M15.8525 5.64106C16.0264 5.06136 16.3057 4.52388 16.6743 4.05933L21.195 6.84598L20.8154 10.792L16.4714 8.07445C16.1221 7.8062 15.87 7.41796 15.7573 6.97488C15.6446 6.53179 15.6782 6.06084 15.8525 5.64106Z" fill="#EDD11D"/>
<path d="M22.2426 10.5749L21.1943 6.84619C20.8256 7.31023 20.5461 7.84718 20.3718 8.42641C20.0157 9.50901 20.2757 10.6296 20.9928 10.8575C21.2081 10.9067 21.4306 10.907 21.6459 10.8583C21.8613 10.8096 22.0646 10.713 22.2426 10.5749Z" fill="#FCDD18"/>
<path d="M14.1405 10.5149L15.7186 6.60083L20.198 9.3609L18.6206 13.2765L14.1405 10.5149Z" fill="#383838"/>
<path d="M20.198 9.36011L20.2129 9.37454C20.1767 9.67892 20.2334 9.98765 20.3744 10.255C20.5155 10.5224 20.7336 10.7342 20.9963 10.859C21.219 10.9228 21.4539 10.9197 21.675 10.8499L21.6828 10.859L20.6246 13.5629C20.35 13.3194 20.0168 13.1634 19.663 13.1126C19.3093 13.0618 18.9492 13.1183 18.6241 13.2757L20.198 9.36011Z" fill="#424242"/>
<path d="M17.9676 10.8618C17.9678 11.2503 17.8601 11.6301 17.658 11.9533C17.4559 12.2764 17.1685 12.5284 16.8321 12.6772C16.4958 12.8261 16.1256 12.8652 15.7684 12.7896C15.4112 12.714 15.0831 12.5271 14.8255 12.2525C14.5679 11.9779 14.3924 11.628 14.3212 11.247C14.2501 10.866 14.2865 10.471 14.4258 10.1121C14.565 9.75316 14.801 9.44635 15.1038 9.23049C15.4065 9.01463 15.7625 8.89941 16.1267 8.89941C16.6147 8.89941 17.0827 9.10611 17.4279 9.47408C17.7731 9.84205 17.9672 10.3412 17.9676 10.8618Z" fill="#FCDD18"/>
<path d="M13.4611 10.7745C13.489 11.3227 13.6379 11.8561 13.8955 12.3313C14.1532 12.8065 14.5123 13.2102 14.9437 13.5095C15.762 14.0147 16.425 13.6067 16.425 12.5978C16.3974 12.0491 16.2489 11.5151 15.9915 11.0391C15.7341 10.5631 15.3752 10.1585 14.9437 9.85827C14.1241 9.36141 13.4611 9.76634 13.4611 10.7745Z" fill="#BCA828"/>
<path d="M16.4249 12.6032C16.3973 12.0544 16.2488 11.5204 15.9914 11.0444C15.7341 10.5684 15.3751 10.1639 14.9437 9.86361C14.8001 9.75538 14.6339 9.68615 14.4595 9.66193C14.2852 9.6377 14.1079 9.65921 13.9431 9.72458L14.4744 9.39639C14.6426 9.31384 14.8284 9.28061 15.0126 9.30011C15.1969 9.3196 15.3729 9.39112 15.5227 9.50731C15.9536 9.80702 16.3124 10.2108 16.5699 10.686C16.8273 11.1611 16.9763 11.6943 17.0046 12.2423C17.0273 12.4477 16.9942 12.6557 16.9093 12.8416C16.8243 13.0274 16.691 13.1833 16.5254 13.2907L15.9969 13.6189C16.1453 13.5043 16.2629 13.3502 16.338 13.172C16.4131 12.9937 16.4431 12.7976 16.4249 12.6032Z" fill="#EBCF1B"/>
<path d="M13.7594 10.9614C13.7817 11.3991 13.9006 11.8251 14.1062 12.2046C14.3119 12.5841 14.5986 12.9065 14.943 13.1456C15.0732 13.2522 15.2315 13.3125 15.3956 13.318C15.5597 13.3234 15.7212 13.2738 15.8574 13.176C15.726 13.2306 15.5838 13.2492 15.444 13.2299C15.3041 13.2107 15.171 13.1543 15.0569 13.0658C14.712 12.8267 14.4249 12.504 14.2191 12.1241C14.0132 11.7441 13.8945 11.3176 13.8726 10.8793C13.862 10.7394 13.8807 10.5986 13.9273 10.4673C13.9738 10.3359 14.0471 10.2171 14.1418 10.1196C14.0091 10.206 13.9025 10.3313 13.8347 10.4806C13.7669 10.6298 13.7407 10.7967 13.7594 10.9614Z" fill="#EDD11D"/>
<path d="M13.8728 10.88C13.8947 11.3183 14.0134 11.7448 14.2192 12.1247C14.425 12.5047 14.7121 12.8274 15.057 13.0665C15.1711 13.1549 15.3042 13.2114 15.4441 13.2306C15.5839 13.2498 15.7261 13.2313 15.8575 13.1767C15.9522 13.0791 16.0255 12.9604 16.0721 12.829C16.1186 12.6977 16.1373 12.5569 16.1267 12.4169C16.105 11.9787 15.9864 11.5523 15.7807 11.1723C15.575 10.7923 15.288 10.4696 14.9431 10.2305C14.8284 10.1431 14.6953 10.0872 14.5555 10.068C14.4157 10.0488 14.2736 10.0668 14.1419 10.1203C14.0472 10.2178 13.9739 10.3365 13.9274 10.4679C13.8808 10.5993 13.8622 10.74 13.8728 10.88Z" fill="#F8E671"/>
<path d="M20.0377 12.0561C20.0436 11.9451 20.0738 11.8371 20.1259 11.7408C20.1779 11.6445 20.2504 11.5626 20.3375 11.5015C20.3682 11.478 20.4044 11.464 20.4421 11.461C20.4798 11.4581 20.5175 11.4663 20.5511 11.4848L21.937 12.344L21.5531 13.1455L20.1288 12.2665L20.1231 12.262C20.0934 12.2385 20.0699 12.2072 20.0549 12.1711C20.0399 12.135 20.034 12.0954 20.0377 12.0561Z" fill="#999999"/>
<path d="M21.4178 12.9162C21.4237 12.8055 21.4538 12.6977 21.5057 12.6017C21.5577 12.5056 21.63 12.4239 21.7169 12.3631C21.7481 12.3385 21.7851 12.3237 21.8238 12.3205C21.8625 12.3173 21.9012 12.3257 21.9356 12.3449L24.4722 13.897L24.0499 14.6795L21.5517 13.1456C21.4713 13.1266 21.4178 13.0469 21.4178 12.9162Z" fill="#424242"/>
<path d="M23.9524 14.4683C23.9524 14.6704 24.087 14.7539 24.2522 14.6506C24.3395 14.5905 24.4122 14.5091 24.4644 14.4133C24.5167 14.3174 24.5469 14.2098 24.5527 14.0991C24.5527 13.8939 24.4174 13.8126 24.2522 13.9137C24.165 13.9746 24.0924 14.0565 24.0403 14.1528C23.9882 14.2492 23.9581 14.3572 23.9524 14.4683Z" fill="#525252"/>
</g>
</svg>
