<svg width="18" height="18" viewBox="0 0 17 16" fill="none" xmlns="http://www.w3.org/2000/svg">
<path d="M3.54167 9.04348C2.84119 9.04348 2.15645 9.24747 1.57402 9.62967C0.991599 10.0119 0.537655 10.5551 0.269595 11.1907C0.00153454 11.8262 -0.0686023 12.5256 0.0680537 13.2003C0.20471 13.875 0.542021 14.4948 1.03733 14.9812C1.53264 15.4677 2.16371 15.799 2.85072 15.9332C3.53774 16.0674 4.24985 15.9985 4.89701 15.7352C5.54416 15.472 6.09729 15.0262 6.48646 14.4542C6.87562 13.8822 7.08333 13.2097 7.08333 12.5217C7.08221 11.5996 6.70871 10.7155 6.04476 10.0635C5.38081 9.41139 4.48063 9.04458 3.54167 9.04348ZM3.54167 14.6087C3.12138 14.6087 2.71054 14.4863 2.36108 14.257C2.01163 14.0277 1.73926 13.7017 1.57842 13.3204C1.41759 12.939 1.37551 12.5194 1.4575 12.1146C1.53949 11.7098 1.74188 11.3379 2.03907 11.046C2.33625 10.7542 2.71489 10.5554 3.1271 10.4749C3.53931 10.3944 3.96658 10.4357 4.35487 10.5936C4.74316 10.7516 5.07504 11.0191 5.30854 11.3623C5.54204 11.7055 5.66667 12.109 5.66667 12.5217C5.66667 13.0752 5.44278 13.6061 5.04427 13.9974C4.64575 14.3888 4.10525 14.6087 3.54167 14.6087ZM13.4583 9.04348C12.7579 9.04348 12.0731 9.24747 11.4907 9.62967C10.9083 10.0119 10.4543 10.5551 10.1863 11.1907C9.9182 11.8262 9.84806 12.5256 9.98472 13.2003C10.1214 13.875 10.4587 14.4948 10.954 14.9812C11.4493 15.4677 12.0804 15.799 12.7674 15.9332C13.4544 16.0674 14.1665 15.9985 14.8137 15.7352C15.4608 15.472 16.014 15.0262 16.4031 14.4542C16.7923 13.8822 17 13.2097 17 12.5217C16.9989 11.5996 16.6254 10.7155 15.9614 10.0635C15.2975 9.41139 14.3973 9.04458 13.4583 9.04348ZM13.4583 14.6087C13.038 14.6087 12.6272 14.4863 12.2777 14.257C11.9283 14.0277 11.6559 13.7017 11.4951 13.3204C11.3343 12.939 11.2922 12.5194 11.3742 12.1146C11.4562 11.7098 11.6585 11.3379 11.9557 11.046C12.2529 10.7542 12.6316 10.5554 13.0438 10.4749C13.456 10.3944 13.8832 10.4357 14.2715 10.5936C14.6598 10.7516 14.9917 11.0191 15.2252 11.3623C15.4587 11.7055 15.5833 12.109 15.5833 12.5217C15.5833 13.0752 15.3594 13.6061 14.9609 13.9974C14.5624 14.3888 14.0219 14.6087 13.4583 14.6087ZM7.34117 7.84487C7.26725 7.78298 7.20726 7.70665 7.16502 7.62074C7.12278 7.53484 7.09921 7.44124 7.09581 7.3459C7.09241 7.25056 7.10926 7.15557 7.14528 7.06698C7.18131 6.97838 7.23571 6.89812 7.30504 6.8313C7.42475 6.72 9.18425 5.13391 9.18425 5.13391L11.5409 7.44835C11.6745 7.57507 11.8534 7.64518 12.0391 7.6436C12.2248 7.64201 12.4025 7.56885 12.5338 7.43987C12.6652 7.31089 12.7397 7.13641 12.7413 6.95402C12.7429 6.77162 12.6715 6.5959 12.5425 6.46469L9.70912 3.68209C9.68206 3.65487 9.65267 3.62996 9.62129 3.60765C8.86263 3.08019 7.95827 2.79238 7.02879 2.78261C6.03571 2.78261 3.54167 3.61043 3.54167 5.56522C3.54167 6.11871 3.76555 6.64954 4.16407 7.04092C4.56258 7.4323 5.10308 7.65217 5.66667 7.65217C5.68367 7.65217 5.69925 7.6487 5.71554 7.648C5.79194 8.13392 6.04113 8.57754 6.41892 8.90017L7.79167 10.0584V12.5217C7.79167 12.7062 7.86629 12.8832 7.99913 13.0136C8.13197 13.1441 8.31214 13.2174 8.5 13.2174C8.68786 13.2174 8.86803 13.1441 9.00087 13.0136C9.13371 12.8832 9.20833 12.7062 9.20833 12.5217V9.73913C9.20833 9.63882 9.18623 9.5397 9.14356 9.44856C9.10089 9.35743 9.03866 9.27643 8.96113 9.21113L7.34117 7.84487ZM4.95833 5.56522C4.95833 4.7207 6.49683 4.17391 7.02879 4.17391C7.35158 4.1756 7.67193 4.22893 7.97725 4.33183C7.97725 4.33183 6.33675 5.81635 6.31763 5.83443C6.04775 6.08626 5.82604 6.26087 5.66667 6.26087C5.47881 6.26087 5.29864 6.18758 5.1658 6.05712C5.03296 5.92666 4.95833 5.74972 4.95833 5.56522ZM9.91667 1.73913C9.91667 1.39516 10.0205 1.05892 10.2151 0.772922C10.4097 0.486923 10.6863 0.264015 11.0098 0.132384C11.3334 0.000753542 11.6895 -0.033687 12.033 0.0334177C12.3765 0.100522 12.692 0.266158 12.9397 0.50938C13.1873 0.752602 13.356 1.06249 13.4243 1.39984C13.4926 1.7372 13.4576 2.08688 13.3235 2.40467C13.1895 2.72245 12.9625 2.99407 12.6713 3.18516C12.3801 3.37626 12.0377 3.47826 11.6875 3.47826C11.2178 3.47826 10.7674 3.29503 10.4353 2.96888C10.1032 2.64273 9.91667 2.20038 9.91667 1.73913Z" fill="#555556"/>
</svg>
