<svg width="19" height="19" viewBox="0 0 19 19" fill="none" xmlns="http://www.w3.org/2000/svg">
<path d="M18.0875 16.8467L14.4217 13.2017C15.4058 11.9008 15.93 10.1358 15.9708 7.9275C15.8833 2.84833 13.0483 0.0333333 7.98083 0C2.8525 0.0325 0 3.01 0 7.92667C0 13.0892 2.855 15.8533 7.99083 15.8833C10.1817 15.87 11.94 15.3617 13.2433 14.3792L16.9125 18.0283C17.3442 18.4383 17.855 18.2708 18.0908 18.025C18.41 17.6933 18.4142 17.1708 18.0875 16.8467ZM1.66667 7.94167C1.7475 3.74583 3.81583 1.6925 7.98 1.66667C12.1042 1.69333 14.2325 3.80917 14.3042 7.92667C14.2258 12.1933 12.2167 14.1917 7.99083 14.2167C3.76 14.1917 1.75 12.1983 1.66667 7.94167Z" fill="#555556"/>
</svg>
