<svg width="18" height="18" viewBox="0 0 16 16" fill="none" xmlns="http://www.w3.org/2000/svg">
<g clip-path="url(#clip0_182_120)">
<path d="M15.0233 5.63878L10.3586 0.974779C9.05731 -0.326554 6.93998 -0.326554 5.63865 0.974779L0.974648 5.63878C0.344648 6.26878 -0.00268555 7.10745 -0.00268555 7.99878C-0.00268555 8.89011 0.344648 9.72811 0.975314 10.3588L5.63931 15.0228C6.28998 15.6734 7.14465 15.9988 7.99931 15.9988C8.85398 15.9988 9.70865 15.6734 10.3593 15.0228L15.0233 10.3581C16.3246 9.05678 16.3246 6.93945 15.0233 5.63811V5.63878ZM14.0806 9.41611L9.41665 14.0808C9.03798 14.4588 8.53465 14.6674 7.99931 14.6674C7.46398 14.6674 6.96065 14.4588 6.58198 14.0801L1.91798 9.41611C1.53931 9.03745 1.33065 8.53411 1.33065 7.99878C1.33065 7.46345 1.53931 6.96011 1.91798 6.58145L6.58198 1.91745C6.97265 1.52678 7.48598 1.33145 7.99931 1.33145C8.51265 1.33145 9.02598 1.52678 9.41665 1.91745L14.0813 6.58145C14.8626 7.36278 14.862 8.63478 14.0806 9.41611ZM10.6666 9.33345H10.5273C10.5273 9.33345 9.30332 4.19811 9.28531 4.15878C9.05265 3.64945 8.55998 3.33345 7.99998 3.33345C7.43998 3.33345 6.94731 3.65011 6.71465 4.15878C6.69665 4.19811 5.47265 9.33345 5.47265 9.33345H5.33331C4.96531 9.33345 4.66665 9.63211 4.66665 10.0001C4.66665 10.3681 4.96531 10.6668 5.33331 10.6668H10.6666C11.0346 10.6668 11.3333 10.3681 11.3333 10.0001C11.3333 9.63211 11.0346 9.33345 10.6666 9.33345ZM8.05265 4.68411L8.52331 6.66678H7.47665L7.94731 4.68411C7.96865 4.66478 8.03065 4.66478 8.05198 4.68411H8.05265ZM6.84398 9.33345L7.16065 8.00011H8.84065L9.15731 9.33345H6.84398Z" fill="#555556"/>
</g>
<defs>
<clipPath id="clip0_182_120">
<rect width="16" height="16" fill="white"/>
</clipPath>
</defs>
</svg>
