<svg width="69" height="19" viewBox="0 0 69 19" fill="none" xmlns="http://www.w3.org/2000/svg">
<path d="M47.5099 18.468C45.9739 18.468 44.6539 18.216 43.5499 17.712C42.4459 17.208 41.5339 16.536 40.8139 15.696C40.1179 14.832 39.6019 13.86 39.2659 12.78C38.9299 11.676 38.7619 10.524 38.7619 9.324C38.7619 8.172 38.9299 7.044 39.2659 5.94C39.6019 4.836 40.1059 3.84 40.7779 2.952C41.4499 2.064 42.3139 1.356 43.3699 0.828001C44.4499 0.276001 45.7339 0 47.2219 0C48.6139 0 49.8259 0.240001 50.8579 0.720001C51.8899 1.176 52.7419 1.824 53.4139 2.664C54.0859 3.48 54.5899 4.44 54.9259 5.544C55.2859 6.648 55.4659 7.824 55.4659 9.072C55.4659 9.24 55.4539 9.48 55.4299 9.792C55.4299 10.08 55.4059 10.392 55.3579 10.728H43.2259C43.3459 12 43.8139 12.96 44.6299 13.608C45.4699 14.256 46.5139 14.58 47.7619 14.58C48.6739 14.58 49.5619 14.424 50.4259 14.112C51.2899 13.776 52.0579 13.308 52.7299 12.708L54.9619 15.732C54.1219 16.38 53.3299 16.908 52.5859 17.316C51.8419 17.724 51.0619 18.012 50.2459 18.18C49.4539 18.372 48.5419 18.468 47.5099 18.468ZM51.0379 8.496C51.0859 8.304 51.1219 8.112 51.1459 7.92C51.1939 7.728 51.2179 7.548 51.2179 7.38C51.2179 6.876 51.1219 6.408 50.9299 5.976C50.7379 5.52 50.4739 5.124 50.1379 4.788C49.8019 4.452 49.3939 4.2 48.9139 4.032C48.4579 3.84 47.9299 3.744 47.3299 3.744C46.4419 3.744 45.6979 3.924 45.0979 4.284C44.4979 4.644 44.0419 5.112 43.7299 5.688C43.4419 6.24 43.2619 6.816 43.1899 7.416H52.5499L51.0379 8.496Z" fill="#121314"/>
<path d="M20.3496 18.108V0.360001H24.8496V4.392L24.1296 4.464C24.4416 3.384 24.8976 2.52 25.4976 1.872C26.0976 1.224 26.7936 0.756002 27.5856 0.468002C28.3776 0.156002 29.1936 0 30.0336 0C32.0496 0 33.6216 0.576 34.7496 1.728C35.9016 2.856 36.4776 4.452 36.4776 6.516V18.108H31.9776V8.172C31.9776 6.684 31.7136 5.604 31.1856 4.932C30.6576 4.236 29.8296 3.888 28.7016 3.888C27.8376 3.888 27.1176 4.092 26.5416 4.5C25.9896 4.884 25.5696 5.496 25.2816 6.336C24.9936 7.176 24.8496 8.268 24.8496 9.612V18.108H20.3496Z" fill="#121314"/>
<path d="M8.964 18.468C7.236 18.468 5.7 18.072 4.356 17.28C3.012 16.488 1.944 15.396 1.152 14.004C0.384 12.588 0 10.992 0 9.216C0 7.416 0.384 5.832 1.152 4.464C1.92 3.072 2.976 1.98 4.32 1.188C5.688 0.396 7.236 0 8.964 0C10.668 0 12.192 0.396 13.536 1.188C14.88 1.98 15.936 3.072 16.704 4.464C17.472 5.832 17.856 7.416 17.856 9.216C17.856 10.992 17.472 12.576 16.704 13.968C15.936 15.36 14.88 16.464 13.536 17.28C12.192 18.072 10.668 18.468 8.964 18.468ZM8.964 14.544C9.876 14.544 10.656 14.328 11.304 13.896C11.976 13.464 12.48 12.852 12.816 12.06C13.176 11.268 13.356 10.32 13.356 9.216C13.356 8.088 13.176 7.14 12.816 6.372C12.48 5.58 11.976 4.98 11.304 4.572C10.656 4.14 9.876 3.924 8.964 3.924C8.028 3.924 7.224 4.14 6.552 4.572C5.88 4.98 5.364 5.58 5.004 6.372C4.644 7.14 4.464 8.088 4.464 9.216C4.464 10.32 4.644 11.268 5.004 12.06C5.364 12.852 5.88 13.464 6.552 13.896C7.224 14.328 8.028 14.544 8.964 14.544Z" fill="#121314"/>
<path d="M68.632 14.108C68.632 16.3171 66.8411 18.108 64.632 18.108C62.4229 18.108 60.632 16.3171 60.632 14.108C60.632 11.8989 62.4229 10.108 64.632 10.108C66.8411 10.108 68.632 11.8989 68.632 14.108Z" fill="#FFDD00"/>
</svg>
