<svg width="28" height="19" viewBox="0 0 28 19" fill="none" xmlns="http://www.w3.org/2000/svg">
<path d="M8.964 18.468C7.236 18.468 5.7 18.072 4.356 17.28C3.012 16.488 1.944 15.396 1.152 14.004C0.384 12.588 0 10.992 0 9.216C0 7.416 0.384 5.832 1.152 4.464C1.92 3.072 2.976 1.98 4.32 1.188C5.688 0.396 7.236 0 8.964 0C10.668 0 12.192 0.396 13.536 1.188C14.88 1.98 15.936 3.072 16.704 4.464C17.472 5.832 17.856 7.416 17.856 9.216C17.856 10.992 17.472 12.576 16.704 13.968C15.936 15.36 14.88 16.464 13.536 17.28C12.192 18.072 10.668 18.468 8.964 18.468ZM8.964 14.544C9.876 14.544 10.656 14.328 11.304 13.896C11.976 13.464 12.48 12.852 12.816 12.06C13.176 11.268 13.356 10.32 13.356 9.216C13.356 8.088 13.176 7.14 12.816 6.372C12.48 5.58 11.976 4.98 11.304 4.572C10.656 4.14 9.876 3.924 8.964 3.924C8.028 3.924 7.224 4.14 6.552 4.572C5.88 4.98 5.364 5.58 5.004 6.372C4.644 7.14 4.464 8.088 4.464 9.216C4.464 10.32 4.644 11.268 5.004 12.06C5.364 12.852 5.88 13.464 6.552 13.896C7.224 14.328 8.028 14.544 8.964 14.544Z" fill="#121314"/>
<circle cx="24" cy="14.108" r="4" fill="#FFDD00"/>
</svg>
