<svg width="35" height="35" viewBox="0 0 35 35" fill="none" xmlns="http://www.w3.org/2000/svg">
<path d="M33.5417 0H28.84C26.3579 0 23.9852 0.771458 21.9771 2.23125L20.055 3.62833C19.2996 3.18646 18.4333 2.91521 17.4985 2.91521C16.5637 2.91521 15.696 3.18646 14.9421 3.62833L13.02 2.23125C11.0148 0.771458 8.64208 0 6.16 0H1.45833C0.653333 0 0 0.651875 0 1.45833C0 2.26479 0.653333 2.91667 1.45833 2.91667H6.16C8.02083 2.91667 9.80146 3.49417 11.3065 4.58938L12.9383 5.77646C12.6029 6.45458 12.3973 7.20708 12.3973 8.01354C8.9075 9.05479 6.73021 12.6744 7.43458 16.3333L9.06208 24.7902H5.83479C5.02979 24.7902 4.37646 25.4421 4.37646 26.2485C4.37646 27.055 5.02979 27.7069 5.83479 27.7069H9.65563C10.3177 30.259 12.616 32.0819 15.2819 32.0819H16.0431V33.5402C16.0431 34.3467 16.6965 34.9985 17.5015 34.9985C18.3065 34.9985 18.9598 34.3467 18.9598 33.5402V32.0819H19.721C22.3869 32.0819 24.6852 30.259 25.3473 27.7069H29.1681C29.9731 27.7069 30.6265 27.055 30.6265 26.2485C30.6265 25.4421 29.9731 24.7902 29.1681 24.7902H25.9408L27.5683 16.3333C28.2727 12.6729 26.094 9.05188 22.6056 8.01354C22.6056 7.20708 22.3985 6.45458 22.0631 5.77646L23.6965 4.58938C25.2015 3.49417 26.9806 2.91667 28.8429 2.91667H33.5446C34.3496 2.91667 35.0029 2.26479 35.0029 1.45833C35.0029 0.651875 34.3496 0 33.5446 0L33.5417 0ZM19.6875 8.02083C19.6875 9.22688 18.706 10.2083 17.5 10.2083C16.294 10.2083 15.3125 9.22688 15.3125 8.02083C15.3125 6.81479 16.294 5.83333 17.5 5.83333C18.706 5.83333 19.6875 6.81479 19.6875 8.02083ZM24.7027 15.785L22.5837 26.8013C22.3198 28.1706 21.1167 29.1667 19.7196 29.1667H18.9583V20.4167C18.9583 19.6102 18.305 18.9583 17.5 18.9583C16.695 18.9583 16.0417 19.6102 16.0417 20.4167V29.1667H15.2804C13.8833 29.1667 12.6802 28.1706 12.4163 26.8013L10.2973 15.785C9.87583 13.5873 11.1606 11.4202 13.2315 10.8033C14.1429 12.1975 15.7135 13.125 17.5 13.125C19.2865 13.125 20.8556 12.199 21.7685 10.8033C23.8379 11.4173 25.1256 13.5858 24.7027 15.785Z" fill="#F59E0B"/>
</svg>
