<svg width="14" height="14" viewBox="0 0 14 14" fill="none" xmlns="http://www.w3.org/2000/svg">
<path d="M13.1458 4.93829L9.06238 0.854548C8.51103 0.303904 7.77882 0 6.99934 0C6.21987 0 5.48708 0.303904 4.93631 0.854548L0.852838 4.93829C-0.284279 6.07516 -0.284279 7.92484 0.852838 9.06171L4.93631 13.1455C5.48708 13.6961 6.21987 14 6.99934 14C7.77882 14 8.51103 13.6961 9.06238 13.1455L13.1458 9.06171C13.6966 8.51106 14 7.77901 14 7.00029C14 6.22157 13.6966 5.48894 13.1458 4.93829ZM12.3209 8.23691L8.2374 12.3207C7.57578 12.9815 6.42291 12.9815 5.76129 12.3207L1.67782 8.23691C0.99578 7.55502 0.99578 6.44498 1.67782 5.76309L5.76129 1.67935C6.0921 1.34919 6.53143 1.16662 6.99934 1.16662C7.46726 1.16662 7.90659 1.34861 8.2374 1.67935L12.3209 5.76309C12.6511 6.09325 12.8331 6.53248 12.8331 7.00029C12.8331 7.46811 12.6511 7.90675 12.3209 8.23691ZM7.87392 9.6281C7.87392 10.1111 7.48185 10.5031 6.99876 10.5031C6.51567 10.5031 6.12361 10.1111 6.12361 9.6281C6.12361 9.14512 6.51567 8.75313 6.99876 8.75313C7.48185 8.75313 7.87392 9.14512 7.87392 9.6281ZM6.41532 7.29486V4.08666C6.41532 3.76409 6.6767 3.50335 6.99876 3.50335C7.32082 3.50335 7.5822 3.76409 7.5822 4.08666V7.29486C7.5822 7.61743 7.32082 7.87817 6.99876 7.87817C6.6767 7.87817 6.41532 7.61743 6.41532 7.29486Z" fill="#D08911"/>
</svg>
