<svg width="64" height="66" viewBox="0 0 64 66" fill="none" xmlns="http://www.w3.org/2000/svg">
<path d="M62.9756 35.6216C63.5763 36.552 63.8634 37.594 63.8634 38.6255C63.8634 40.4916 62.9224 42.3206 61.2051 43.3679C59.541 44.3833 58.5521 46.1857 58.5521 48.0998C58.5521 48.3283 58.568 48.557 58.5947 48.7909C58.6267 49.0248 58.6373 49.2588 58.6373 49.4874C58.6373 52.2946 56.5107 54.7137 53.6395 55.0008C52.555 55.1071 51.5501 55.5324 50.7314 56.1864C49.9126 56.8404 49.2799 57.7229 48.9344 58.7597C48.1529 61.0831 45.989 62.5398 43.6762 62.5398C43.0435 62.5398 42.4003 62.4335 41.7728 62.2049C41.4645 62.0932 41.1507 62.0081 40.8318 61.955C40.5128 61.8965 40.1938 61.87 39.8748 61.87C38.4074 61.87 36.9667 62.4548 35.9033 63.5447C34.8188 64.6611 33.3726 65.2194 31.9318 65.2194C30.4911 65.2194 29.0448 64.6611 27.9603 63.5447C26.897 62.4548 25.4561 61.87 23.9887 61.87C23.3507 61.87 22.7074 61.9816 22.0906 62.2049C21.4632 62.4335 20.8199 62.5398 20.1873 62.5398C17.8744 62.5398 15.7105 61.083 14.9291 58.7597C14.5835 57.7229 13.9508 56.8404 13.1321 56.1864C12.3133 55.5324 11.3085 55.1071 10.2239 55.0008C7.35285 54.7137 5.22622 52.2946 5.22622 49.4874C5.22622 49.2588 5.23685 49.0248 5.26872 48.7909C5.29533 48.557 5.3113 48.3283 5.3113 48.0998C5.3113 46.1858 4.32236 44.3834 2.65838 43.3679C0.941092 42.3206 0 40.4916 0 38.6255C0 37.594 0.287206 36.552 0.887876 35.6216C1.48337 34.7018 1.77576 33.6598 1.77576 32.6071C1.77576 31.565 1.48337 30.5123 0.887876 29.5979C0.287206 28.6674 0 27.6254 0 26.594C0 24.7279 0.941092 22.9043 2.65838 21.8569C4.32245 20.8413 5.3113 19.0337 5.3113 17.1197C5.3113 16.8912 5.29542 16.6625 5.26872 16.4286C5.23685 16.1946 5.22622 15.9607 5.22622 15.7321C5.22622 12.9249 7.35285 10.5058 10.2239 10.2187C11.3085 10.107 12.3133 9.68706 13.1321 9.03309C13.9508 8.38438 14.5835 7.50195 14.9291 6.46515C15.7105 4.14175 17.8798 2.67971 20.1925 2.67971C20.8253 2.67971 21.4632 2.78605 22.0906 3.0146C22.7073 3.24316 23.3506 3.34957 23.9887 3.34957C25.4561 3.34957 26.897 2.76471 27.9603 1.67479C29.0447 0.558263 30.491 0 31.9318 0C33.3726 0 34.8188 0.558263 35.9033 1.67479C37.4291 3.23789 39.726 3.76428 41.7729 3.0146C42.4004 2.78605 43.0383 2.67971 43.671 2.67971C45.9838 2.67971 48.153 4.14175 48.9345 6.46515C49.2801 7.50195 49.9127 8.38438 50.7315 9.03309C51.5502 9.68697 52.5552 10.107 53.6396 10.2187C56.5108 10.5058 58.6374 12.9249 58.6374 15.7321C58.6374 15.9607 58.6268 16.1946 58.5948 16.4286C58.5682 16.6625 58.5522 16.8912 58.5522 17.1197C58.5522 19.0338 59.5412 20.8413 61.2051 21.8569C62.9224 22.9042 63.8635 24.7278 63.8635 26.594C63.8635 27.6254 63.5764 28.6675 62.9756 29.5979C62.3802 30.5123 62.0878 31.5651 62.0878 32.6071C62.0878 33.1866 62.1782 33.7661 62.3591 34.3244C62.5025 34.7762 62.7098 35.2122 62.9756 35.6216Z" fill="#16B04F"/>
<path d="M63.8634 38.6253C63.8634 40.4915 62.9224 42.3204 61.2051 43.3678C59.541 44.3832 58.5521 46.1856 58.5521 48.0996C58.5521 48.3282 58.568 48.5568 58.5947 48.7908C58.6267 49.0247 58.6373 49.2587 58.6373 49.4872C58.6373 52.2944 56.5107 54.7135 53.6395 55.0007C52.555 55.107 51.5501 55.5323 50.7314 56.1863C49.9126 56.8403 49.2799 57.7228 48.9344 58.7596C48.1529 61.083 45.989 62.5397 43.6762 62.5397C43.0435 62.5397 42.4003 62.4334 41.7728 62.2048C41.4644 62.0931 41.1507 62.008 40.8318 61.9549L14.7218 35.8501C13.3766 34.4997 13.3766 32.3092 14.7218 30.9641C14.8068 30.879 14.8919 30.7993 14.9823 30.7249C16.3381 29.619 18.3424 29.6934 19.6131 30.9641L26.2165 37.5674L43.4637 20.3202C43.5488 20.2404 43.6338 20.1607 43.7242 20.0863C45.08 18.975 47.0843 19.0548 48.355 20.3202L62.3592 34.3242C62.5026 34.7762 62.71 35.2121 62.9758 35.6215C63.5764 36.5518 63.8634 37.5939 63.8634 38.6253Z" fill="#545454" fill-opacity="0.28"/>
<path d="M48.3527 20.3212C47.0031 18.9717 44.8151 18.9717 43.4655 20.3212L26.2179 37.5689L19.6109 30.9621C18.2613 29.6127 16.0729 29.6127 14.7236 30.9621C13.374 32.3117 13.374 34.4997 14.7236 35.8493L23.7743 44.8998C24.4491 45.5745 25.3334 45.912 26.2179 45.912C27.1023 45.912 27.9867 45.5745 28.6615 44.8998L48.3527 25.2085C49.7023 23.8588 49.7023 21.6709 48.3527 20.3212Z" fill="white"/>
</svg>
