<svg width="14" height="14" viewBox="0 0 14 14" fill="none" xmlns="http://www.w3.org/2000/svg">
<path d="M11.0833 9.33333V5.83333C11.0833 5.51133 10.8226 5.25 10.5 5.25C10.1774 5.25 9.91667 5.51133 9.91667 5.83333V9.09183L3.91242 3.08758C3.79867 2.97383 3.64933 2.91667 3.5 2.91667C3.35067 2.91667 3.20133 2.97383 3.08758 3.08758C2.8595 3.31567 2.8595 3.68433 3.08758 3.91242L9.09183 9.91667H5.83333C5.51075 9.91667 5.25 10.178 5.25 10.5C5.25 10.822 5.51075 11.0833 5.83333 11.0833H9.33333C10.2982 11.0833 11.0833 10.2982 11.0833 9.33333ZM14 11.0833V2.91667C14 1.30842 12.6916 4.76837e-07 11.0833 4.76837e-07H2.91667C1.30842 4.76837e-07 0 1.30842 0 2.91667V11.0833C0 12.6916 1.30842 14 2.91667 14H11.0833C12.6916 14 14 12.6916 14 11.0833ZM12.8333 11.0833C12.8333 12.0482 12.0482 12.8333 11.0833 12.8333H2.91667C1.95183 12.8333 1.16667 12.0482 1.16667 11.0833V2.91667C1.16667 1.95183 1.95183 1.16667 2.91667 1.16667H11.0833C12.0482 1.16667 12.8333 1.95183 12.8333 2.91667V11.0833Z" fill="#DC2626"/>
</svg>
