<svg width="14" height="14" viewBox="0 0 14 14" fill="none" xmlns="http://www.w3.org/2000/svg">
<path d="M11.0833 4.66667V8.16667C11.0833 8.48867 10.8226 8.75 10.5 8.75C10.1774 8.75 9.91667 8.48867 9.91667 8.16667V4.90817L3.91242 10.9124C3.79867 11.0262 3.64933 11.0833 3.5 11.0833C3.35067 11.0833 3.20133 11.0262 3.08758 10.9124C2.8595 10.6843 2.8595 10.3157 3.08758 10.0876L9.09183 4.08333H5.83333C5.51075 4.08333 5.25 3.822 5.25 3.5C5.25 3.178 5.51075 2.91667 5.83333 2.91667H9.33333C10.2982 2.91667 11.0833 3.70183 11.0833 4.66667ZM14 2.91667V11.0833C14 12.6916 12.6916 14 11.0833 14H2.91667C1.30842 14 0 12.6916 0 11.0833V2.91667C0 1.30842 1.30842 0 2.91667 0H11.0833C12.6916 0 14 1.30842 14 2.91667ZM12.8333 2.91667C12.8333 1.95183 12.0482 1.16667 11.0833 1.16667H2.91667C1.95183 1.16667 1.16667 1.95183 1.16667 2.91667V11.0833C1.16667 12.0482 1.95183 12.8333 2.91667 12.8333H11.0833C12.0482 12.8333 12.8333 12.0482 12.8333 11.0833V2.91667Z" fill="#16B04F"/>
</svg>
