<svg width="429" height="154" viewBox="0 0 429 154" fill="none" xmlns="http://www.w3.org/2000/svg">
<g clip-path="url(#clip0_391_2663)">
<path d="M429.006 0.800289H27.1608C27.1608 0.800289 0.500122 -3.81846 0.500122 32.2065V153.467" stroke="#BBBBBB"/>
<path d="M429.006 36.5581H0.846191" stroke="#BBBBBB"/>
<path d="M29.71 24.639C32.3433 24.639 34.478 22.5043 34.478 19.871C34.478 17.2377 32.3433 15.103 29.71 15.103C27.0767 15.103 24.942 17.2377 24.942 19.871C24.942 22.5043 27.0767 24.639 29.71 24.639Z" fill="#EB6565"/>
<path d="M42.821 24.639C45.4543 24.639 47.589 22.5043 47.589 19.871C47.589 17.2377 45.4543 15.103 42.821 15.103C40.1877 15.103 38.053 17.2377 38.053 19.871C38.053 22.5043 40.1877 24.639 42.821 24.639Z" fill="#FFCF11"/>
<path d="M55.932 24.639C58.5653 24.639 60.7 22.5043 60.7 19.871C60.7 17.2377 58.5653 15.103 55.932 15.103C53.2987 15.103 51.164 17.2377 51.164 19.871C51.164 22.5043 53.2987 24.639 55.932 24.639Z" fill="#31C47F"/>
<path d="M429.007 36.5581H1.104V73.5081H429.007V36.5581Z" fill="#F9F9F9"/>
<path d="M429.006 73.5068H0.611877" stroke="#E4E4E4"/>
<path opacity="0.136" d="M107.201 50.2559H28.201C26.5441 50.2559 25.201 51.599 25.201 53.2559V56.2559C25.201 57.9127 26.5441 59.2559 28.201 59.2559H107.201C108.858 59.2559 110.201 57.9127 110.201 56.2559V53.2559C110.201 51.599 108.858 50.2559 107.201 50.2559Z" fill="#808080"/>
<path opacity="0.136" d="M190.201 50.2559H134.201C132.544 50.2559 131.201 51.599 131.201 53.2559V56.2559C131.201 57.9127 132.544 59.2559 134.201 59.2559H190.201C191.858 59.2559 193.201 57.9127 193.201 56.2559V53.2559C193.201 51.599 191.858 50.2559 190.201 50.2559Z" fill="#808080"/>
<path opacity="0.136" d="M269.201 50.2559H217.201C215.544 50.2559 214.201 51.599 214.201 53.2559V56.2559C214.201 57.9127 215.544 59.2559 217.201 59.2559H269.201C270.858 59.2559 272.201 57.9127 272.201 56.2559V53.2559C272.201 51.599 270.858 50.2559 269.201 50.2559Z" fill="#808080"/>
<path opacity="0.136" d="M354.201 50.2559H295.201C293.544 50.2559 292.201 51.599 292.201 53.2559V56.2559C292.201 57.9127 293.544 59.2559 295.201 59.2559H354.201C355.858 59.2559 357.201 57.9127 357.201 56.2559V53.2559C357.201 51.599 355.858 50.2559 354.201 50.2559Z" fill="#808080"/>
<path opacity="0.136" d="M418.201 50.2559H381.201C379.544 50.2559 378.201 51.599 378.201 53.2559V56.2559C378.201 57.9127 379.544 59.2559 381.201 59.2559H418.201C419.858 59.2559 421.201 57.9127 421.201 56.2559V53.2559C421.201 51.599 419.858 50.2559 418.201 50.2559Z" fill="#808080"/>
</g>
<defs>
<clipPath id="clip0_391_2663">
<rect width="429.006" height="153.468" fill="white"/>
</clipPath>
</defs>
</svg>
