<svg width="41" height="44" viewBox="0 0 41 44" fill="none" xmlns="http://www.w3.org/2000/svg">
<path d="M26.4055 21.6443V31.9128C26.4055 31.9128 27.4652 31.9128 28.8493 31.9128C29.6597 31.9128 30.316 32.5692 30.316 33.3795C30.316 34.1898 29.6597 34.8462 28.8493 34.8462H24.9388C24.1285 34.8462 23.4722 34.1898 23.4722 33.3795V21.6443C23.4722 20.834 24.1285 20.1777 24.9388 20.1777C25.7492 20.1777 26.4055 20.834 26.4055 21.6443ZM30.1345 38.1645C29.59 38.3863 29.0125 38.4982 28.4167 38.4982H10.0833C7.55517 38.4982 5.5 36.443 5.5 33.9148V10.0815C5.5 7.55517 7.55517 5.49817 10.0833 5.49817H20.1667V12.8315C20.1667 14.8573 21.8075 16.4982 23.8333 16.4982L33.9167 16.4853C35.75 16.4853 36.7785 14.795 36.5292 13.299C36.1845 11.2108 35.2092 9.31883 33.7132 7.82467L28.8438 2.9535C26.939 1.04867 24.4072 5.57161e-07 21.7122 5.57161e-07H10.0833C4.52467 -0.00183278 0 4.521 0 10.0815V33.9148C0 39.4735 4.52467 43.9982 10.0833 43.9982H28.4167C29.7238 43.9982 30.9943 43.7507 32.1988 43.2648C33.6068 42.6928 34.2852 41.0905 33.715 39.6825C33.1448 38.2763 31.5425 37.5998 30.1327 38.1663L30.1345 38.1645ZM37.1928 26.3102C36.1662 25.894 35.2055 25.454 34.6885 25.2193C34.507 25.1368 33.9038 24.9022 33.8947 24.0918C33.891 23.8517 34.0835 23.2833 34.8388 23.034C35.6217 22.781 36.3642 22.9497 36.9233 23.1953C37.4807 23.4392 38.1333 23.265 38.5055 22.7828C39.0152 22.1228 38.808 21.1567 38.0655 20.779C37.059 20.2675 35.6583 19.899 34.1202 20.4068C32.6608 20.889 31.6287 22.1503 31.4233 23.6995C31.229 25.1992 31.845 26.5687 33.1118 27.456C33.1173 27.456 34.6482 28.2058 36.3257 28.886C36.718 29.0437 37.9848 29.6358 37.8235 30.6442C37.7043 31.361 36.9215 32.1017 35.8142 32.1017C35.1157 32.1017 34.4318 31.9055 33.8525 31.5553C33.33 31.24 32.659 31.3262 32.2282 31.757L32.2245 31.7607C31.6213 32.362 31.7313 33.3593 32.4408 33.8305C33.429 34.485 34.5968 34.8443 35.8142 34.8443C38.0527 34.8443 39.93 33.2805 40.2802 31.1263C40.5423 29.5093 39.8695 27.3937 37.191 26.3102H37.1928ZM20.152 20.1777C19.5892 20.1777 19.0722 20.4967 18.821 21.0008L17.237 24.178L15.653 21.0008C15.4018 20.4967 14.8867 20.1777 14.322 20.1777C13.2183 20.1777 12.4997 21.34 12.991 22.3282L15.5742 27.511L12.991 32.6938C12.4978 33.682 13.2165 34.8443 14.322 34.8443C14.8848 34.8443 15.4018 34.5253 15.653 34.0212L17.237 30.844L18.821 34.0212C19.0722 34.5253 19.5873 34.8443 20.152 34.8443C21.2557 34.8443 21.9743 33.682 21.483 32.6938L18.8998 27.511L21.483 22.3282C21.9762 21.34 21.2575 20.1777 20.152 20.1777Z" fill="#AAAAAA"/>
</svg>
